NotoSerifDisplay-BoldItalic.ufo
<glyph name="exclam" format="2">
  <advance width="441"/>
  <unicode hex="0021"/>
  <outline>
    <contour>
      <point x="203" y="248" type="line"/>
      <point x="218" y="248" type="line"/>
      <point x="434" y="714" type="line"/>
      <point x="218" y="714" type="line"/>
    </contour>
    <contour>
      <point x="180" y="-8" type="curve" smooth="yes"/>
      <point x="225" y="-8"/>
      <point x="277" y="19"/>
      <point x="277" y="97" type="curve" smooth="yes"/>
      <point x="277" y="148"/>
      <point x="244" y="172"/>
      <point x="197" y="172" type="curve" smooth="yes"/>
      <point x="139" y="172"/>
      <point x="100" y="129"/>
      <point x="100" y="66" type="curve" smooth="yes"/>
      <point x="100" y="16"/>
      <point x="132" y="-8"/>
    </contour>
  </outline>
</glyph>
<glyph name="dollar" format="2">
  <advance width="559"/>
  <unicode hex="0024"/>
  <outline>
    <contour>
      <point x="234" y="38" type="curve"/>
      <point x="211" y="-79" type="line"/>
      <point x="221" y="-79" type="line"/>
      <point x="244" y="38" type="line"/>
      <point x="418" y="38"/>
      <point x="512" y="111"/>
      <point x="512" y="230" type="curve" smooth="yes"/>
      <point x="512" y="320"/>
      <point x="485" y="368"/>
      <point x="359" y="438" type="curve" smooth="yes"/>
      <point x="325" y="457" type="line"/>
      <point x="368" y="678" type="line"/>
      <point x="420" y="665"/>
      <point x="428" y="615"/>
      <point x="428" y="484" type="curve"/>
      <point x="535" y="484"/>
      <point x="565" y="520"/>
      <point x="565" y="573" type="curve" smooth="yes"/>
      <point x="565" y="645"/>
      <point x="475" y="686"/>
      <point x="370" y="689" type="curve"/>
      <point x="384" y="760" type="line"/>
      <point x="374" y="760" type="line"/>
      <point x="360" y="689" type="line"/>
      <point x="194" y="688"/>
      <point x="97" y="618"/>
      <point x="97" y="498" type="curve" smooth="yes"/>
      <point x="97" y="412"/>
      <point x="142" y="368"/>
      <point x="230" y="317" type="curve" smooth="yes"/>
      <point x="282" y="287" type="line"/>
      <point x="236" y="48" type="line"/>
      <point x="174" y="52"/>
      <point x="152" y="115"/>
      <point x="152" y="268" type="curve"/>
      <point x="50" y="268"/>
      <point x="16" y="228"/>
      <point x="16" y="172" type="curve" smooth="yes"/>
      <point x="16" y="81"/>
      <point x="111" y="39"/>
    </contour>
    <contour>
      <point x="246" y="48" type="curve"/>
      <point x="291" y="282" type="line"/>
      <point x="356" y="241"/>
      <point x="372" y="203"/>
      <point x="372" y="167" type="curve" smooth="yes"/>
      <point x="372" y="74"/>
      <point x="325" y="49"/>
    </contour>
    <contour>
      <point x="358" y="679" type="curve"/>
      <point x="316" y="462" type="line"/>
      <point x="271" y="486"/>
      <point x="245" y="512"/>
      <point x="245" y="557" type="curve" smooth="yes"/>
      <point x="245" y="655"/>
      <point x="309" y="679"/>
    </contour>
  </outline>
</glyph>
<glyph name="ampersand" format="2">
  <advance width="838"/>
  <unicode hex="0026"/>
  <outline>
    <contour>
      <point x="293" y="-10" type="curve" smooth="yes"/>
      <point x="391" y="-10"/>
      <point x="461" y="27"/>
      <point x="504" y="59" type="curve"/>
      <point x="547" y="0" type="line"/>
      <point x="776" y="0" type="line"/>
      <point x="778" y="10" type="line"/>
      <point x="773" y="10" type="line" smooth="yes"/>
      <point x="761" y="10"/>
      <point x="754" y="13"/>
      <point x="719" y="57" type="curve" smooth="yes"/>
      <point x="616" y="190" type="line"/>
      <point x="642" y="230"/>
      <point x="675" y="286"/>
      <point x="727" y="377" type="curve" smooth="yes"/>
      <point x="749" y="415"/>
      <point x="757" y="420"/>
      <point x="802" y="420" type="curve" smooth="yes"/>
      <point x="820" y="420" type="line"/>
      <point x="821" y="430" type="line"/>
      <point x="606" y="430" type="line"/>
      <point x="598" y="392" type="line" smooth="yes"/>
      <point x="590" y="352"/>
      <point x="578" y="300"/>
      <point x="564" y="258" type="curve"/>
      <point x="429" y="432" type="line"/>
      <point x="568" y="487"/>
      <point x="627" y="517"/>
      <point x="627" y="594" type="curve" smooth="yes"/>
      <point x="627" y="667"/>
      <point x="564" y="724"/>
      <point x="443" y="724" type="curve" smooth="yes"/>
      <point x="310" y="724"/>
      <point x="211" y="666"/>
      <point x="211" y="552" type="curve" smooth="yes"/>
      <point x="211" y="479"/>
      <point x="238" y="436"/>
      <point x="272" y="382" type="curve"/>
      <point x="146" y="352"/>
      <point x="33" y="302"/>
      <point x="33" y="179" type="curve" smooth="yes"/>
      <point x="33" y="69"/>
      <point x="105" y="-10"/>
    </contour>
    <contour>
      <point x="313" y="0" type="curve" smooth="yes"/>
      <point x="246" y="0"/>
      <point x="216" y="35"/>
      <point x="216" y="191" type="curve" smooth="yes"/>
      <point x="216" y="281"/>
      <point x="233" y="336"/>
      <point x="277" y="372" type="curve"/>
      <point x="472" y="105" type="line"/>
      <point x="441" y="46"/>
      <point x="385" y="0"/>
    </contour>
    <contour>
      <point x="425" y="441" type="curve" smooth="yes"/>
      <point x="401" y="474"/>
      <point x="369" y="503"/>
      <point x="369" y="593" type="curve" smooth="yes"/>
      <point x="369" y="682"/>
      <point x="398" y="714"/>
      <point x="443" y="714" type="curve" smooth="yes"/>
      <point x="480" y="714"/>
      <point x="497" y="688"/>
      <point x="497" y="589" type="curve" smooth="yes"/>
      <point x="497" y="536"/>
      <point x="485" y="470"/>
    </contour>
  </outline>
</glyph>
<glyph name="parenleft" format="2">
  <advance width="440"/>
  <unicode hex="0028"/>
  <outline>
    <contour>
      <point x="312" y="-147" type="curve"/>
      <point x="313" y="-137" type="line"/>
      <point x="276" y="-95"/>
      <point x="244" y="-10"/>
      <point x="244" y="185" type="curve" smooth="yes"/>
      <point x="244" y="321"/>
      <point x="301" y="658"/>
      <point x="503" y="771" type="curve"/>
      <point x="504" y="781" type="line"/>
      <point x="180" y="724"/>
      <point x="46" y="481"/>
      <point x="46" y="234" type="curve" smooth="yes"/>
      <point x="46" y="38"/>
      <point x="124" y="-90"/>
    </contour>
  </outline>
</glyph>
<glyph name="parenright" format="2">
  <advance width="440"/>
  <unicode hex="0029"/>
  <outline>
    <contour>
      <point x="-43" y="-143" type="line"/>
      <point x="281" y="-86"/>
      <point x="415" y="157"/>
      <point x="415" y="404" type="curve" smooth="yes"/>
      <point x="415" y="600"/>
      <point x="337" y="728"/>
      <point x="149" y="785" type="curve"/>
      <point x="148" y="775" type="line"/>
      <point x="185" y="733"/>
      <point x="217" y="648"/>
      <point x="217" y="453" type="curve" smooth="yes"/>
      <point x="217" y="317"/>
      <point x="160" y="-20"/>
      <point x="-42" y="-133" type="curve"/>
    </contour>
  </outline>
</glyph>
<glyph name="asterisk" format="2">
  <advance width="628"/>
  <unicode hex="002A"/>
  <outline>
    <contour>
      <point x="397" y="347" type="line"/>
      <point x="381" y="541" type="line"/>
      <point x="511" y="377" type="line"/>
      <point x="587" y="478" type="line"/>
      <point x="391" y="553" type="line"/>
      <point x="599" y="543" type="line"/>
      <point x="572" y="667" type="line"/>
      <point x="387" y="568" type="line"/>
      <point x="482" y="738" type="line"/>
      <point x="354" y="765" type="line"/>
      <point x="367" y="571" type="line"/>
      <point x="238" y="740" type="line"/>
      <point x="163" y="635" type="line"/>
      <point x="354" y="562" type="line"/>
      <point x="149" y="570" type="line"/>
      <point x="177" y="448" type="line"/>
      <point x="362" y="546" type="line"/>
      <point x="270" y="374" type="line"/>
    </contour>
  </outline>
</glyph>
<glyph name="comma" format="2">
  <advance width="324"/>
  <unicode hex="002C"/>
  <outline>
    <contour>
      <point x="-11" y="-145" type="curve"/>
      <point x="-15" y="-155" type="line"/>
      <point x="147" y="-124"/>
      <point x="223" y="-36"/>
      <point x="223" y="74" type="curve" smooth="yes"/>
      <point x="223" y="136"/>
      <point x="192" y="171"/>
      <point x="140" y="171" type="curve" smooth="yes"/>
      <point x="95" y="171"/>
      <point x="65" y="141"/>
      <point x="65" y="95" type="curve" smooth="yes"/>
      <point x="65" y="26"/>
      <point x="127" y="29"/>
      <point x="127" y="-36" type="curve" smooth="yes"/>
      <point x="127" y="-100"/>
      <point x="58" y="-128"/>
    </contour>
  </outline>
</glyph>
<glyph name="hyphen" format="2">
  <advance width="310"/>
  <unicode hex="002D"/>
  <outline>
    <contour>
      <point x="24" y="269" type="line"/>
      <point x="284" y="269" type="line"/>
      <point x="289" y="289" type="line"/>
      <point x="29" y="289" type="line"/>
    </contour>
  </outline>
</glyph>
<glyph name="period" format="2">
  <advance width="327"/>
  <unicode hex="002E"/>
  <outline>
    <contour>
      <point x="120" y="-8" type="curve" smooth="yes"/>
      <point x="165" y="-8"/>
      <point x="217" y="19"/>
      <point x="217" y="97" type="curve" smooth="yes"/>
      <point x="217" y="148"/>
      <point x="184" y="172"/>
      <point x="137" y="172" type="curve" smooth="yes"/>
      <point x="79" y="172"/>
      <point x="40" y="129"/>
      <point x="40" y="66" type="curve" smooth="yes"/>
      <point x="40" y="16"/>
      <point x="72" y="-8"/>
    </contour>
  </outline>
</glyph>
<glyph name="one" format="2">
  <advance width="569"/>
  <unicode hex="0031"/>
  <outline>
    <contour>
      <point x="36" y="0" type="line"/>
      <point x="479" y="0" type="line"/>
      <point x="481" y="10" type="line"/>
      <point x="435" y="10" type="line" smooth="yes"/>
      <point x="379" y="10"/>
      <point x="358" y="13"/>
      <point x="358" y="38" type="curve" smooth="yes"/>
      <point x="358" y="47"/>
      <point x="364" y="70"/>
      <point x="366" y="78" type="curve" smooth="yes"/>
      <point x="502" y="718" type="line"/>
      <point x="415" y="718" type="line"/>
      <point x="334" y="666" type="line" smooth="yes"/>
      <point x="258" y="617"/>
      <point x="211" y="589"/>
      <point x="99" y="589" type="curve"/>
      <point x="99" y="530"/>
      <point x="125" y="500"/>
      <point x="153" y="500" type="curve" smooth="yes"/>
      <point x="196" y="500"/>
      <point x="245" y="530"/>
      <point x="301" y="629" type="curve"/>
      <point x="305" y="629" type="line"/>
      <point x="293" y="588"/>
      <point x="272" y="502"/>
      <point x="263" y="461" type="curve" smooth="yes"/>
      <point x="181" y="70" type="line" smooth="yes"/>
      <point x="172" y="25"/>
      <point x="145" y="10"/>
      <point x="102" y="10" type="curve" smooth="yes"/>
      <point x="38" y="10" type="line"/>
    </contour>
  </outline>
</glyph>
<glyph name="two" format="2">
  <advance width="569"/>
  <unicode hex="0032"/>
  <outline>
    <contour>
      <point x="-25" y="0" type="line"/>
      <point x="478" y="0" type="line"/>
      <point x="534" y="239" type="line"/>
      <point x="524" y="239" type="line"/>
      <point x="507" y="183" type="line" smooth="yes"/>
      <point x="494" y="139"/>
      <point x="476" y="132"/>
      <point x="431" y="132" type="curve" smooth="yes"/>
      <point x="41" y="132" type="line"/>
      <point x="408" y="356" type="line" smooth="yes"/>
      <point x="531" y="431"/>
      <point x="587" y="486"/>
      <point x="587" y="575" type="curve" smooth="yes"/>
      <point x="587" y="658"/>
      <point x="511" y="724"/>
      <point x="356" y="724" type="curve" smooth="yes"/>
      <point x="190" y="724"/>
      <point x="112" y="659"/>
      <point x="112" y="573" type="curve" smooth="yes"/>
      <point x="112" y="504"/>
      <point x="171" y="471"/>
      <point x="255" y="471" type="curve"/>
      <point x="265" y="677"/>
      <point x="305" y="714"/>
      <point x="351" y="714" type="curve" smooth="yes"/>
      <point x="387" y="714"/>
      <point x="401" y="691"/>
      <point x="401" y="639" type="curve" smooth="yes"/>
      <point x="401" y="466"/>
      <point x="337" y="366"/>
      <point x="134" y="214" type="curve" smooth="yes"/>
      <point x="-5" y="110" type="line"/>
    </contour>
  </outline>
</glyph>
<glyph name="five" format="2">
  <advance width="569"/>
  <unicode hex="0035"/>
  <outline>
    <contour>
      <point x="198" y="-10" type="curve" smooth="yes"/>
      <point x="400" y="-10"/>
      <point x="515" y="102"/>
      <point x="515" y="250" type="curve" smooth="yes"/>
      <point x="515" y="372"/>
      <point x="420" y="439"/>
      <point x="290" y="439" type="curve" smooth="yes"/>
      <point x="223" y="439"/>
      <point x="153" y="420"/>
      <point x="110" y="375" type="curve"/>
      <point x="172" y="584" type="line"/>
      <point x="516" y="584" type="line" smooth="yes"/>
      <point x="537" y="584"/>
      <point x="541" y="574"/>
      <point x="541" y="558" type="curve" smooth="yes"/>
      <point x="541" y="550"/>
      <point x="539" y="526"/>
      <point x="538" y="509" type="curve"/>
      <point x="546" y="509" type="line"/>
      <point x="574" y="714" type="line"/>
      <point x="200" y="714" type="line"/>
      <point x="94" y="358" type="line"/>
      <point x="102" y="354" type="line"/>
      <point x="144" y="402"/>
      <point x="192" y="418"/>
      <point x="229" y="418" type="curve" smooth="yes"/>
      <point x="293" y="418"/>
      <point x="332" y="376"/>
      <point x="332" y="264" type="curve" smooth="yes"/>
      <point x="332" y="131"/>
      <point x="288" y="0"/>
      <point x="201" y="0" type="curve" smooth="yes"/>
      <point x="112" y="0"/>
      <point x="99" y="93"/>
      <point x="99" y="213" type="curve"/>
      <point x="26" y="213"/>
      <point x="-7" y="169"/>
      <point x="-7" y="120" type="curve" smooth="yes"/>
      <point x="-7" y="49"/>
      <point x="52" y="-10"/>
    </contour>
  </outline>
</glyph>
<glyph name="seven" format="2">
  <advance width="569"/>
  <unicode hex="0037"/>
  <outline>
    <contour>
      <point x="93" y="0" type="line"/>
      <point x="189" y="0" type="line"/>
      <point x="610" y="633" type="line"/>
      <point x="624" y="714" type="line"/>
      <point x="132" y="714" type="line"/>
      <point x="83" y="483" type="line"/>
      <point x="93" y="483" type="line"/>
      <point x="107" y="533" type="line" smooth="yes"/>
      <point x="119" y="576"/>
      <point x="140" y="584"/>
      <point x="176" y="584" type="curve" smooth="yes"/>
      <point x="565" y="584" type="line"/>
    </contour>
  </outline>
</glyph>
<glyph name="eight" format="2">
  <advance width="569"/>
  <unicode hex="0038"/>
  <outline>
    <contour>
      <point x="259" y="-10" type="curve" smooth="yes"/>
      <point x="451" y="-10"/>
      <point x="547" y="90"/>
      <point x="547" y="206" type="curve" smooth="yes"/>
      <point x="547" y="313"/>
      <point x="456" y="365"/>
      <point x="383" y="405" type="curve"/>
      <point x="517" y="432"/>
      <point x="592" y="477"/>
      <point x="592" y="578" type="curve" smooth="yes"/>
      <point x="592" y="662"/>
      <point x="508" y="724"/>
      <point x="372" y="724" type="curve" smooth="yes"/>
      <point x="177" y="724"/>
      <point x="105" y="635"/>
      <point x="105" y="533" type="curve" smooth="yes"/>
      <point x="105" y="434"/>
      <point x="173" y="383"/>
      <point x="225" y="346" type="curve"/>
      <point x="87" y="326"/>
      <point x="5" y="264"/>
      <point x="5" y="164" type="curve" smooth="yes"/>
      <point x="5" y="61"/>
      <point x="99" y="-10"/>
    </contour>
    <contour>
      <point x="262" y="0" type="curve" smooth="yes"/>
      <point x="217" y="0"/>
      <point x="160" y="37"/>
      <point x="160" y="157" type="curve" smooth="yes"/>
      <point x="160" y="236"/>
      <point x="186" y="297"/>
      <point x="234" y="338" type="curve"/>
      <point x="297" y="299"/>
      <point x="378" y="235"/>
      <point x="378" y="152" type="curve" smooth="yes"/>
      <point x="378" y="43"/>
      <point x="316" y="0"/>
    </contour>
    <contour>
      <point x="373" y="413" type="curve"/>
      <point x="328" y="444"/>
      <point x="268" y="476"/>
      <point x="268" y="578" type="curve" smooth="yes"/>
      <point x="268" y="657"/>
      <point x="297" y="714"/>
      <point x="361" y="714" type="curve" smooth="yes"/>
      <point x="398" y="714"/>
      <point x="437" y="693"/>
      <point x="437" y="601" type="curve" smooth="yes"/>
      <point x="437" y="502"/>
      <point x="405" y="434"/>
    </contour>
  </outline>
</glyph>
<glyph name="nine" format="2">
  <advance width="569"/>
  <unicode hex="0039"/>
  <outline>
    <contour>
      <point x="180" y="-10" type="curve" smooth="yes"/>
      <point x="495" y="-10"/>
      <point x="571" y="286"/>
      <point x="571" y="468" type="curve" smooth="yes"/>
      <point x="571" y="650"/>
      <point x="486" y="724"/>
      <point x="340" y="724" type="curve" smooth="yes"/>
      <point x="138" y="724"/>
      <point x="63" y="572"/>
      <point x="63" y="457" type="curve" smooth="yes"/>
      <point x="63" y="344"/>
      <point x="130" y="275"/>
      <point x="241" y="275" type="curve" smooth="yes"/>
      <point x="311" y="275"/>
      <point x="350" y="305"/>
      <point x="377" y="340" type="curve"/>
      <point x="338" y="151"/>
      <point x="284" y="0"/>
      <point x="182" y="0" type="curve" smooth="yes"/>
      <point x="116" y="0"/>
      <point x="96" y="42"/>
      <point x="96" y="180" type="curve"/>
      <point x="38" y="180"/>
      <point x="4" y="152"/>
      <point x="4" y="103" type="curve" smooth="yes"/>
      <point x="4" y="38"/>
      <point x="62" y="-10"/>
    </contour>
    <contour>
      <point x="295" y="302" type="curve" smooth="yes"/>
      <point x="259" y="301"/>
      <point x="233" y="328"/>
      <point x="233" y="397" type="curve" smooth="yes"/>
      <point x="233" y="536"/>
      <point x="262" y="714"/>
      <point x="341" y="714" type="curve" smooth="yes"/>
      <point x="385" y="714"/>
      <point x="399" y="681"/>
      <point x="399" y="589" type="curve" smooth="yes"/>
      <point x="399" y="502"/>
      <point x="395" y="427"/>
      <point x="381" y="362" type="curve"/>
      <point x="362" y="335"/>
      <point x="336" y="303"/>
    </contour>
  </outline>
</glyph>
<glyph name="colon" format="2">
  <advance width="411"/>
  <unicode hex="003A"/>
  <outline>
    <contour>
      <point x="147" y="-8" type="curve" smooth="yes"/>
      <point x="192" y="-8"/>
      <point x="244" y="19"/>
      <point x="244" y="97" type="curve" smooth="yes"/>
      <point x="244" y="148"/>
      <point x="211" y="172"/>
      <point x="164" y="172" type="curve" smooth="yes"/>
      <point x="106" y="172"/>
      <point x="67" y="129"/>
      <point x="67" y="66" type="curve" smooth="yes"/>
      <point x="67" y="16"/>
      <point x="99" y="-8"/>
    </contour>
    <contour>
      <point x="224" y="361" type="curve" smooth="yes"/>
      <point x="269" y="361"/>
      <point x="321" y="388"/>
      <point x="321" y="466" type="curve" smooth="yes"/>
      <point x="321" y="517"/>
      <point x="288" y="541"/>
      <point x="241" y="541" type="curve" smooth="yes"/>
      <point x="183" y="541"/>
      <point x="144" y="498"/>
      <point x="144" y="435" type="curve" smooth="yes"/>
      <point x="144" y="385"/>
      <point x="176" y="361"/>
    </contour>
  </outline>
</glyph>
<glyph name="semicolon" format="2">
  <advance width="411"/>
  <unicode hex="003B"/>
  <outline>
    <contour>
      <point x="-13" y="-155" type="line"/>
      <point x="149" y="-124"/>
      <point x="231" y="-30"/>
      <point x="231" y="74" type="curve"/>
      <point x="231" y="136"/>
      <point x="194" y="171"/>
      <point x="142" y="171" type="curve" smooth="yes"/>
      <point x="97" y="171"/>
      <point x="61" y="139"/>
      <point x="61" y="93" type="curve" smooth="yes"/>
      <point x="61" y="10"/>
      <point x="132" y="16"/>
      <point x="132" y="-45" type="curve" smooth="yes"/>
      <point x="132" y="-93"/>
      <point x="58" y="-128"/>
      <point x="-10" y="-145" type="curve"/>
    </contour>
    <contour>
      <point x="229" y="361" type="curve" smooth="yes"/>
      <point x="274" y="361"/>
      <point x="326" y="388"/>
      <point x="326" y="466" type="curve" smooth="yes"/>
      <point x="326" y="517"/>
      <point x="293" y="541"/>
      <point x="246" y="541" type="curve" smooth="yes"/>
      <point x="188" y="541"/>
      <point x="149" y="498"/>
      <point x="149" y="435" type="curve" smooth="yes"/>
      <point x="149" y="385"/>
      <point x="181" y="361"/>
    </contour>
  </outline>
</glyph>
<glyph name="less" format="2">
  <advance width="559"/>
  <unicode hex="003C"/>
  <outline>
    <contour>
      <point x="488" y="119" type="line"/>
      <point x="488" y="142" type="line"/>
      <point x="81" y="357" type="line"/>
      <point x="488" y="572" type="line"/>
      <point x="488" y="595" type="line"/>
      <point x="59" y="367" type="line"/>
      <point x="59" y="347" type="line"/>
    </contour>
  </outline>
</glyph>
<glyph name="equal" format="2">
  <advance width="559"/>
  <unicode hex="003D"/>
  <outline>
    <contour>
      <point x="87" y="455" type="line"/>
      <point x="510" y="455" type="line"/>
      <point x="510" y="475" type="line"/>
      <point x="87" y="475" type="line"/>
    </contour>
    <contour>
      <point x="87" y="239" type="line"/>
      <point x="510" y="239" type="line"/>
      <point x="510" y="259" type="line"/>
      <point x="87" y="259" type="line"/>
    </contour>
  </outline>
</glyph>
<glyph name="question" format="2">
  <advance width="561"/>
  <unicode hex="003F"/>
  <outline>
    <contour>
      <point x="235" y="248" type="line"/>
      <point x="245" y="248" type="line"/>
      <point x="316" y="359" type="line"/>
      <point x="483" y="380"/>
      <point x="579" y="452"/>
      <point x="579" y="568" type="curve" smooth="yes"/>
      <point x="579" y="667"/>
      <point x="499" y="724"/>
      <point x="343" y="724" type="curve" smooth="yes"/>
      <point x="190" y="724"/>
      <point x="91" y="669"/>
      <point x="91" y="595" type="curve" smooth="yes"/>
      <point x="91" y="535"/>
      <point x="144" y="506"/>
      <point x="252" y="506" type="curve"/>
      <point x="260" y="679"/>
      <point x="284" y="714"/>
      <point x="332" y="714" type="curve" smooth="yes"/>
      <point x="362" y="714"/>
      <point x="381" y="689"/>
      <point x="381" y="620" type="curve" smooth="yes"/>
      <point x="381" y="473"/>
      <point x="339" y="385"/>
      <point x="191" y="354" type="curve"/>
    </contour>
    <contour>
      <point x="221" y="-8" type="curve" smooth="yes"/>
      <point x="266" y="-8"/>
      <point x="318" y="19"/>
      <point x="318" y="97" type="curve" smooth="yes"/>
      <point x="318" y="148"/>
      <point x="285" y="172"/>
      <point x="238" y="172" type="curve" smooth="yes"/>
      <point x="180" y="172"/>
      <point x="141" y="129"/>
      <point x="141" y="66" type="curve" smooth="yes"/>
      <point x="141" y="16"/>
      <point x="173" y="-8"/>
    </contour>
  </outline>
</glyph>
<glyph name="B" format="2">
  <advance width="696"/>
  <unicode hex="0042"/>
  <anchor x="284" y="0" name="bottom"/>
  <anchor x="436" y="714" name="top"/>
  <anchor x="766" y="714" name="topright"/>
  <outline>
    <contour>
      <point x="-34" y="0" type="line"/>
      <point x="367" y="0" type="line" smooth="yes"/>
      <point x="570" y="0"/>
      <point x="663" y="88"/>
      <point x="663" y="207" type="curve" smooth="yes"/>
      <point x="663" y="307"/>
      <point x="590" y="367"/>
      <point x="442" y="376" type="curve"/>
      <point x="443" y="380" type="line"/>
      <point x="632" y="385"/>
      <point x="705" y="464"/>
      <point x="705" y="559" type="curve" smooth="yes"/>
      <point x="705" y="662"/>
      <point x="621" y="714"/>
      <point x="463" y="714" type="curve" smooth="yes"/>
      <point x="115" y="714" type="line"/>
      <point x="113" y="704" type="line"/>
      <point x="126" y="704" type="line" smooth="yes"/>
      <point x="170" y="704"/>
      <point x="197" y="699"/>
      <point x="197" y="674" type="curve" smooth="yes"/>
      <point x="197" y="670"/>
      <point x="193" y="654"/>
      <point x="190" y="638" type="curve" smooth="yes"/>
      <point x="70" y="61" type="line" smooth="yes"/>
      <point x="61" y="17"/>
      <point x="22" y="10"/>
      <point x="-18" y="10" type="curve" smooth="yes"/>
      <point x="-31" y="10" type="line"/>
    </contour>
    <contour>
      <point x="305" y="10" type="curve" smooth="yes"/>
      <point x="257" y="10" type="line"/>
      <point x="335" y="373" type="line"/>
      <point x="365" y="373" type="line" smooth="yes"/>
      <point x="429" y="373"/>
      <point x="467" y="336"/>
      <point x="467" y="249" type="curve" smooth="yes"/>
      <point x="467" y="135"/>
      <point x="421" y="10"/>
    </contour>
    <contour>
      <point x="362" y="383" type="curve" smooth="yes"/>
      <point x="337" y="383" type="line"/>
      <point x="402" y="704" type="line"/>
      <point x="423" y="704" type="line" smooth="yes"/>
      <point x="483" y="704"/>
      <point x="509" y="664"/>
      <point x="509" y="603" type="curve" smooth="yes"/>
      <point x="509" y="491"/>
      <point x="465" y="383"/>
    </contour>
  </outline>
</glyph>
<glyph name="C" format="2">
  <advance width="698"/>
  <unicode hex="0043"/>
  <anchor x="367" y="0" name="bottom"/>
  <anchor x="518" y="714" name="top"/>
  <anchor x="768" y="714" name="topright"/>
  <outline>
    <contour>
      <point x="371" y="-10" type="curve" smooth="yes"/>
      <point x="543" y="-10"/>
      <point x="640" y="67"/>
      <point x="640" y="144" type="curve" smooth="yes"/>
      <point x="640" y="159"/>
      <point x="626" y="179"/>
      <point x="613" y="179" type="curve"/>
      <point x="575" y="76"/>
      <point x="542" y="5"/>
      <point x="431" y="5" type="curve" smooth="yes"/>
      <point x="327" y="5"/>
      <point x="274" y="68"/>
      <point x="274" y="276" type="curve" smooth="yes"/>
      <point x="274" y="466"/>
      <point x="354" y="720"/>
      <point x="491" y="720" type="curve" smooth="yes"/>
      <point x="555" y="720"/>
      <point x="565" y="668"/>
      <point x="565" y="507" type="curve"/>
      <point x="663" y="507"/>
      <point x="738" y="541"/>
      <point x="738" y="615" type="curve" smooth="yes"/>
      <point x="738" y="682"/>
      <point x="674" y="731"/>
      <point x="530" y="731" type="curve" smooth="yes"/>
      <point x="191" y="731"/>
      <point x="66" y="491"/>
      <point x="66" y="282" type="curve" smooth="yes"/>
      <point x="66" y="89"/>
      <point x="172" y="-10"/>
    </contour>
  </outline>
</glyph>
<glyph name="D" format="2">
  <advance width="808"/>
  <unicode hex="0044"/>
  <anchor x="333" y="0" name="bottom"/>
  <anchor x="428" y="357" name="center"/>
  <anchor x="485" y="714" name="top"/>
  <anchor x="865" y="714" name="topright"/>
  <outline>
    <contour>
      <point x="-36" y="0" type="line"/>
      <point x="323" y="0" type="line" smooth="yes"/>
      <point x="671" y="0"/>
      <point x="781" y="234"/>
      <point x="781" y="436" type="curve" smooth="yes"/>
      <point x="781" y="619"/>
      <point x="669" y="714"/>
      <point x="464" y="714" type="curve" smooth="yes"/>
      <point x="115" y="714" type="line"/>
      <point x="113" y="704" type="line"/>
      <point x="126" y="704" type="line" smooth="yes"/>
      <point x="172" y="704"/>
      <point x="197" y="698"/>
      <point x="197" y="674" type="curve" smooth="yes"/>
      <point x="197" y="666"/>
      <point x="192" y="650"/>
      <point x="188" y="629" type="curve" smooth="yes"/>
      <point x="69" y="61" type="line" smooth="yes"/>
      <point x="60" y="17"/>
      <point x="21" y="10"/>
      <point x="-18" y="10" type="curve" smooth="yes"/>
      <point x="-33" y="10" type="line"/>
    </contour>
    <contour>
      <point x="273" y="10" type="curve" smooth="yes"/>
      <point x="257" y="10" type="line"/>
      <point x="401" y="704" type="line"/>
      <point x="418" y="704" type="line" smooth="yes"/>
      <point x="526" y="704"/>
      <point x="570" y="647"/>
      <point x="570" y="500" type="curve" smooth="yes"/>
      <point x="570" y="302"/>
      <point x="499" y="10"/>
    </contour>
  </outline>
</glyph>
<glyph name="E" format="2">
  <advance width="652"/>
  <unicode hex="0045"/>
  <anchor x="265" y="0" name="bottom"/>
  <anchor x="437" y="714" name="top"/>
  <anchor x="727" y="714" name="topright"/>
  <outline>
    <contour>
      <point x="-34" y="0" type="line"/>
      <point x="568" y="0" type="line"/>
      <point x="616" y="194" type="line"/>
      <point x="606" y="194" type="line"/>
      <point x="588" y="142" type="line" smooth="yes"/>
      <point x="573" y="98"/>
      <point x="523" y="10"/>
      <point x="398" y="10" type="curve" smooth="yes"/>
      <point x="256" y="10" type="line"/>
      <point x="334" y="372" type="line"/>
      <point x="551" y="372" type="line"/>
      <point x="552" y="382" type="line"/>
      <point x="336" y="382" type="line"/>
      <point x="404" y="704" type="line"/>
      <point x="538" y="704" type="line" smooth="yes"/>
      <point x="606" y="704"/>
      <point x="648" y="653"/>
      <point x="648" y="591" type="curve" smooth="yes"/>
      <point x="648" y="570"/>
      <point x="646" y="555"/>
      <point x="640" y="520" type="curve"/>
      <point x="650" y="520" type="line"/>
      <point x="687" y="714" type="line"/>
      <point x="115" y="714" type="line"/>
      <point x="113" y="704" type="line"/>
      <point x="126" y="704" type="line" smooth="yes"/>
      <point x="169" y="704"/>
      <point x="198" y="698"/>
      <point x="198" y="675" type="curve" smooth="yes"/>
      <point x="198" y="667"/>
      <point x="195" y="656"/>
      <point x="193" y="645" type="curve" smooth="yes"/>
      <point x="70" y="65" type="line" smooth="yes"/>
      <point x="60" y="19"/>
      <point x="22" y="10"/>
      <point x="-19" y="10" type="curve" smooth="yes"/>
      <point x="-32" y="10" type="line"/>
    </contour>
  </outline>
</glyph>
<glyph name="F" format="2">
  <advance width="628"/>
  <unicode hex="0046"/>
  <anchor x="154" y="0" name="bottom"/>
  <anchor x="408" y="714" name="top"/>
  <anchor x="710" y="714" name="topright"/>
  <outline>
    <contour>
      <point x="-34" y="0" type="line"/>
      <point x="364" y="0" type="line"/>
      <point x="367" y="10" type="line"/>
      <point x="353" y="10" type="line" smooth="yes"/>
      <point x="291" y="10"/>
      <point x="266" y="20"/>
      <point x="266" y="50" type="curve" smooth="yes"/>
      <point x="266" y="56"/>
      <point x="267" y="62"/>
      <point x="269" y="70" type="curve" smooth="yes"/>
      <point x="330" y="346" type="line"/>
      <point x="565" y="346" type="line"/>
      <point x="567" y="356" type="line"/>
      <point x="332" y="356" type="line"/>
      <point x="405" y="704" type="line"/>
      <point x="542" y="704" type="line" smooth="yes"/>
      <point x="618" y="704"/>
      <point x="663" y="656"/>
      <point x="660" y="578" type="curve" smooth="yes"/>
      <point x="660" y="573"/>
      <point x="658" y="550"/>
      <point x="652" y="520" type="curve"/>
      <point x="662" y="520" type="line"/>
      <point x="699" y="714" type="line"/>
      <point x="115" y="714" type="line"/>
      <point x="113" y="704" type="line"/>
      <point x="126" y="704" type="line" smooth="yes"/>
      <point x="172" y="704"/>
      <point x="191" y="691"/>
      <point x="191" y="654" type="curve" smooth="yes"/>
      <point x="191" y="642"/>
      <point x="189" y="627"/>
      <point x="185" y="609" type="curve" smooth="yes"/>
      <point x="70" y="65" type="line"/>
      <point x="63" y="23"/>
      <point x="41" y="10"/>
      <point x="-20" y="10" type="curve" smooth="yes"/>
      <point x="-33" y="10" type="line"/>
    </contour>
  </outline>
</glyph>
<glyph name="G" format="2">
  <advance width="841"/>
  <unicode hex="0047"/>
  <anchor x="360" y="0" name="bottom"/>
  <anchor x="522" y="714" name="top"/>
  <anchor x="916" y="714" name="topright"/>
  <outline>
    <contour>
      <point x="382" y="-10" type="curve" smooth="yes"/>
      <point x="469" y="-10"/>
      <point x="562" y="5"/>
      <point x="651" y="36" type="curve"/>
      <point x="704" y="286" type="line" smooth="yes"/>
      <point x="714" y="332"/>
      <point x="753" y="339"/>
      <point x="800" y="339" type="curve" smooth="yes"/>
      <point x="805" y="339" type="line"/>
      <point x="806" y="349" type="line"/>
      <point x="424" y="349" type="line"/>
      <point x="422" y="339" type="line"/>
      <point x="438" y="339" type="line" smooth="yes"/>
      <point x="483" y="339"/>
      <point x="510" y="334"/>
      <point x="510" y="309" type="curve" smooth="yes"/>
      <point x="510" y="305"/>
      <point x="508" y="292"/>
      <point x="503" y="271" type="curve" smooth="yes"/>
      <point x="445" y="8" type="line"/>
      <point x="425" y="3"/>
      <point x="400" y="1"/>
      <point x="391" y="1" type="curve" smooth="yes"/>
      <point x="306" y="1"/>
      <point x="268" y="65"/>
      <point x="268" y="220" type="curve" smooth="yes"/>
      <point x="268" y="397"/>
      <point x="334" y="714"/>
      <point x="519" y="714" type="curve" smooth="yes"/>
      <point x="601" y="714"/>
      <point x="615" y="668"/>
      <point x="615" y="494" type="curve"/>
      <point x="712" y="494"/>
      <point x="789" y="517"/>
      <point x="789" y="597" type="curve" smooth="yes"/>
      <point x="789" y="658"/>
      <point x="743" y="724"/>
      <point x="515" y="724" type="curve" smooth="yes"/>
      <point x="184" y="724"/>
      <point x="63" y="476"/>
      <point x="63" y="271" type="curve" smooth="yes"/>
      <point x="63" y="93"/>
      <point x="172" y="-10"/>
    </contour>
  </outline>
</glyph>
<glyph name="H" format="2">
  <advance width="838"/>
  <unicode hex="0048"/>
  <anchor x="353" y="0" name="bottom"/>
  <anchor x="448" y="357" name="center"/>
  <anchor x="505" y="714" name="top"/>
  <anchor x="904" y="714" name="topright"/>
  <outline>
    <contour>
      <point x="-34" y="0" type="line"/>
      <point x="339" y="0" type="line"/>
      <point x="341" y="10" type="line"/>
      <point x="328" y="10" type="line" smooth="yes"/>
      <point x="274" y="10"/>
      <point x="264" y="20"/>
      <point x="264" y="40" type="curve" smooth="yes"/>
      <point x="264" y="44"/>
      <point x="266" y="53"/>
      <point x="269" y="67" type="curve" smooth="yes"/>
      <point x="335" y="368" type="line"/>
      <point x="549" y="368" type="line"/>
      <point x="483" y="63" type="line" smooth="yes"/>
      <point x="473" y="17"/>
      <point x="438" y="10"/>
      <point x="402" y="10" type="curve" smooth="yes"/>
      <point x="389" y="10" type="line"/>
      <point x="386" y="0" type="line"/>
      <point x="761" y="0" type="line"/>
      <point x="763" y="10" type="line"/>
      <point x="750" y="10" type="line" smooth="yes"/>
      <point x="683" y="10"/>
      <point x="678" y="27"/>
      <point x="678" y="40" type="curve" smooth="yes"/>
      <point x="678" y="44"/>
      <point x="679" y="53"/>
      <point x="683" y="70" type="curve" smooth="yes"/>
      <point x="805" y="651" type="line" smooth="yes"/>
      <point x="815" y="697"/>
      <point x="855" y="704"/>
      <point x="897" y="704" type="curve" smooth="yes"/>
      <point x="910" y="704" type="line"/>
      <point x="912" y="714" type="line"/>
      <point x="537" y="714" type="line"/>
      <point x="535" y="704" type="line"/>
      <point x="548" y="704" type="line" smooth="yes"/>
      <point x="607" y="704"/>
      <point x="612" y="689"/>
      <point x="612" y="676" type="curve" smooth="yes"/>
      <point x="612" y="671"/>
      <point x="610" y="661"/>
      <point x="606" y="643" type="curve" smooth="yes"/>
      <point x="549" y="378" type="line"/>
      <point x="336" y="378" type="line"/>
      <point x="391" y="651" type="line" smooth="yes"/>
      <point x="400" y="697"/>
      <point x="436" y="704"/>
      <point x="475" y="704" type="curve" smooth="yes"/>
      <point x="488" y="704" type="line"/>
      <point x="490" y="714" type="line"/>
      <point x="115" y="714" type="line"/>
      <point x="113" y="704" type="line"/>
      <point x="127" y="704" type="line" smooth="yes"/>
      <point x="196" y="704"/>
      <point x="198" y="691"/>
      <point x="198" y="675" type="curve" smooth="yes"/>
      <point x="198" y="670"/>
      <point x="194" y="656"/>
      <point x="189" y="631" type="curve" smooth="yes"/>
      <point x="69" y="61" type="line" smooth="yes"/>
      <point x="60" y="17"/>
      <point x="21" y="10"/>
      <point x="-19" y="10" type="curve" smooth="yes"/>
      <point x="-32" y="10" type="line"/>
    </contour>
  </outline>
</glyph>
<glyph name="I" format="2">
  <advance width="428"/>
  <unicode hex="0049"/>
  <anchor x="148" y="0" name="bottom"/>
  <anchor x="300" y="714" name="top"/>
  <anchor x="493" y="714" name="topright"/>
  <outline>
    <contour>
      <point x="-33" y="0" type="line"/>
      <point x="350" y="0" type="line"/>
      <point x="353" y="10" type="line"/>
      <point x="340" y="10" type="line" smooth="yes"/>
      <point x="298" y="10"/>
      <point x="266" y="14"/>
      <point x="266" y="40" type="curve" smooth="yes"/>
      <point x="266" y="52"/>
      <point x="271" y="67"/>
      <point x="276" y="92" type="curve" smooth="yes"/>
      <point x="393" y="651" type="line" smooth="yes"/>
      <point x="403" y="697"/>
      <point x="441" y="704"/>
      <point x="485" y="704" type="curve" smooth="yes"/>
      <point x="498" y="704" type="line"/>
      <point x="501" y="714" type="line"/>
      <point x="116" y="714" type="line"/>
      <point x="113" y="704" type="line"/>
      <point x="126" y="704" type="line" smooth="yes"/>
      <point x="169" y="704"/>
      <point x="198" y="700"/>
      <point x="198" y="674" type="curve" smooth="yes"/>
      <point x="198" y="670"/>
      <point x="198" y="660"/>
      <point x="193" y="636" type="curve" smooth="yes"/>
      <point x="71" y="61" type="line" smooth="yes"/>
      <point x="62" y="17"/>
      <point x="23" y="10"/>
      <point x="-17" y="10" type="curve" smooth="yes"/>
      <point x="-30" y="10" type="line"/>
    </contour>
  </outline>
</glyph>
<glyph name="J" format="2">
  <advance width="433"/>
  <unicode hex="004A"/>
  <anchor x="-68" y="-240" name="bottom"/>
  <anchor x="312" y="714" name="top"/>
  <anchor x="508" y="714" name="topright"/>
  <outline>
    <contour>
      <point x="-68" y="-240" type="curve" smooth="yes"/>
      <point x="85" y="-240"/>
      <point x="231" y="-182"/>
      <point x="269" y="1" type="curve" smooth="yes"/>
      <point x="403" y="651" type="line" smooth="yes"/>
      <point x="412" y="697"/>
      <point x="453" y="704"/>
      <point x="497" y="704" type="curve" smooth="yes"/>
      <point x="510" y="704" type="line"/>
      <point x="513" y="714" type="line"/>
      <point x="128" y="714" type="line"/>
      <point x="125" y="704" type="line"/>
      <point x="138" y="704" type="line" smooth="yes"/>
      <point x="180" y="704"/>
      <point x="210" y="700"/>
      <point x="210" y="674" type="curve" smooth="yes"/>
      <point x="210" y="670"/>
      <point x="207" y="661"/>
      <point x="206" y="655" type="curve" smooth="yes"/>
      <point x="58" y="-51" type="line" smooth="yes"/>
      <point x="28" y="-195"/>
      <point x="-23" y="-228"/>
      <point x="-92" y="-228" type="curve" smooth="yes"/>
      <point x="-112" y="-228"/>
      <point x="-139" y="-224"/>
      <point x="-157" y="-219" type="curve"/>
      <point x="-160" y="-229" type="line"/>
      <point x="-133" y="-236"/>
      <point x="-108" y="-240"/>
    </contour>
  </outline>
</glyph>
<glyph name="L" format="2">
  <advance width="663"/>
  <unicode hex="004C"/>
  <anchor x="272" y="0" name="bottom"/>
  <anchor x="367" y="357" name="center"/>
  <anchor x="319" y="714" name="top"/>
  <anchor x="667" y="714" name="topright"/>
  <outline>
    <contour>
      <point x="-35" y="0" type="line"/>
      <point x="588" y="0" type="line"/>
      <point x="645" y="229" type="line"/>
      <point x="635" y="229" type="line"/>
      <point x="611" y="159" type="line" smooth="yes"/>
      <point x="583" y="78"/>
      <point x="528" y="10"/>
      <point x="417" y="10" type="curve" smooth="yes"/>
      <point x="258" y="10" type="line"/>
      <point x="392" y="656" type="line" smooth="yes"/>
      <point x="400" y="696"/>
      <point x="441" y="704"/>
      <point x="485" y="704" type="curve" smooth="yes"/>
      <point x="498" y="704" type="line"/>
      <point x="499" y="714" type="line"/>
      <point x="115" y="714" type="line"/>
      <point x="113" y="704" type="line"/>
      <point x="126" y="704" type="line" smooth="yes"/>
      <point x="168" y="704"/>
      <point x="198" y="700"/>
      <point x="198" y="674" type="curve" smooth="yes"/>
      <point x="198" y="665"/>
      <point x="195" y="653"/>
      <point x="191" y="636" type="curve" smooth="yes"/>
      <point x="70" y="61" type="line" smooth="yes"/>
      <point x="61" y="17"/>
      <point x="22" y="10"/>
      <point x="-9" y="10" type="curve" smooth="yes"/>
      <point x="-32" y="10" type="line"/>
    </contour>
  </outline>
</glyph>
<glyph name="M" format="2">
  <advance width="964"/>
  <unicode hex="004D"/>
  <anchor x="414" y="0" name="bottom"/>
  <anchor x="576" y="714" name="top"/>
  <anchor x="1027" y="714" name="topright"/>
  <outline>
    <contour>
      <point x="-35" y="0" type="line"/>
      <point x="218" y="0" type="line"/>
      <point x="220" y="10" type="line"/>
      <point x="214" y="10" type="line" smooth="yes"/>
      <point x="144" y="10"/>
      <point x="114" y="12"/>
      <point x="114" y="48" type="curve" smooth="yes"/>
      <point x="114" y="55"/>
      <point x="115" y="63"/>
      <point x="117" y="73" type="curve" smooth="yes"/>
      <point x="248" y="685" type="line"/>
      <point x="331" y="0" type="line"/>
      <point x="399" y="0" type="line"/>
      <point x="742" y="689" type="line"/>
      <point x="614" y="70" type="line" smooth="yes"/>
      <point x="605" y="26"/>
      <point x="580" y="10"/>
      <point x="513" y="10" type="curve" smooth="yes"/>
      <point x="493" y="10" type="line"/>
      <point x="490" y="0" type="line"/>
      <point x="886" y="0" type="line"/>
      <point x="889" y="10" type="line"/>
      <point x="876" y="10" type="line" smooth="yes"/>
      <point x="834" y="10"/>
      <point x="804" y="14"/>
      <point x="804" y="40" type="curve" smooth="yes"/>
      <point x="804" y="44"/>
      <point x="806" y="53"/>
      <point x="809" y="69" type="curve" smooth="yes"/>
      <point x="930" y="651" type="line" smooth="yes"/>
      <point x="940" y="697"/>
      <point x="980" y="704"/>
      <point x="1022" y="704" type="curve" smooth="yes"/>
      <point x="1035" y="704" type="line"/>
      <point x="1037" y="714" type="line"/>
      <point x="742" y="714" type="line"/>
      <point x="492" y="211" type="line"/>
      <point x="438" y="714" type="line"/>
      <point x="115" y="714" type="line"/>
      <point x="113" y="704" type="line"/>
      <point x="163" y="704" type="line" smooth="yes"/>
      <point x="205" y="704"/>
      <point x="234" y="700"/>
      <point x="234" y="674" type="curve" smooth="yes"/>
      <point x="234" y="667"/>
      <point x="232" y="661"/>
      <point x="227" y="636" type="curve" smooth="yes"/>
      <point x="106" y="65" type="line" smooth="yes"/>
      <point x="96" y="19"/>
      <point x="59" y="10"/>
      <point x="18" y="10" type="curve" smooth="yes"/>
      <point x="-34" y="10" type="line"/>
    </contour>
  </outline>
</glyph>
<glyph name="O" format="2">
  <advance width="829"/>
  <unicode hex="004F"/>
  <anchor x="380" y="0" name="bottom"/>
  <anchor x="450" y="357" name="center"/>
  <anchor x="504" y="714" name="top"/>
  <anchor x="901" y="714" name="topright"/>
  <outline>
    <contour>
      <point x="379" y="-11" type="curve" smooth="yes"/>
      <point x="714" y="-11"/>
      <point x="802" y="266"/>
      <point x="802" y="438" type="curve" smooth="yes"/>
      <point x="802" y="641"/>
      <point x="677" y="725"/>
      <point x="496" y="725" type="curve" smooth="yes"/>
      <point x="164" y="725"/>
      <point x="68" y="461"/>
      <point x="68" y="300" type="curve" smooth="yes"/>
      <point x="68" y="85"/>
      <point x="184" y="-11"/>
    </contour>
    <contour>
      <point x="388" y="-1" type="curve" smooth="yes"/>
      <point x="305" y="-1"/>
      <point x="271" y="64"/>
      <point x="271" y="224" type="curve" smooth="yes"/>
      <point x="271" y="384"/>
      <point x="332" y="715"/>
      <point x="496" y="715" type="curve" smooth="yes"/>
      <point x="577" y="715"/>
      <point x="602" y="663"/>
      <point x="602" y="497" type="curve" smooth="yes"/>
      <point x="602" y="297"/>
      <point x="534" y="-1"/>
    </contour>
  </outline>
</glyph>
<glyph name="P" format="2">
  <advance width="682"/>
  <unicode hex="0050"/>
  <anchor x="153" y="0" name="bottom"/>
  <anchor x="433" y="714" name="top"/>
  <anchor x="760" y="714" name="topright"/>
  <outline>
    <contour>
      <point x="-35" y="0" type="line"/>
      <point x="368" y="0" type="line"/>
      <point x="370" y="10" type="line"/>
      <point x="337" y="10" type="line" smooth="yes"/>
      <point x="295" y="10"/>
      <point x="263" y="14"/>
      <point x="263" y="40" type="curve" smooth="yes"/>
      <point x="263" y="47"/>
      <point x="266" y="58"/>
      <point x="270" y="76" type="curve" smooth="yes"/>
      <point x="314" y="269" type="line"/>
      <point x="371" y="269" type="line" smooth="yes"/>
      <point x="649" y="269"/>
      <point x="698" y="415"/>
      <point x="698" y="518" type="curve" smooth="yes"/>
      <point x="698" y="646"/>
      <point x="604" y="714"/>
      <point x="423" y="714" type="curve" smooth="yes"/>
      <point x="115" y="714" type="line"/>
      <point x="113" y="704" type="line"/>
      <point x="126" y="704" type="line" smooth="yes"/>
      <point x="168" y="704"/>
      <point x="197" y="700"/>
      <point x="197" y="674" type="curve" smooth="yes"/>
      <point x="197" y="667"/>
      <point x="196" y="658"/>
      <point x="191" y="636" type="curve" smooth="yes"/>
      <point x="68" y="61" type="line" smooth="yes"/>
      <point x="59" y="17"/>
      <point x="20" y="10"/>
      <point x="-21" y="10" type="curve" smooth="yes"/>
      <point x="-34" y="10" type="line"/>
    </contour>
    <contour>
      <point x="316" y="279" type="line"/>
      <point x="410" y="704" type="line"/>
      <point x="424" y="704" type="line" smooth="yes"/>
      <point x="469" y="704"/>
      <point x="493" y="672"/>
      <point x="493" y="584" type="curve" smooth="yes"/>
      <point x="493" y="451"/>
      <point x="448" y="279"/>
      <point x="345" y="279" type="curve" smooth="yes"/>
    </contour>
  </outline>
</glyph>
<glyph name="Q" format="2">
  <advance width="821"/>
  <unicode hex="0051"/>
  <anchor x="299" y="-240" name="bottom"/>
  <anchor x="432" y="357" name="center"/>
  <anchor x="502" y="714" name="top"/>
  <anchor x="892" y="714" name="topright"/>
  <outline>
    <contour>
      <point x="497" y="-240" type="curve" smooth="yes"/>
      <point x="531" y="-240"/>
      <point x="560" y="-238"/>
      <point x="602" y="-222" type="curve"/>
      <point x="600" y="-212" type="line"/>
      <point x="594" y="-213"/>
      <point x="589" y="-214"/>
      <point x="583" y="-214" type="curve" smooth="yes"/>
      <point x="545" y="-214"/>
      <point x="501" y="-199"/>
      <point x="483" y="2" type="curve"/>
      <point x="723" y="59"/>
      <point x="802" y="288"/>
      <point x="802" y="438" type="curve" smooth="yes"/>
      <point x="802" y="641"/>
      <point x="677" y="725"/>
      <point x="513" y="725" type="curve" smooth="yes"/>
      <point x="180" y="725"/>
      <point x="68" y="478"/>
      <point x="68" y="300" type="curve" smooth="yes"/>
      <point x="68" y="125"/>
      <point x="145" y="29"/>
      <point x="271" y="-1" type="curve"/>
      <point x="282" y="-196"/>
      <point x="396" y="-240"/>
    </contour>
    <contour>
      <point x="383" y="-1" type="curve" smooth="yes"/>
      <point x="311" y="-1"/>
      <point x="271" y="75"/>
      <point x="271" y="235" type="curve" smooth="yes"/>
      <point x="271" y="526"/>
      <point x="362" y="715"/>
      <point x="503" y="715" type="curve" smooth="yes"/>
      <point x="573" y="715"/>
      <point x="602" y="656"/>
      <point x="602" y="490" type="curve" smooth="yes"/>
      <point x="602" y="230"/>
      <point x="530" y="-1"/>
    </contour>
  </outline>
</glyph>
<glyph name="R" format="2">
  <advance width="768"/>
  <unicode hex="0052"/>
  <anchor x="304" y="0" name="bottom"/>
  <anchor x="436" y="714" name="top"/>
  <anchor x="805" y="714" name="topright"/>
  <outline>
    <contour>
      <point x="-34" y="0" type="line"/>
      <point x="369" y="0" type="line"/>
      <point x="372" y="10" type="line"/>
      <point x="339" y="10" type="line" smooth="yes"/>
      <point x="297" y="10"/>
      <point x="265" y="14"/>
      <point x="265" y="40" type="curve" smooth="yes"/>
      <point x="265" y="47"/>
      <point x="268" y="59"/>
      <point x="274" y="89" type="curve" smooth="yes"/>
      <point x="327" y="341" type="line"/>
      <point x="360" y="341" type="line"/>
      <point x="414" y="139" type="line" smooth="yes"/>
      <point x="447" y="16"/>
      <point x="525" y="0"/>
      <point x="675" y="0" type="curve" smooth="yes"/>
      <point x="711" y="0" type="line"/>
      <point x="713" y="10" type="line"/>
      <point x="707" y="10" type="line" smooth="yes"/>
      <point x="670" y="10"/>
      <point x="663" y="34"/>
      <point x="625" y="129" type="curve" smooth="yes"/>
      <point x="538" y="345" type="line"/>
      <point x="618" y="364"/>
      <point x="725" y="416"/>
      <point x="725" y="549" type="curve" smooth="yes"/>
      <point x="725" y="660"/>
      <point x="644" y="714"/>
      <point x="480" y="714" type="curve" smooth="yes"/>
      <point x="116" y="714" type="line"/>
      <point x="113" y="704" type="line"/>
      <point x="126" y="704" type="line" smooth="yes"/>
      <point x="168" y="704"/>
      <point x="198" y="700"/>
      <point x="198" y="674" type="curve" smooth="yes"/>
      <point x="198" y="670"/>
      <point x="196" y="661"/>
      <point x="191" y="636" type="curve" smooth="yes"/>
      <point x="71" y="65" type="line" smooth="yes"/>
      <point x="61" y="19"/>
      <point x="22" y="10"/>
      <point x="-19" y="10" type="curve" smooth="yes"/>
      <point x="-32" y="10" type="line"/>
    </contour>
    <contour>
      <point x="327" y="351" type="line"/>
      <point x="406" y="704" type="line"/>
      <point x="433" y="704" type="line" smooth="yes"/>
      <point x="484" y="704"/>
      <point x="508" y="665"/>
      <point x="508" y="556" type="curve" smooth="yes"/>
      <point x="508" y="417"/>
      <point x="452" y="351"/>
      <point x="357" y="351" type="curve" smooth="yes"/>
    </contour>
  </outline>
</glyph>
<glyph name="S" format="2">
  <advance width="617"/>
  <unicode hex="0053"/>
  <anchor x="252" y="0" name="bottom"/>
  <anchor x="404" y="714" name="top"/>
  <anchor x="692" y="714" name="topright"/>
  <outline>
    <contour>
      <point x="284" y="-10" type="curve" smooth="yes"/>
      <point x="456" y="-10"/>
      <point x="569" y="75"/>
      <point x="569" y="237" type="curve" smooth="yes"/>
      <point x="569" y="324"/>
      <point x="523" y="382"/>
      <point x="421" y="433" type="curve" smooth="yes"/>
      <point x="328" y="483"/>
      <point x="266" y="506"/>
      <point x="266" y="596" type="curve" smooth="yes"/>
      <point x="266" y="666"/>
      <point x="311" y="714"/>
      <point x="386" y="714" type="curve" smooth="yes"/>
      <point x="464" y="714"/>
      <point x="473" y="652"/>
      <point x="473" y="509" type="curve"/>
      <point x="583" y="509"/>
      <point x="626" y="545"/>
      <point x="626" y="609" type="curve" smooth="yes"/>
      <point x="626" y="671"/>
      <point x="554" y="724"/>
      <point x="388" y="724" type="curve" smooth="yes"/>
      <point x="229" y="724"/>
      <point x="111" y="636"/>
      <point x="111" y="495" type="curve" smooth="yes"/>
      <point x="111" y="403"/>
      <point x="163" y="344"/>
      <point x="281" y="278" type="curve" smooth="yes"/>
      <point x="376" y="225"/>
      <point x="422" y="196"/>
      <point x="422" y="110" type="curve" smooth="yes"/>
      <point x="422" y="35"/>
      <point x="375" y="0"/>
      <point x="314" y="0" type="curve" smooth="yes"/>
      <point x="228" y="0"/>
      <point x="178" y="67"/>
      <point x="178" y="245" type="curve"/>
      <point x="81" y="245"/>
      <point x="19" y="210"/>
      <point x="19" y="138" type="curve" smooth="yes"/>
      <point x="19" y="51"/>
      <point x="105" y="-10"/>
    </contour>
  </outline>
</glyph>
<glyph name="T" format="2">
  <advance width="682"/>
  <unicode hex="0054"/>
  <anchor x="275" y="0" name="bottom"/>
  <anchor x="370" y="357" name="center"/>
  <anchor x="427" y="714" name="top"/>
  <anchor x="748" y="714" name="topright"/>
  <outline>
    <contour>
      <point x="104" y="0" type="line"/>
      <point x="472" y="0" type="line"/>
      <point x="474" y="10" type="line"/>
      <point x="468" y="10" type="line" smooth="yes"/>
      <point x="426" y="10"/>
      <point x="394" y="14"/>
      <point x="394" y="40" type="curve" smooth="yes"/>
      <point x="394" y="46"/>
      <point x="396" y="55"/>
      <point x="401" y="77" type="curve" smooth="yes"/>
      <point x="535" y="704" type="line"/>
      <point x="613" y="704" type="line" smooth="yes"/>
      <point x="685" y="704"/>
      <point x="728" y="668"/>
      <point x="728" y="591" type="curve" smooth="yes"/>
      <point x="728" y="570"/>
      <point x="721" y="514"/>
      <point x="720" y="506" type="curve"/>
      <point x="730" y="506" type="line"/>
      <point x="767" y="714" type="line"/>
      <point x="102" y="714" type="line"/>
      <point x="53" y="506" type="line"/>
      <point x="63" y="506" type="line"/>
      <point x="85" y="573" type="line" smooth="yes"/>
      <point x="112" y="655"/>
      <point x="191" y="704"/>
      <point x="264" y="704" type="curve" smooth="yes"/>
      <point x="333" y="704" type="line"/>
      <point x="200" y="65" type="line" smooth="yes"/>
      <point x="190" y="19"/>
      <point x="151" y="10"/>
      <point x="111" y="10" type="curve" smooth="yes"/>
      <point x="105" y="10" type="line"/>
    </contour>
  </outline>
</glyph>
<glyph name="U" format="2">
  <advance width="760"/>
  <unicode hex="0055"/>
  <anchor x="323" y="0" name="bottom"/>
  <anchor x="515" y="714" name="top"/>
  <anchor x="895" y="714" name="topright"/>
  <outline>
    <contour>
      <point x="354" y="-10" type="curve" smooth="yes"/>
      <point x="530" y="-10"/>
      <point x="613" y="63"/>
      <point x="648" y="232" type="curve" smooth="yes"/>
      <point x="735" y="651" type="line" smooth="yes"/>
      <point x="745" y="697"/>
      <point x="783" y="704"/>
      <point x="826" y="704" type="curve" smooth="yes"/>
      <point x="852" y="704" type="line"/>
      <point x="855" y="714" type="line"/>
      <point x="633" y="714" type="line"/>
      <point x="631" y="704" type="line"/>
      <point x="656" y="704" type="line" smooth="yes"/>
      <point x="697" y="704"/>
      <point x="727" y="700"/>
      <point x="727" y="674" type="curve" smooth="yes"/>
      <point x="727" y="670"/>
      <point x="726" y="656"/>
      <point x="723" y="643" type="curve" smooth="yes"/>
      <point x="635" y="226" type="line" smooth="yes"/>
      <point x="603" y="75"/>
      <point x="520" y="9"/>
      <point x="406" y="9" type="curve" smooth="yes"/>
      <point x="322" y="9"/>
      <point x="293" y="56"/>
      <point x="294" y="133" type="curve" smooth="yes"/>
      <point x="294" y="167"/>
      <point x="300" y="207"/>
      <point x="310" y="252" type="curve" smooth="yes"/>
      <point x="398" y="654" type="line" smooth="yes"/>
      <point x="407" y="697"/>
      <point x="447" y="704"/>
      <point x="491" y="704" type="curve" smooth="yes"/>
      <point x="504" y="704" type="line"/>
      <point x="506" y="714" type="line"/>
      <point x="119" y="714" type="line"/>
      <point x="118" y="704" type="line"/>
      <point x="131" y="704" type="line" smooth="yes"/>
      <point x="173" y="704"/>
      <point x="201" y="700"/>
      <point x="201" y="674" type="curve" smooth="yes"/>
      <point x="201" y="664"/>
      <point x="195" y="638"/>
      <point x="190" y="613" type="curve" smooth="yes"/>
      <point x="112" y="252" type="line" smooth="yes"/>
      <point x="107" y="229"/>
      <point x="101" y="184"/>
      <point x="101" y="163" type="curve" smooth="yes"/>
      <point x="101" y="53"/>
      <point x="191" y="-10"/>
    </contour>
  </outline>
</glyph>
<glyph name="V" format="2">
  <advance width="722"/>
  <unicode hex="0056"/>
  <anchor x="304" y="0" name="bottom"/>
  <anchor x="456" y="714" name="top"/>
  <anchor x="857" y="714" name="topright"/>
  <outline>
    <contour>
      <point x="248" y="0" type="line"/>
      <point x="368" y="0" type="line"/>
      <point x="688" y="645" type="line" smooth="yes"/>
      <point x="715" y="699"/>
      <point x="730" y="704"/>
      <point x="769" y="704" type="curve" smooth="yes"/>
      <point x="819" y="704" type="line"/>
      <point x="821" y="714" type="line"/>
      <point x="569" y="714" type="line"/>
      <point x="567" y="704" type="line"/>
      <point x="626" y="704" type="line" smooth="yes"/>
      <point x="664" y="704"/>
      <point x="682" y="702"/>
      <point x="682" y="680" type="curve" smooth="yes"/>
      <point x="682" y="672"/>
      <point x="679" y="651"/>
      <point x="665" y="621" type="curve" smooth="yes"/>
      <point x="464" y="215" type="line" smooth="yes"/>
      <point x="448" y="183"/>
      <point x="424" y="136"/>
      <point x="413" y="114" type="curve"/>
      <point x="412" y="141"/>
      <point x="405" y="233"/>
      <point x="401" y="269" type="curve" smooth="yes"/>
      <point x="363" y="638" type="line" smooth="yes"/>
      <point x="362" y="647"/>
      <point x="361" y="661"/>
      <point x="361" y="672" type="curve" smooth="yes"/>
      <point x="361" y="704"/>
      <point x="387" y="704"/>
      <point x="430" y="704" type="curve" smooth="yes"/>
      <point x="470" y="704" type="line"/>
      <point x="472" y="714" type="line"/>
      <point x="99" y="714" type="line"/>
      <point x="97" y="704" type="line"/>
      <point x="108" y="704" type="line" smooth="yes"/>
      <point x="137" y="704"/>
      <point x="154" y="700"/>
      <point x="159" y="660" type="curve" smooth="yes"/>
    </contour>
  </outline>
</glyph>
<glyph name="W" format="2">
  <advance width="1083"/>
  <unicode hex="0057"/>
  <anchor x="485" y="0" name="bottom"/>
  <anchor x="677" y="714" name="top"/>
  <anchor x="1242" y="714" name="topright"/>
  <outline>
    <contour>
      <point x="157" y="660" type="curve" smooth="yes"/>
      <point x="218" y="0" type="line"/>
      <point x="366" y="0" type="line"/>
      <point x="573" y="492" type="line"/>
      <point x="677" y="0" type="line"/>
      <point x="807" y="0" type="line"/>
      <point x="1060" y="635" type="line" smooth="yes"/>
      <point x="1082" y="691"/>
      <point x="1108" y="704"/>
      <point x="1147" y="704" type="curve" smooth="yes"/>
      <point x="1195" y="704" type="line"/>
      <point x="1197" y="714" type="line"/>
      <point x="936" y="714" type="line"/>
      <point x="935" y="704" type="line"/>
      <point x="1008" y="704" type="line" smooth="yes"/>
      <point x="1042" y="704"/>
      <point x="1056" y="693"/>
      <point x="1057" y="673" type="curve" smooth="yes"/>
      <point x="1057" y="659"/>
      <point x="1051" y="641"/>
      <point x="1042" y="618" type="curve" smooth="yes"/>
      <point x="910" y="286" type="line" smooth="yes"/>
      <point x="891" y="238"/>
      <point x="853" y="141"/>
      <point x="841" y="110" type="curve"/>
      <point x="836" y="151"/>
      <point x="823" y="214"/>
      <point x="811" y="275" type="curve" smooth="yes"/>
      <point x="724" y="707" type="line"/>
      <point x="650" y="707" type="line"/>
      <point x="439" y="204" type="line" smooth="yes"/>
      <point x="419" y="155"/>
      <point x="407" y="129"/>
      <point x="395" y="100" type="curve"/>
      <point x="395" y="140"/>
      <point x="386" y="254"/>
      <point x="385" y="271" type="curve" smooth="yes"/>
      <point x="357" y="621" type="line" smooth="yes"/>
      <point x="355" y="647"/>
      <point x="355" y="661"/>
      <point x="355" y="672" type="curve" smooth="yes"/>
      <point x="355" y="704"/>
      <point x="381" y="704"/>
      <point x="424" y="704" type="curve" smooth="yes"/>
      <point x="461" y="704" type="line"/>
      <point x="464" y="714" type="line"/>
      <point x="96" y="714" type="line"/>
      <point x="94" y="704" type="line"/>
      <point x="107" y="704" type="line" smooth="yes"/>
      <point x="136" y="704"/>
      <point x="153" y="700"/>
    </contour>
  </outline>
</glyph>
<glyph name="X" format="2">
  <advance width="785"/>
  <unicode hex="0058"/>
  <anchor x="336" y="0" name="bottom"/>
  <anchor x="488" y="714" name="top"/>
  <anchor x="890" y="714" name="topright"/>
  <outline>
    <contour>
      <point x="-37" y="0" type="line"/>
      <point x="213" y="0" type="line"/>
      <point x="215" y="10" type="line"/>
      <point x="155" y="11" type="line" smooth="yes"/>
      <point x="116" y="12"/>
      <point x="108" y="28"/>
      <point x="108" y="43" type="curve" smooth="yes"/>
      <point x="108" y="61"/>
      <point x="123" y="82"/>
      <point x="148" y="108" type="curve" smooth="yes"/>
      <point x="407" y="373" type="line"/>
      <point x="345" y="314" type="line"/>
      <point x="421" y="134" type="line" smooth="yes"/>
      <point x="440" y="89"/>
      <point x="449" y="64"/>
      <point x="449" y="45" type="curve" smooth="yes"/>
      <point x="449" y="22"/>
      <point x="437" y="10"/>
      <point x="397" y="10" type="curve" smooth="yes"/>
      <point x="354" y="10" type="line"/>
      <point x="352" y="0" type="line"/>
      <point x="726" y="0" type="line"/>
      <point x="728" y="10" type="line"/>
      <point x="714" y="10" type="line" smooth="yes"/>
      <point x="699" y="10"/>
      <point x="689" y="22"/>
      <point x="672" y="63" type="curve" smooth="yes"/>
      <point x="515" y="430" type="line"/>
      <point x="458" y="362" type="line"/>
      <point x="714" y="636" type="line" smooth="yes"/>
      <point x="764" y="689"/>
      <point x="804" y="704"/>
      <point x="843" y="704" type="curve" smooth="yes"/>
      <point x="852" y="704" type="line"/>
      <point x="853" y="714" type="line"/>
      <point x="620" y="714" type="line"/>
      <point x="618" y="704" type="line"/>
      <point x="621" y="704" type="line" smooth="yes"/>
      <point x="698" y="704"/>
      <point x="713" y="696"/>
      <point x="713" y="672" type="curve" smooth="yes"/>
      <point x="713" y="657"/>
      <point x="701" y="638"/>
      <point x="685" y="621" type="curve" smooth="yes"/>
      <point x="454" y="372" type="line"/>
      <point x="514" y="432" type="line"/>
      <point x="439" y="616" type="line" smooth="yes"/>
      <point x="427" y="645"/>
      <point x="421" y="663"/>
      <point x="421" y="676" type="curve" smooth="yes"/>
      <point x="421" y="694"/>
      <point x="435" y="704"/>
      <point x="468" y="704" type="curve" smooth="yes"/>
      <point x="515" y="704" type="line"/>
      <point x="517" y="714" type="line"/>
      <point x="142" y="714" type="line"/>
      <point x="140" y="704" type="line"/>
      <point x="155" y="704" type="line" smooth="yes"/>
      <point x="169" y="704"/>
      <point x="179" y="703"/>
      <point x="200" y="653" type="curve" smooth="yes"/>
      <point x="343" y="318" type="line"/>
      <point x="402" y="384" type="line"/>
      <point x="108" y="82" type="line" smooth="yes"/>
      <point x="56" y="29"/>
      <point x="25" y="10"/>
      <point x="-21" y="10" type="curve" smooth="yes"/>
      <point x="-35" y="10" type="line"/>
    </contour>
  </outline>
</glyph>
<glyph name="Y" format="2">
  <advance width="743"/>
  <unicode hex="0059"/>
  <anchor x="311" y="0" name="bottom"/>
  <anchor x="473" y="714" name="top"/>
  <anchor x="874" y="714" name="topright"/>
  <outline>
    <contour>
      <point x="111" y="0" type="line"/>
      <point x="522" y="0" type="line"/>
      <point x="524" y="10" type="line"/>
      <point x="499" y="10" type="line" smooth="yes"/>
      <point x="457" y="10"/>
      <point x="425" y="14"/>
      <point x="425" y="40" type="curve" smooth="yes"/>
      <point x="425" y="44"/>
      <point x="426" y="49"/>
      <point x="430" y="67" type="curve" smooth="yes"/>
      <point x="467" y="249" type="line"/>
      <point x="699" y="647" type="line" smooth="yes"/>
      <point x="725" y="692"/>
      <point x="747" y="704"/>
      <point x="788" y="704" type="curve" smooth="yes"/>
      <point x="831" y="704" type="line"/>
      <point x="833" y="714" type="line"/>
      <point x="562" y="714" type="line"/>
      <point x="561" y="704" type="line"/>
      <point x="617" y="704" type="line" smooth="yes"/>
      <point x="667" y="704"/>
      <point x="684" y="695"/>
      <point x="684" y="669" type="curve" smooth="yes"/>
      <point x="684" y="654"/>
      <point x="680" y="636"/>
      <point x="663" y="607" type="curve" smooth="yes"/>
      <point x="519" y="358" type="line" smooth="yes"/>
      <point x="489" y="306"/>
      <point x="473" y="283"/>
      <point x="464" y="263" type="curve"/>
      <point x="459" y="296"/>
      <point x="450" y="324"/>
      <point x="436" y="374" type="curve" smooth="yes"/>
      <point x="373" y="603" type="line" smooth="yes"/>
      <point x="363" y="638"/>
      <point x="361" y="665"/>
      <point x="361" y="673" type="curve" smooth="yes"/>
      <point x="361" y="692"/>
      <point x="372" y="704"/>
      <point x="404" y="704" type="curve" smooth="yes"/>
      <point x="463" y="704" type="line"/>
      <point x="465" y="714" type="line"/>
      <point x="99" y="714" type="line"/>
      <point x="97" y="704" type="line"/>
      <point x="110" y="704" type="line" smooth="yes"/>
      <point x="133" y="704"/>
      <point x="141" y="691"/>
      <point x="153" y="651" type="curve" smooth="yes"/>
      <point x="271" y="269" type="line"/>
      <point x="229" y="67" type="line" smooth="yes"/>
      <point x="219" y="21"/>
      <point x="183" y="10"/>
      <point x="142" y="10" type="curve" smooth="yes"/>
      <point x="112" y="10" type="line"/>
    </contour>
  </outline>
</glyph>
<glyph name="Z" format="2">
  <advance width="711"/>
  <unicode hex="005A"/>
  <anchor x="282" y="0" name="bottom"/>
  <anchor x="435" y="714" name="top"/>
  <anchor x="769" y="714" name="topright"/>
  <outline>
    <contour>
      <point x="-8" y="0" type="line"/>
      <point x="602" y="0" type="line"/>
      <point x="654" y="229" type="line"/>
      <point x="644" y="229" type="line"/>
      <point x="624" y="164" type="line" smooth="yes"/>
      <point x="591" y="56"/>
      <point x="523" y="10"/>
      <point x="412" y="10" type="curve" smooth="yes"/>
      <point x="224" y="10" type="line"/>
      <point x="742" y="704" type="line"/>
      <point x="742" y="714" type="line"/>
      <point x="162" y="714" type="line"/>
      <point x="108" y="485" type="line"/>
      <point x="118" y="485" type="line"/>
      <point x="138" y="554" type="line" smooth="yes"/>
      <point x="170" y="666"/>
      <point x="262" y="704"/>
      <point x="341" y="704" type="curve" smooth="yes"/>
      <point x="502" y="704" type="line"/>
      <point x="-6" y="10" type="line"/>
    </contour>
  </outline>
</glyph>
<glyph name="bracketright" format="2">
  <advance width="407"/>
  <unicode hex="005D"/>
  <outline>
    <contour>
      <point x="-53" y="-128" type="line"/>
      <point x="263" y="-128" type="line"/>
      <point x="452" y="760" type="line"/>
      <point x="135" y="760" type="line"/>
      <point x="134" y="750" type="line"/>
      <point x="177" y="750" type="line" smooth="yes"/>
      <point x="212" y="750"/>
      <point x="243" y="744"/>
      <point x="243" y="698" type="curve" smooth="yes"/>
      <point x="243" y="690"/>
      <point x="241" y="673"/>
      <point x="236" y="649" type="curve" smooth="yes"/>
      <point x="89" y="-46" type="line" smooth="yes"/>
      <point x="78" y="-99"/>
      <point x="52" y="-118"/>
      <point x="-8" y="-118" type="curve" smooth="yes"/>
      <point x="-51" y="-118" type="line"/>
    </contour>
  </outline>
</glyph>
<glyph name="asciicircum" format="2">
  <advance width="559"/>
  <unicode hex="005E"/>
  <outline>
    <contour>
      <point x="81" y="261" type="line"/>
      <point x="103" y="261" type="line"/>
      <point x="277" y="694" type="line"/>
      <point x="453" y="261" type="line"/>
      <point x="475" y="261" type="line"/>
      <point x="289" y="714" type="line"/>
      <point x="265" y="714" type="line"/>
    </contour>
  </outline>
</glyph>
<glyph name="grave" format="2">
  <advance width="340"/>
  <unicode hex="0060"/>
  <outline>
    <contour>
      <point x="361" y="606" type="curve"/>
      <point x="372" y="606" type="line"/>
      <point x="374" y="614" type="line"/>
      <point x="346" y="649"/>
      <point x="318" y="726"/>
      <point x="308" y="766" type="curve"/>
      <point x="147" y="766" type="line"/>
      <point x="144" y="756" type="line"/>
      <point x="180" y="708"/>
      <point x="292" y="632"/>
    </contour>
  </outline>
</glyph>
<glyph name="a" format="2">
  <advance width="683"/>
  <unicode hex="0061"/>
  <anchor x="301" y="0" name="bottom"/>
  <anchor x="405" y="536" name="top"/>
  <anchor x="759" y="536" name="topright"/>
  <outline>
    <contour>
      <point x="200" y="-10" type="curve" smooth="yes"/>
      <point x="299" y="-10"/>
      <point x="361" y="50"/>
      <point x="392" y="183" type="curve"/>
      <point x="398" y="183" type="line"/>
      <point x="393" y="156"/>
      <point x="389" y="130"/>
      <point x="389" y="82" type="curve" smooth="yes"/>
      <point x="389" y="23"/>
      <point x="430" y="-10"/>
      <point x="497" y="-10" type="curve"/>
      <point x="585" y="-10"/>
      <point x="619" y="16"/>
      <point x="667" y="50" type="curve"/>
      <point x="661" y="59" type="line"/>
      <point x="645" y="45"/>
      <point x="611" y="22"/>
      <point x="583" y="22" type="curve" smooth="yes"/>
      <point x="563" y="22"/>
      <point x="548" y="34"/>
      <point x="548" y="66" type="curve" smooth="yes"/>
      <point x="548" y="92"/>
      <point x="561" y="146"/>
      <point x="566" y="168" type="curve" smooth="yes"/>
      <point x="644" y="536" type="line"/>
      <point x="581" y="536" type="line"/>
      <point x="474" y="518" type="line"/>
      <point x="445" y="536"/>
      <point x="409" y="546"/>
      <point x="364" y="546" type="curve" smooth="yes"/>
      <point x="106" y="546"/>
      <point x="32" y="329"/>
      <point x="32" y="183" type="curve" smooth="yes"/>
      <point x="32" y="59"/>
      <point x="102" y="-10"/>
    </contour>
    <contour>
      <point x="274" y="32" type="curve" smooth="yes"/>
      <point x="244" y="32"/>
      <point x="221" y="57"/>
      <point x="221" y="146" type="curve" smooth="yes"/>
      <point x="221" y="278"/>
      <point x="277" y="532"/>
      <point x="395" y="532" type="curve" smooth="yes"/>
      <point x="417" y="532"/>
      <point x="437" y="526"/>
      <point x="449" y="511" type="curve"/>
      <point x="385" y="199" type="line" smooth="yes"/>
      <point x="366" y="107"/>
      <point x="324" y="32"/>
    </contour>
  </outline>
</glyph>
<glyph name="b" format="2">
  <advance width="676"/>
  <unicode hex="0062"/>
  <anchor x="293" y="0" name="bottom"/>
  <anchor x="455" y="760" name="top"/>
  <anchor x="769" y="760" name="topright"/>
  <outline>
    <contour>
      <point x="326" y="-10" type="curve" smooth="yes"/>
      <point x="569" y="-10"/>
      <point x="647" y="223"/>
      <point x="647" y="365" type="curve" smooth="yes"/>
      <point x="647" y="491"/>
      <point x="576" y="546"/>
      <point x="487" y="546" type="curve" smooth="yes"/>
      <point x="387" y="546"/>
      <point x="336" y="478"/>
      <point x="314" y="419" type="curve"/>
      <point x="310" y="419" type="line"/>
      <point x="331" y="491"/>
      <point x="347" y="557"/>
      <point x="355" y="596" type="curve" smooth="yes"/>
      <point x="390" y="760" type="line"/>
      <point x="110" y="760" type="line"/>
      <point x="108" y="750" type="line"/>
      <point x="142" y="750" type="line" smooth="yes"/>
      <point x="172" y="750"/>
      <point x="182" y="740"/>
      <point x="182" y="716" type="curve" smooth="yes"/>
      <point x="182" y="701"/>
      <point x="178" y="680"/>
      <point x="172" y="653" type="curve" smooth="yes"/>
      <point x="33" y="-3" type="line"/>
      <point x="107" y="-3" type="line"/>
      <point x="219" y="23" type="line"/>
      <point x="241" y="5"/>
      <point x="269" y="-10"/>
    </contour>
    <contour>
      <point x="284" y="4" type="curve" smooth="yes"/>
      <point x="262" y="4"/>
      <point x="243" y="16"/>
      <point x="233" y="25" type="curve"/>
      <point x="305" y="358" type="line" smooth="yes"/>
      <point x="324" y="444"/>
      <point x="363" y="504"/>
      <point x="403" y="504" type="curve" smooth="yes"/>
      <point x="437" y="504"/>
      <point x="457" y="479"/>
      <point x="457" y="386" type="curve" smooth="yes"/>
      <point x="457" y="231"/>
      <point x="396" y="4"/>
    </contour>
  </outline>
</glyph>
<glyph name="c" format="2">
  <advance width="555"/>
  <unicode hex="0063"/>
  <anchor x="252" y="0" name="bottom"/>
  <anchor x="366" y="536" name="top"/>
  <anchor x="595" y="536" name="topright"/>
  <outline>
    <contour>
      <point x="283" y="-10" type="curve" smooth="yes"/>
      <point x="421" y="-10"/>
      <point x="486" y="49"/>
      <point x="486" y="107" type="curve" smooth="yes"/>
      <point x="486" y="141"/>
      <point x="473" y="158"/>
      <point x="461" y="165" type="curve"/>
      <point x="433" y="62"/>
      <point x="402" y="5"/>
      <point x="330" y="5" type="curve" smooth="yes"/>
      <point x="265" y="5"/>
      <point x="227" y="57"/>
      <point x="227" y="195" type="curve" smooth="yes"/>
      <point x="227" y="368"/>
      <point x="274" y="533"/>
      <point x="342" y="533" type="curve" smooth="yes"/>
      <point x="378" y="533"/>
      <point x="411" y="506"/>
      <point x="411" y="415" type="curve" smooth="yes"/>
      <point x="411" y="388"/>
      <point x="410" y="365"/>
      <point x="407" y="338" type="curve"/>
      <point x="518" y="338"/>
      <point x="558" y="381"/>
      <point x="558" y="436" type="curve" smooth="yes"/>
      <point x="558" y="499"/>
      <point x="501" y="546"/>
      <point x="390" y="546" type="curve" smooth="yes"/>
      <point x="131" y="546"/>
      <point x="38" y="370"/>
      <point x="38" y="219" type="curve" smooth="yes"/>
      <point x="38" y="54"/>
      <point x="147" y="-10"/>
    </contour>
  </outline>
</glyph>
<glyph name="d" format="2">
  <advance width="683"/>
  <unicode hex="0064"/>
  <anchor x="301" y="0" name="bottom"/>
  <anchor x="415" y="268" name="center"/>
  <anchor x="463" y="760" name="top"/>
  <anchor x="753" y="760" name="topright"/>
  <outline>
    <contour>
      <point x="191" y="-10" type="curve" smooth="yes"/>
      <point x="275" y="-10"/>
      <point x="347" y="28"/>
      <point x="387" y="183" type="curve"/>
      <point x="393" y="183" type="line"/>
      <point x="388" y="151"/>
      <point x="384" y="134"/>
      <point x="384" y="90" type="curve" smooth="yes"/>
      <point x="384" y="27"/>
      <point x="431" y="-10"/>
      <point x="497" y="-10" type="curve" smooth="yes"/>
      <point x="580" y="-10"/>
      <point x="618" y="14"/>
      <point x="667" y="50" type="curve"/>
      <point x="660" y="60" type="line"/>
      <point x="646" y="48"/>
      <point x="613" y="23"/>
      <point x="583" y="23" type="curve" smooth="yes"/>
      <point x="562" y="23"/>
      <point x="548" y="36"/>
      <point x="548" y="66" type="curve" smooth="yes"/>
      <point x="548" y="94"/>
      <point x="564" y="159"/>
      <point x="572" y="195" type="curve" smooth="yes"/>
      <point x="693" y="760" type="line"/>
      <point x="412" y="760" type="line"/>
      <point x="410" y="750" type="line"/>
      <point x="434" y="750" type="line" smooth="yes"/>
      <point x="482" y="750"/>
      <point x="483" y="737"/>
      <point x="483" y="720" type="curve" smooth="yes"/>
      <point x="483" y="705"/>
      <point x="481" y="689"/>
      <point x="477" y="670" type="curve" smooth="yes"/>
      <point x="460" y="585" type="line" smooth="yes"/>
      <point x="458" y="573"/>
      <point x="452" y="543"/>
      <point x="450" y="526" type="curve"/>
      <point x="424" y="541"/>
      <point x="401" y="546"/>
      <point x="353" y="546" type="curve" smooth="yes"/>
      <point x="114" y="546"/>
      <point x="32" y="329"/>
      <point x="32" y="190" type="curve" smooth="yes"/>
      <point x="32" y="78"/>
      <point x="77" y="-10"/>
    </contour>
    <contour>
      <point x="277" y="32" type="curve" smooth="yes"/>
      <point x="246" y="32"/>
      <point x="221" y="56"/>
      <point x="221" y="156" type="curve" smooth="yes"/>
      <point x="221" y="337"/>
      <point x="298" y="532"/>
      <point x="397" y="532" type="curve" smooth="yes"/>
      <point x="416" y="532"/>
      <point x="433" y="524"/>
      <point x="447" y="511" type="curve"/>
      <point x="378" y="190" type="line" smooth="yes"/>
      <point x="363" y="120"/>
      <point x="319" y="32"/>
    </contour>
  </outline>
</glyph>
<glyph name="e" format="2">
  <advance width="567"/>
  <unicode hex="0065"/>
  <anchor x="253" y="0" name="bottom"/>
  <anchor x="377" y="536" name="top"/>
  <anchor x="610" y="536" name="topright"/>
  <outline>
    <contour>
      <point x="285" y="-10" type="curve" smooth="yes"/>
      <point x="428" y="-10"/>
      <point x="495" y="58"/>
      <point x="495" y="115" type="curve" smooth="yes"/>
      <point x="495" y="147"/>
      <point x="485" y="159"/>
      <point x="472" y="163" type="curve"/>
      <point x="444" y="68"/>
      <point x="398" y="2"/>
      <point x="318" y="2" type="curve" smooth="yes"/>
      <point x="259" y="2"/>
      <point x="224" y="46"/>
      <point x="224" y="186" type="curve" smooth="yes"/>
      <point x="224" y="195"/>
      <point x="225" y="236"/>
      <point x="227" y="248" type="curve"/>
      <point x="266" y="248" type="line" smooth="yes"/>
      <point x="441" y="248"/>
      <point x="568" y="316"/>
      <point x="568" y="426" type="curve" smooth="yes"/>
      <point x="568" y="501"/>
      <point x="507" y="546"/>
      <point x="398" y="546" type="curve" smooth="yes"/>
      <point x="128" y="546"/>
      <point x="35" y="347"/>
      <point x="35" y="211" type="curve" smooth="yes"/>
      <point x="35" y="56"/>
      <point x="128" y="-10"/>
    </contour>
    <contour>
      <point x="228" y="258" type="line"/>
      <point x="251" y="436"/>
      <point x="305" y="532"/>
      <point x="353" y="532" type="curve" smooth="yes"/>
      <point x="381" y="532"/>
      <point x="395" y="514"/>
      <point x="395" y="468" type="curve" smooth="yes"/>
      <point x="395" y="360"/>
      <point x="343" y="258"/>
      <point x="243" y="258" type="curve" smooth="yes"/>
    </contour>
  </outline>
</glyph>
<glyph name="g" format="2">
  <advance width="598"/>
  <unicode hex="0067"/>
  <anchor x="189" y="-240" name="bottom"/>
  <anchor x="339" y="587" name="top"/>
  <anchor x="691" y="536" name="topright"/>
  <outline>
    <contour>
      <point x="168" y="-240" type="curve" smooth="yes"/>
      <point x="374" y="-240"/>
      <point x="499" y="-156"/>
      <point x="499" y="-34" type="curve" smooth="yes"/>
      <point x="499" y="54"/>
      <point x="441" y="97"/>
      <point x="344" y="105" type="curve" smooth="yes"/>
      <point x="220" y="117" type="line" smooth="yes"/>
      <point x="162" y="123"/>
      <point x="144" y="132"/>
      <point x="144" y="155" type="curve" smooth="yes"/>
      <point x="144" y="169"/>
      <point x="155" y="181"/>
      <point x="187" y="198" type="curve"/>
      <point x="203" y="193"/>
      <point x="241" y="189"/>
      <point x="274" y="189" type="curve" smooth="yes"/>
      <point x="454" y="189"/>
      <point x="521" y="308"/>
      <point x="521" y="393" type="curve" smooth="yes"/>
      <point x="521" y="448"/>
      <point x="499" y="478"/>
      <point x="482" y="495" type="curve"/>
      <point x="497" y="509"/>
      <point x="511" y="514"/>
      <point x="527" y="514" type="curve" smooth="yes"/>
      <point x="560" y="514"/>
      <point x="579" y="497"/>
      <point x="579" y="444" type="curve"/>
      <point x="631" y="444"/>
      <point x="646" y="486"/>
      <point x="646" y="522" type="curve" smooth="yes"/>
      <point x="646" y="553"/>
      <point x="624" y="580"/>
      <point x="579" y="580" type="curve" smooth="yes"/>
      <point x="529" y="580"/>
      <point x="497" y="531"/>
      <point x="477" y="500" type="curve"/>
      <point x="441" y="533"/>
      <point x="385" y="546"/>
      <point x="327" y="546" type="curve" smooth="yes"/>
      <point x="120" y="546"/>
      <point x="75" y="418"/>
      <point x="75" y="339" type="curve" smooth="yes"/>
      <point x="75" y="282"/>
      <point x="99" y="227"/>
      <point x="172" y="201" type="curve"/>
      <point x="60" y="174"/>
      <point x="28" y="127"/>
      <point x="28" y="73" type="curve" smooth="yes"/>
      <point x="28" y="30"/>
      <point x="52" y="2"/>
      <point x="103" y="-20" type="curve"/>
      <point x="-26" y="-20"/>
      <point x="-77" y="-59"/>
      <point x="-77" y="-121" type="curve" smooth="yes"/>
      <point x="-77" y="-193"/>
      <point x="-12" y="-240"/>
    </contour>
    <contour>
      <point x="202" y="-230" type="curve" smooth="yes"/>
      <point x="93" y="-230"/>
      <point x="58" y="-182"/>
      <point x="58" y="-123" type="curve" smooth="yes"/>
      <point x="58" y="-75"/>
      <point x="78" y="-44"/>
      <point x="112" y="-25" type="curve"/>
      <point x="242" y="-40" type="line" smooth="yes"/>
      <point x="322" y="-49"/>
      <point x="350" y="-70"/>
      <point x="350" y="-123" type="curve" smooth="yes"/>
      <point x="350" y="-187"/>
      <point x="290" y="-230"/>
    </contour>
    <contour>
      <point x="271" y="199" type="curve" smooth="yes"/>
      <point x="239" y="199"/>
      <point x="226" y="229"/>
      <point x="226" y="273" type="curve" smooth="yes"/>
      <point x="226" y="352"/>
      <point x="261" y="536"/>
      <point x="319" y="536" type="curve" smooth="yes"/>
      <point x="350" y="536"/>
      <point x="358" y="514"/>
      <point x="358" y="478" type="curve" smooth="yes"/>
      <point x="358" y="394"/>
      <point x="333" y="199"/>
    </contour>
  </outline>
</glyph>
<glyph name="h" format="2">
  <advance width="721"/>
  <unicode hex="0068"/>
  <anchor x="319" y="0" name="bottom"/>
  <anchor x="433" y="268" name="center"/>
  <anchor x="481" y="760" name="top"/>
  <anchor x="710" y="760" name="topright"/>
  <outline>
    <contour>
      <point x="532" y="-10" type="curve" smooth="yes"/>
      <point x="620" y="-10"/>
      <point x="676" y="29"/>
      <point x="708" y="68" type="curve"/>
      <point x="702" y="76" type="line"/>
      <point x="674" y="45"/>
      <point x="641" y="20"/>
      <point x="610" y="20" type="curve" smooth="yes"/>
      <point x="588" y="20"/>
      <point x="575" y="34"/>
      <point x="575" y="61" type="curve" smooth="yes"/>
      <point x="575" y="88"/>
      <point x="583" y="117"/>
      <point x="591" y="153" type="curve" smooth="yes"/>
      <point x="626" y="314" type="line" smooth="yes"/>
      <point x="634" y="349"/>
      <point x="644" y="394"/>
      <point x="644" y="429" type="curve" smooth="yes"/>
      <point x="644" y="491"/>
      <point x="613" y="547"/>
      <point x="518" y="547" type="curve" smooth="yes"/>
      <point x="413" y="547"/>
      <point x="355" y="496"/>
      <point x="313" y="393" type="curve"/>
      <point x="311" y="393" type="line"/>
      <point x="317" y="412"/>
      <point x="336" y="494"/>
      <point x="340" y="513" type="curve" smooth="yes"/>
      <point x="393" y="760" type="line"/>
      <point x="110" y="760" type="line"/>
      <point x="109" y="750" type="line"/>
      <point x="134" y="750" type="line" smooth="yes"/>
      <point x="178" y="750"/>
      <point x="180" y="735"/>
      <point x="180" y="715" type="curve" smooth="yes"/>
      <point x="180" y="704"/>
      <point x="177" y="689"/>
      <point x="174" y="676" type="curve" smooth="yes"/>
      <point x="31" y="0" type="line"/>
      <point x="223" y="0" type="line"/>
      <point x="298" y="311" type="line" smooth="yes"/>
      <point x="324" y="417"/>
      <point x="378" y="508"/>
      <point x="425" y="508" type="curve" smooth="yes"/>
      <point x="446" y="508"/>
      <point x="455" y="490"/>
      <point x="455" y="460" type="curve" smooth="yes"/>
      <point x="455" y="428"/>
      <point x="445" y="373"/>
      <point x="439" y="348" type="curve" smooth="yes"/>
      <point x="406" y="202" type="line" smooth="yes"/>
      <point x="396" y="159"/>
      <point x="392" y="124"/>
      <point x="392" y="99" type="curve" smooth="yes"/>
      <point x="392" y="31"/>
      <point x="443" y="-10"/>
    </contour>
  </outline>
</glyph>
<glyph name="i" format="2">
  <advance width="389"/>
  <unicode hex="0069"/>
  <anchor x="142" y="0" name="bottom"/>
  <anchor x="307" y="777" name="top"/>
  <anchor x="482" y="777" name="topright"/>
  <outline>
    <contour>
      <point x="210" y="-10" type="curve" smooth="yes"/>
      <point x="300" y="-10"/>
      <point x="342" y="26"/>
      <point x="376" y="66" type="curve"/>
      <point x="369" y="75" type="line"/>
      <point x="348" y="51"/>
      <point x="314" y="21"/>
      <point x="284" y="21" type="curve" smooth="yes"/>
      <point x="259" y="21"/>
      <point x="249" y="32"/>
      <point x="248" y="55" type="curve" smooth="yes"/>
      <point x="247" y="75"/>
      <point x="252" y="105"/>
      <point x="261" y="145" type="curve" smooth="yes"/>
      <point x="345" y="536" type="line"/>
      <point x="67" y="536" type="line"/>
      <point x="65" y="526" type="line"/>
      <point x="87" y="526" type="line" smooth="yes"/>
      <point x="125" y="526"/>
      <point x="133" y="517"/>
      <point x="133" y="493" type="curve" smooth="yes"/>
      <point x="133" y="473"/>
      <point x="129" y="451"/>
      <point x="124" y="428" type="curve" smooth="yes"/>
      <point x="80" y="210" type="line" smooth="yes"/>
      <point x="67" y="147"/>
      <point x="64" y="117"/>
      <point x="64" y="99" type="curve" smooth="yes"/>
      <point x="64" y="26"/>
      <point x="117" y="-10"/>
    </contour>
    <contour>
      <point x="246" y="619" type="curve" smooth="yes"/>
      <point x="301" y="619"/>
      <point x="353" y="651"/>
      <point x="353" y="708" type="curve" smooth="yes"/>
      <point x="353" y="759"/>
      <point x="311" y="777"/>
      <point x="266" y="777" type="curve" smooth="yes"/>
      <point x="213" y="777"/>
      <point x="162" y="756"/>
      <point x="162" y="686" type="curve" smooth="yes"/>
      <point x="162" y="640"/>
      <point x="199" y="619"/>
    </contour>
  </outline>
</glyph>
<glyph name="j" format="2">
  <advance width="373"/>
  <unicode hex="006A"/>
  <anchor x="-11" y="-240" name="bottom"/>
  <anchor x="295" y="777" name="top"/>
  <anchor x="461" y="777" name="topright"/>
  <outline>
    <contour>
      <point x="-11" y="-240" type="curve" smooth="yes"/>
      <point x="85" y="-240"/>
      <point x="191" y="-167"/>
      <point x="229" y="10" type="curve" smooth="yes"/>
      <point x="341" y="536" type="line"/>
      <point x="64" y="536" type="line"/>
      <point x="63" y="526" type="line"/>
      <point x="84" y="526" type="line" smooth="yes"/>
      <point x="123" y="526"/>
      <point x="131" y="515"/>
      <point x="131" y="488" type="curve" smooth="yes"/>
      <point x="131" y="472"/>
      <point x="126" y="452"/>
      <point x="121" y="428" type="curve" smooth="yes"/>
      <point x="19" y="-54" type="line" smooth="yes"/>
      <point x="-9" y="-187"/>
      <point x="-32" y="-222"/>
      <point x="-92" y="-222" type="curve" smooth="yes"/>
      <point x="-105" y="-222"/>
      <point x="-128" y="-218"/>
      <point x="-137" y="-215" type="curve"/>
      <point x="-140" y="-225" type="line"/>
      <point x="-101" y="-234"/>
      <point x="-69" y="-240"/>
    </contour>
    <contour>
      <point x="242" y="619" type="curve" smooth="yes"/>
      <point x="312" y="619"/>
      <point x="349" y="651"/>
      <point x="349" y="708" type="curve" smooth="yes"/>
      <point x="349" y="759"/>
      <point x="307" y="777"/>
      <point x="262" y="777" type="curve" smooth="yes"/>
      <point x="209" y="777"/>
      <point x="158" y="756"/>
      <point x="158" y="686" type="curve" smooth="yes"/>
      <point x="158" y="640"/>
      <point x="195" y="619"/>
    </contour>
  </outline>
</glyph>
<glyph name="k" format="2">
  <advance width="649"/>
  <unicode hex="006B"/>
  <anchor x="278" y="0" name="bottom"/>
  <anchor x="440" y="760" name="top"/>
  <anchor x="669" y="760" name="topright"/>
  <outline>
    <contour>
      <point x="540" y="-5" type="curve" smooth="yes"/>
      <point x="610" y="-5" type="line"/>
      <point x="613" y="5" type="line"/>
      <point x="598" y="5"/>
      <point x="592" y="11"/>
      <point x="579" y="42" type="curve" smooth="yes"/>
      <point x="434" y="385" type="line"/>
      <point x="372" y="324" type="line"/>
      <point x="512" y="447" type="line" smooth="yes"/>
      <point x="577" y="504"/>
      <point x="639" y="526"/>
      <point x="685" y="526" type="curve"/>
      <point x="687" y="536" type="line"/>
      <point x="413" y="536" type="line"/>
      <point x="411" y="526" type="line"/>
      <point x="470" y="526"/>
      <point x="511" y="520"/>
      <point x="511" y="487" type="curve" smooth="yes"/>
      <point x="511" y="461"/>
      <point x="482" y="435"/>
      <point x="447" y="404" type="curve" smooth="yes"/>
      <point x="274" y="253" type="line"/>
      <point x="294" y="320"/>
      <point x="310" y="389"/>
      <point x="322" y="442" type="curve" smooth="yes"/>
      <point x="392" y="760" type="line"/>
      <point x="110" y="760" type="line"/>
      <point x="108" y="750" type="line"/>
      <point x="140" y="750" type="line" smooth="yes"/>
      <point x="172" y="750"/>
      <point x="180" y="745"/>
      <point x="180" y="718" type="curve" smooth="yes"/>
      <point x="180" y="707"/>
      <point x="177" y="690"/>
      <point x="174" y="676" type="curve" smooth="yes"/>
      <point x="30" y="0" type="line"/>
      <point x="222" y="0" type="line"/>
      <point x="272" y="238" type="line"/>
      <point x="355" y="312" type="line"/>
      <point x="289" y="257" type="line"/>
      <point x="341" y="112" type="line" smooth="yes"/>
      <point x="374" y="19"/>
      <point x="421" y="-5"/>
    </contour>
  </outline>
</glyph>
<glyph name="l" format="2">
  <advance width="381"/>
  <unicode hex="006C"/>
  <anchor x="162" y="0" name="bottom"/>
  <anchor x="276" y="268" name="center"/>
  <anchor x="324" y="760" name="top"/>
  <anchor x="499" y="760" name="topright"/>
  <outline>
    <contour>
      <point x="202" y="-10" type="curve" smooth="yes"/>
      <point x="292" y="-10"/>
      <point x="334" y="26"/>
      <point x="368" y="66" type="curve"/>
      <point x="361" y="75" type="line"/>
      <point x="340" y="51"/>
      <point x="306" y="21"/>
      <point x="276" y="21" type="curve" smooth="yes"/>
      <point x="251" y="21"/>
      <point x="241" y="32"/>
      <point x="240" y="55" type="curve" smooth="yes"/>
      <point x="239" y="75"/>
      <point x="244" y="105"/>
      <point x="253" y="145" type="curve" smooth="yes"/>
      <point x="388" y="760" type="line"/>
      <point x="110" y="760" type="line"/>
      <point x="108" y="750" type="line"/>
      <point x="135" y="750" type="line" smooth="yes"/>
      <point x="173" y="750"/>
      <point x="176" y="734"/>
      <point x="176" y="716" type="curve" smooth="yes"/>
      <point x="176" y="704"/>
      <point x="172" y="684"/>
      <point x="168" y="667" type="curve" smooth="yes"/>
      <point x="73" y="217" type="line" smooth="yes"/>
      <point x="60" y="154"/>
      <point x="56" y="124"/>
      <point x="56" y="99" type="curve"/>
      <point x="56" y="26"/>
      <point x="109" y="-10"/>
    </contour>
  </outline>
</glyph>
<glyph name="m" format="2">
  <advance width="1019"/>
  <unicode hex="006D"/>
  <anchor x="453" y="0" name="bottom"/>
  <anchor x="567" y="536" name="top"/>
  <anchor x="1058" y="536" name="topright"/>
  <outline>
    <contour>
      <point x="830" y="-8" type="curve" smooth="yes"/>
      <point x="922" y="-8"/>
      <point x="974" y="29"/>
      <point x="1006" y="68" type="curve"/>
      <point x="1000" y="76" type="line"/>
      <point x="983" y="58"/>
      <point x="947" y="20"/>
      <point x="909" y="20" type="curve" smooth="yes"/>
      <point x="888" y="20"/>
      <point x="873" y="32"/>
      <point x="873" y="63" type="curve" smooth="yes"/>
      <point x="873" y="89"/>
      <point x="881" y="117"/>
      <point x="888" y="152" type="curve" smooth="yes"/>
      <point x="922" y="319" type="line" smooth="yes"/>
      <point x="929" y="355"/>
      <point x="940" y="399"/>
      <point x="940" y="434" type="curve" smooth="yes"/>
      <point x="940" y="490"/>
      <point x="912" y="546"/>
      <point x="821" y="546" type="curve" smooth="yes"/>
      <point x="714" y="546"/>
      <point x="669" y="513"/>
      <point x="629" y="410" type="curve"/>
      <point x="626" y="410" type="line"/>
      <point x="626" y="413"/>
      <point x="626" y="427"/>
      <point x="626" y="436" type="curve" smooth="yes"/>
      <point x="622" y="501"/>
      <point x="593" y="546"/>
      <point x="509" y="546" type="curve" smooth="yes"/>
      <point x="439" y="546"/>
      <point x="370" y="533"/>
      <point x="321" y="417" type="curve"/>
      <point x="318" y="417" type="line"/>
      <point x="332" y="536" type="line"/>
      <point x="67" y="536" type="line"/>
      <point x="66" y="526" type="line"/>
      <point x="91" y="526" type="line" smooth="yes"/>
      <point x="124" y="526"/>
      <point x="132" y="518"/>
      <point x="132" y="496" type="curve" smooth="yes"/>
      <point x="132" y="481"/>
      <point x="127" y="462"/>
      <point x="124" y="446" type="curve" smooth="yes"/>
      <point x="30" y="0" type="line"/>
      <point x="222" y="0" type="line"/>
      <point x="297" y="309" type="line" smooth="yes"/>
      <point x="321" y="410"/>
      <point x="364" y="507"/>
      <point x="418" y="507" type="curve" smooth="yes"/>
      <point x="436" y="507"/>
      <point x="441" y="486"/>
      <point x="441" y="463" type="curve" smooth="yes"/>
      <point x="441" y="456"/>
      <point x="441" y="410"/>
      <point x="426" y="348" type="curve" smooth="yes"/>
      <point x="395" y="222" type="line" smooth="yes"/>
      <point x="380" y="161"/>
      <point x="364" y="68"/>
      <point x="357" y="0" type="curve"/>
      <point x="557" y="0" type="line"/>
      <point x="562" y="65"/>
      <point x="570" y="145"/>
      <point x="580" y="190" type="curve" smooth="yes"/>
      <point x="606" y="303" type="line" smooth="yes"/>
      <point x="626" y="388"/>
      <point x="671" y="512"/>
      <point x="729" y="512" type="curve" smooth="yes"/>
      <point x="751" y="512"/>
      <point x="753" y="484"/>
      <point x="753" y="460" type="curve" smooth="yes"/>
      <point x="753" y="429"/>
      <point x="743" y="375"/>
      <point x="737" y="349" type="curve" smooth="yes"/>
      <point x="704" y="205" type="line" smooth="yes"/>
      <point x="694" y="161"/>
      <point x="690" y="132"/>
      <point x="690" y="105" type="curve" smooth="yes"/>
      <point x="690" y="29"/>
      <point x="741" y="-8"/>
    </contour>
  </outline>
</glyph>
<glyph name="n" format="2">
  <advance width="722"/>
  <unicode hex="006E"/>
  <anchor x="304" y="0" name="bottom"/>
  <anchor x="418" y="536" name="top"/>
  <anchor x="761" y="536" name="topright"/>
  <outline>
    <contour>
      <point x="533" y="-10" type="curve" smooth="yes"/>
      <point x="621" y="-10"/>
      <point x="677" y="29"/>
      <point x="709" y="68" type="curve"/>
      <point x="703" y="76" type="line"/>
      <point x="686" y="58"/>
      <point x="650" y="20"/>
      <point x="611" y="20" type="curve" smooth="yes"/>
      <point x="590" y="20"/>
      <point x="576" y="34"/>
      <point x="576" y="61" type="curve" smooth="yes"/>
      <point x="576" y="88"/>
      <point x="584" y="116"/>
      <point x="591" y="152" type="curve" smooth="yes"/>
      <point x="624" y="314" type="line" smooth="yes"/>
      <point x="631" y="349"/>
      <point x="642" y="394"/>
      <point x="642" y="429" type="curve" smooth="yes"/>
      <point x="642" y="491"/>
      <point x="612" y="546"/>
      <point x="514" y="546" type="curve" smooth="yes"/>
      <point x="417" y="546"/>
      <point x="365" y="518"/>
      <point x="321" y="417" type="curve"/>
      <point x="318" y="417" type="line"/>
      <point x="336" y="536" type="line"/>
      <point x="67" y="536" type="line"/>
      <point x="66" y="526" type="line"/>
      <point x="91" y="526" type="line" smooth="yes"/>
      <point x="129" y="526"/>
      <point x="132" y="514"/>
      <point x="132" y="497" type="curve" smooth="yes"/>
      <point x="132" y="483"/>
      <point x="127" y="462"/>
      <point x="124" y="446" type="curve" smooth="yes"/>
      <point x="30" y="0" type="line"/>
      <point x="222" y="0" type="line"/>
      <point x="303" y="332" type="line" smooth="yes"/>
      <point x="323" y="414"/>
      <point x="365" y="508"/>
      <point x="422" y="508" type="curve" smooth="yes"/>
      <point x="452" y="508"/>
      <point x="454" y="476"/>
      <point x="454" y="452" type="curve" smooth="yes"/>
      <point x="454" y="420"/>
      <point x="442" y="370"/>
      <point x="437" y="345" type="curve" smooth="yes"/>
      <point x="407" y="202" type="line" smooth="yes"/>
      <point x="398" y="159"/>
      <point x="393" y="126"/>
      <point x="393" y="101" type="curve" smooth="yes"/>
      <point x="393" y="33"/>
      <point x="444" y="-10"/>
    </contour>
  </outline>
</glyph>
<glyph name="o" format="2">
  <advance width="642"/>
  <unicode hex="006F"/>
  <anchor x="265" y="0" name="bottom"/>
  <anchor x="379" y="268" name="center"/>
  <anchor x="379" y="536" name="top"/>
  <anchor x="684" y="536" name="topright"/>
  <outline>
    <contour>
      <point x="275" y="-10" type="curve" smooth="yes"/>
      <point x="532" y="-10"/>
      <point x="608" y="208"/>
      <point x="608" y="332" type="curve" smooth="yes"/>
      <point x="608" y="484"/>
      <point x="507" y="546"/>
      <point x="385" y="546" type="curve" smooth="yes"/>
      <point x="116" y="546"/>
      <point x="35" y="334"/>
      <point x="35" y="208" type="curve" smooth="yes"/>
      <point x="35" y="60"/>
      <point x="128" y="-10"/>
    </contour>
    <contour>
      <point x="281" y="0" type="curve" smooth="yes"/>
      <point x="242" y="0"/>
      <point x="224" y="31"/>
      <point x="224" y="123" type="curve" smooth="yes"/>
      <point x="224" y="292"/>
      <point x="282" y="536"/>
      <point x="374" y="536" type="curve" smooth="yes"/>
      <point x="411" y="536"/>
      <point x="421" y="508"/>
      <point x="421" y="412" type="curve" smooth="yes"/>
      <point x="421" y="274"/>
      <point x="373" y="0"/>
    </contour>
  </outline>
</glyph>
<glyph name="p" format="2">
  <advance width="672"/>
  <unicode hex="0070"/>
  <anchor x="106" y="-240" name="bottom"/>
  <anchor x="411" y="536" name="top"/>
  <anchor x="719" y="536" name="topright"/>
  <outline>
    <contour>
      <point x="-22" y="-240" type="line"/>
      <point x="279" y="-240" type="line"/>
      <point x="280" y="-230" type="line"/>
      <point x="233" y="-230" type="line" smooth="yes"/>
      <point x="195" y="-230"/>
      <point x="183" y="-224"/>
      <point x="183" y="-198" type="curve" smooth="yes"/>
      <point x="183" y="-188"/>
      <point x="184" y="-179"/>
      <point x="188" y="-157" type="curve" smooth="yes"/>
      <point x="212" y="-35" type="line" smooth="yes"/>
      <point x="216" y="-13"/>
      <point x="219" y="3"/>
      <point x="221" y="18" type="curve"/>
      <point x="242" y="0"/>
      <point x="270" y="-10"/>
      <point x="312" y="-10" type="curve" smooth="yes"/>
      <point x="529" y="-10"/>
      <point x="644" y="203"/>
      <point x="644" y="365" type="curve" smooth="yes"/>
      <point x="644" y="491"/>
      <point x="573" y="546"/>
      <point x="484" y="546" type="curve" smooth="yes"/>
      <point x="374" y="546"/>
      <point x="320" y="481"/>
      <point x="288" y="362" type="curve"/>
      <point x="282" y="362" type="line"/>
      <point x="313" y="536" type="line"/>
      <point x="67" y="536" type="line"/>
      <point x="65" y="526" type="line"/>
      <point x="92" y="526" type="line" smooth="yes"/>
      <point x="130" y="526"/>
      <point x="132" y="515"/>
      <point x="132" y="492" type="curve" smooth="yes"/>
      <point x="132" y="483"/>
      <point x="130" y="468"/>
      <point x="127" y="452" type="curve" smooth="yes"/>
    </contour>
    <contour>
      <point x="281" y="4" type="curve" smooth="yes"/>
      <point x="259" y="4"/>
      <point x="239" y="14"/>
      <point x="227" y="29" type="curve"/>
      <point x="295" y="347" type="line" smooth="yes"/>
      <point x="311" y="421"/>
      <point x="354" y="504"/>
      <point x="400" y="504" type="curve" smooth="yes"/>
      <point x="434" y="504"/>
      <point x="454" y="479"/>
      <point x="454" y="386" type="curve" smooth="yes"/>
      <point x="454" y="211"/>
      <point x="383" y="4"/>
    </contour>
  </outline>
</glyph>
<glyph name="q" format="2">
  <advance width="666"/>
  <unicode hex="0071"/>
  <anchor x="225" y="-240" name="bottom"/>
  <anchor x="390" y="536" name="top"/>
  <anchor x="711" y="536" name="topright"/>
  <outline>
    <contour>
      <point x="308" y="-240" type="line"/>
      <point x="578" y="-240" type="line"/>
      <point x="580" y="-229" type="line"/>
      <point x="532" y="-229" type="line" smooth="yes"/>
      <point x="502" y="-229"/>
      <point x="489" y="-217"/>
      <point x="489" y="-197" type="curve" smooth="yes"/>
      <point x="489" y="-186"/>
      <point x="493" y="-167"/>
      <point x="497" y="-149" type="curve" smooth="yes"/>
      <point x="643" y="546" type="line"/>
      <point x="582" y="546" type="line"/>
      <point x="471" y="518" type="line"/>
      <point x="445" y="533"/>
      <point x="417" y="546"/>
      <point x="350" y="546" type="curve" smooth="yes"/>
      <point x="119" y="546"/>
      <point x="29" y="315"/>
      <point x="29" y="173" type="curve" smooth="yes"/>
      <point x="29" y="78"/>
      <point x="74" y="-10"/>
      <point x="188" y="-10" type="curve" smooth="yes"/>
      <point x="275" y="-10"/>
      <point x="340" y="27"/>
      <point x="388" y="179" type="curve"/>
      <point x="394" y="179" type="line"/>
      <point x="387" y="148"/>
      <point x="360" y="22"/>
      <point x="348" y="-40" type="curve" smooth="yes"/>
    </contour>
    <contour>
      <point x="269" y="32" type="curve" smooth="yes"/>
      <point x="238" y="32"/>
      <point x="218" y="56"/>
      <point x="218" y="136" type="curve" smooth="yes"/>
      <point x="218" y="307"/>
      <point x="282" y="531"/>
      <point x="395" y="531" type="curve" smooth="yes"/>
      <point x="414" y="531"/>
      <point x="436" y="523"/>
      <point x="449" y="512" type="curve"/>
      <point x="395" y="250" type="line" smooth="yes"/>
      <point x="369" y="125"/>
      <point x="321" y="32"/>
    </contour>
  </outline>
</glyph>
<glyph name="r" format="2">
  <advance width="606"/>
  <unicode hex="0072"/>
  <anchor x="114" y="0" name="bottom"/>
  <anchor x="356" y="536" name="top"/>
  <anchor x="642" y="536" name="topright"/>
  <outline>
    <contour>
      <point x="25" y="0" type="line"/>
      <point x="221" y="0" type="line"/>
      <point x="284" y="282" type="line" smooth="yes"/>
      <point x="319" y="437"/>
      <point x="373" y="508"/>
      <point x="421" y="508" type="curve" smooth="yes"/>
      <point x="453" y="508"/>
      <point x="472" y="496"/>
      <point x="472" y="418" type="curve" smooth="yes"/>
      <point x="472" y="397"/>
      <point x="471" y="370"/>
      <point x="468" y="338" type="curve"/>
      <point x="558" y="338"/>
      <point x="612" y="374"/>
      <point x="612" y="454" type="curve" smooth="yes"/>
      <point x="612" y="517"/>
      <point x="572" y="546"/>
      <point x="490" y="546" type="curve" smooth="yes"/>
      <point x="405" y="546"/>
      <point x="343" y="508"/>
      <point x="299" y="368" type="curve"/>
      <point x="296" y="368" type="line"/>
      <point x="321" y="536" type="line"/>
      <point x="67" y="536" type="line"/>
      <point x="65" y="526" type="line"/>
      <point x="94" y="526" type="line" smooth="yes"/>
      <point x="122" y="526"/>
      <point x="127" y="514"/>
      <point x="127" y="500" type="curve" smooth="yes"/>
      <point x="127" y="480"/>
      <point x="123" y="464"/>
      <point x="119" y="444" type="curve" smooth="yes"/>
    </contour>
  </outline>
</glyph>
<glyph name="s" format="2">
  <advance width="551"/>
  <unicode hex="0073"/>
  <anchor x="219" y="0" name="bottom"/>
  <anchor x="333" y="536" name="top"/>
  <anchor x="588" y="536" name="topright"/>
  <outline>
    <contour>
      <point x="218" y="-10" type="curve" smooth="yes"/>
      <point x="401" y="-10"/>
      <point x="487" y="68"/>
      <point x="487" y="171" type="curve" smooth="yes"/>
      <point x="487" y="242"/>
      <point x="454" y="288"/>
      <point x="343" y="339" type="curve" smooth="yes"/>
      <point x="241" y="385"/>
      <point x="226" y="403"/>
      <point x="226" y="447" type="curve" smooth="yes"/>
      <point x="226" y="502"/>
      <point x="266" y="536"/>
      <point x="309" y="536" type="curve" smooth="yes"/>
      <point x="361" y="536"/>
      <point x="383" y="501"/>
      <point x="383" y="429" type="curve" smooth="yes"/>
      <point x="383" y="410"/>
      <point x="382" y="390"/>
      <point x="379" y="367" type="curve"/>
      <point x="469" y="367"/>
      <point x="524" y="392"/>
      <point x="524" y="453" type="curve" smooth="yes"/>
      <point x="524" y="504"/>
      <point x="482" y="546"/>
      <point x="321" y="546" type="curve" smooth="yes"/>
      <point x="165" y="546"/>
      <point x="71" y="486"/>
      <point x="71" y="380" type="curve" smooth="yes"/>
      <point x="71" y="304"/>
      <point x="122" y="254"/>
      <point x="219" y="211" type="curve" smooth="yes"/>
      <point x="321" y="166"/>
      <point x="339" y="144"/>
      <point x="339" y="87" type="curve" smooth="yes"/>
      <point x="339" y="35"/>
      <point x="305" y="0"/>
      <point x="254" y="0" type="curve" smooth="yes"/>
      <point x="195" y="0"/>
      <point x="148" y="35"/>
      <point x="148" y="150" type="curve" smooth="yes"/>
      <point x="148" y="164"/>
      <point x="148" y="180"/>
      <point x="150" y="197" type="curve"/>
      <point x="61" y="197"/>
      <point x="11" y="166"/>
      <point x="11" y="98" type="curve" smooth="yes"/>
      <point x="11" y="30"/>
      <point x="84" y="-10"/>
    </contour>
  </outline>
</glyph>
<glyph name="t" format="2">
  <advance width="451"/>
  <unicode hex="0074"/>
  <anchor x="170" y="0" name="bottom"/>
  <anchor x="284" y="268" name="center"/>
  <anchor x="310" y="659" name="top"/>
  <anchor x="500" y="659" name="topright"/>
  <outline>
    <contour>
      <point x="207" y="-10" type="curve" smooth="yes"/>
      <point x="304" y="-10"/>
      <point x="363" y="31"/>
      <point x="410" y="76" type="curve"/>
      <point x="404" y="84" type="line"/>
      <point x="368" y="49"/>
      <point x="317" y="20"/>
      <point x="284" y="20" type="curve" smooth="yes"/>
      <point x="260" y="20"/>
      <point x="242" y="34"/>
      <point x="242" y="62" type="curve" smooth="yes"/>
      <point x="242" y="80"/>
      <point x="245" y="102"/>
      <point x="252" y="134" type="curve" smooth="yes"/>
      <point x="340" y="526" type="line"/>
      <point x="463" y="526" type="line"/>
      <point x="465" y="536" type="line"/>
      <point x="344" y="536" type="line"/>
      <point x="370" y="659" type="line"/>
      <point x="360" y="659" type="line"/>
      <point x="299" y="587"/>
      <point x="154" y="532"/>
      <point x="67" y="532" type="curve"/>
      <point x="66" y="526" type="line"/>
      <point x="144" y="526" type="line"/>
      <point x="71" y="191" type="line" smooth="yes"/>
      <point x="66" y="166"/>
      <point x="61" y="133"/>
      <point x="61" y="109" type="curve" smooth="yes"/>
      <point x="61" y="30"/>
      <point x="129" y="-10"/>
    </contour>
  </outline>
</glyph>
<glyph name="x" format="2">
  <advance width="633"/>
  <unicode hex="0078"/>
  <anchor x="265" y="0" name="bottom"/>
  <anchor x="379" y="536" name="top"/>
  <anchor x="682" y="536" name="topright"/>
  <outline>
    <contour>
      <point x="-25" y="0" type="line"/>
      <point x="64" y="0" type="line"/>
      <point x="244" y="222" type="line"/>
      <point x="327" y="0" type="line"/>
      <point x="566" y="0" type="line"/>
      <point x="568" y="10" type="line"/>
      <point x="560" y="10" type="line" smooth="yes"/>
      <point x="543" y="10"/>
      <point x="534" y="14"/>
      <point x="504" y="80" type="curve" smooth="yes"/>
      <point x="388" y="331" type="line"/>
      <point x="499" y="459" type="line" smooth="yes"/>
      <point x="548" y="515"/>
      <point x="580" y="526"/>
      <point x="628" y="526" type="curve" smooth="yes"/>
      <point x="639" y="526" type="line"/>
      <point x="641" y="536" type="line"/>
      <point x="545" y="536" type="line"/>
      <point x="382" y="340" type="line"/>
      <point x="310" y="536" type="line"/>
      <point x="82" y="536" type="line"/>
      <point x="80" y="526" type="line"/>
      <point x="91" y="526" type="line" smooth="yes"/>
      <point x="115" y="526"/>
      <point x="121" y="516"/>
      <point x="133" y="488" type="curve" smooth="yes"/>
      <point x="240" y="233" type="line"/>
      <point x="98" y="61" type="line" smooth="yes"/>
      <point x="66" y="23"/>
      <point x="39" y="10"/>
      <point x="-16" y="10" type="curve" smooth="yes"/>
      <point x="-24" y="10" type="line"/>
    </contour>
  </outline>
</glyph>
<glyph name="y" format="2">
  <advance width="595"/>
  <unicode hex="0079"/>
  <anchor x="71" y="-240" name="bottom"/>
  <anchor x="336" y="536" name="top"/>
  <anchor x="640" y="536" name="topright"/>
  <outline>
    <contour>
      <point x="-53" y="-240" type="curve" smooth="yes"/>
      <point x="162" y="-240"/>
      <point x="236" y="-133"/>
      <point x="398" y="67" type="curve" smooth="yes"/>
      <point x="505" y="199"/>
      <point x="579" y="344"/>
      <point x="579" y="458" type="curve" smooth="yes"/>
      <point x="579" y="508"/>
      <point x="550" y="546"/>
      <point x="494" y="546" type="curve" smooth="yes"/>
      <point x="453" y="546"/>
      <point x="417" y="517"/>
      <point x="417" y="463" type="curve"/>
      <point x="458" y="463"/>
      <point x="518" y="450"/>
      <point x="518" y="366" type="curve" smooth="yes"/>
      <point x="518" y="260"/>
      <point x="476" y="173"/>
      <point x="353" y="25" type="curve"/>
      <point x="350" y="25" type="line"/>
      <point x="345" y="58"/>
      <point x="329" y="158"/>
      <point x="318" y="210" type="curve" smooth="yes"/>
      <point x="249" y="536" type="line"/>
      <point x="16" y="536" type="line"/>
      <point x="13" y="526" type="line"/>
      <point x="23" y="526" type="line" smooth="yes"/>
      <point x="49" y="526"/>
      <point x="60" y="513"/>
      <point x="70" y="473" type="curve" smooth="yes"/>
      <point x="219" y="-124" type="line"/>
      <point x="146" y="-194"/>
      <point x="63" y="-230"/>
      <point x="-53" y="-230" type="curve" smooth="yes"/>
      <point x="-106" y="-230"/>
      <point x="-139" y="-220"/>
      <point x="-166" y="-211" type="curve"/>
      <point x="-169" y="-222" type="line"/>
      <point x="-139" y="-233"/>
      <point x="-98" y="-240"/>
    </contour>
  </outline>
</glyph>
<glyph name="braceright" format="2">
  <advance width="451"/>
  <unicode hex="007D"/>
  <outline>
    <contour>
      <point x="-74" y="-121" type="line"/>
      <point x="43" y="-121" type="line" smooth="yes"/>
      <point x="172" y="-121"/>
      <point x="243" y="-82"/>
      <point x="265" y="26" type="curve" smooth="yes"/>
      <point x="306" y="228" type="line" smooth="yes"/>
      <point x="320" y="298"/>
      <point x="361" y="312"/>
      <point x="439" y="312" type="curve"/>
      <point x="441" y="322" type="line"/>
      <point x="385" y="324"/>
      <point x="345" y="332"/>
      <point x="342" y="380" type="curve" smooth="yes"/>
      <point x="341" y="390"/>
      <point x="343" y="401"/>
      <point x="346" y="416" type="curve" smooth="yes"/>
      <point x="377" y="556" type="line" smooth="yes"/>
      <point x="392" y="622"/>
      <point x="391" y="636"/>
      <point x="391" y="647" type="curve" smooth="yes"/>
      <point x="391" y="717"/>
      <point x="338" y="762"/>
      <point x="230" y="762" type="curve" smooth="yes"/>
      <point x="114" y="762" type="line"/>
      <point x="111" y="752" type="line"/>
      <point x="156" y="752" type="line" smooth="yes"/>
      <point x="194" y="752"/>
      <point x="208" y="733"/>
      <point x="208" y="708" type="curve" smooth="yes"/>
      <point x="208" y="690"/>
      <point x="205" y="677"/>
      <point x="201" y="660" type="curve" smooth="yes"/>
      <point x="157" y="464" type="line" smooth="yes"/>
      <point x="155" y="455"/>
      <point x="154" y="447"/>
      <point x="154" y="439" type="curve" smooth="yes"/>
      <point x="154" y="397"/>
      <point x="183" y="330"/>
      <point x="334" y="324" type="curve"/>
      <point x="332" y="319" type="line"/>
      <point x="165" y="310"/>
      <point x="115" y="255"/>
      <point x="98" y="179" type="curve" smooth="yes"/>
      <point x="49" y="-37" type="line" smooth="yes"/>
      <point x="37" y="-90"/>
      <point x="27" y="-111"/>
      <point x="-28" y="-111" type="curve" smooth="yes"/>
      <point x="-74" y="-111" type="line"/>
    </contour>
  </outline>
</glyph>
<glyph name="cent" format="2">
  <advance width="559"/>
  <unicode hex="00A2"/>
  <anchor x="289" y="93" name="bottom"/>
  <anchor x="403" y="629" name="top"/>
  <anchor x="632" y="629" name="topright"/>
  <outline>
    <contour>
      <point x="289" y="0" type="line"/>
      <point x="299" y="0" type="line"/>
      <point x="430" y="714" type="line"/>
      <point x="420" y="714" type="line"/>
    </contour>
    <component base="c" xOffset="37" yOffset="93"/>
  </outline>
</glyph>
<glyph name="sterling" format="2">
  <advance width="559"/>
  <unicode hex="00A3"/>
  <outline>
    <contour>
      <point x="395" y="-10" type="curve" smooth="yes"/>
      <point x="462" y="-10"/>
      <point x="545" y="58"/>
      <point x="576" y="91" type="curve"/>
      <point x="572" y="97" type="line"/>
      <point x="539" y="70"/>
      <point x="524" y="63"/>
      <point x="491" y="63" type="curve" smooth="yes"/>
      <point x="395" y="63"/>
      <point x="379" y="140"/>
      <point x="300" y="140" type="curve" smooth="yes"/>
      <point x="252" y="140"/>
      <point x="224" y="132"/>
      <point x="158" y="99" type="curve"/>
      <point x="157" y="103" type="line"/>
      <point x="289" y="182"/>
      <point x="321" y="231"/>
      <point x="321" y="316" type="curve" smooth="yes"/>
      <point x="321" y="332"/>
      <point x="318" y="375"/>
      <point x="317" y="389" type="curve"/>
      <point x="498" y="388" type="line"/>
      <point x="500" y="399" type="line"/>
      <point x="316" y="399" type="line"/>
      <point x="310" y="469"/>
      <point x="310" y="532"/>
      <point x="310" y="567" type="curve" smooth="yes"/>
      <point x="310" y="660"/>
      <point x="337" y="714"/>
      <point x="386" y="714" type="curve" smooth="yes"/>
      <point x="420" y="714"/>
      <point x="441" y="686"/>
      <point x="441" y="512" type="curve"/>
      <point x="541" y="512"/>
      <point x="597" y="545"/>
      <point x="597" y="607" type="curve" smooth="yes"/>
      <point x="597" y="671"/>
      <point x="532" y="724"/>
      <point x="415" y="724" type="curve" smooth="yes"/>
      <point x="251" y="724"/>
      <point x="143" y="647"/>
      <point x="143" y="512" type="curve" smooth="yes"/>
      <point x="143" y="465"/>
      <point x="151" y="422"/>
      <point x="153" y="399" type="curve"/>
      <point x="57" y="399" type="line"/>
      <point x="55" y="388" type="line"/>
      <point x="154" y="388" type="line"/>
      <point x="157" y="366"/>
      <point x="164" y="293"/>
      <point x="163" y="260" type="curve" smooth="yes"/>
      <point x="158" y="134"/>
      <point x="146" y="106"/>
      <point x="40" y="40" type="curve" smooth="yes"/>
      <point x="8" y="20" type="line"/>
      <point x="11" y="12" type="line"/>
      <point x="72" y="45" type="line" smooth="yes"/>
      <point x="122" y="71"/>
      <point x="154" y="77"/>
      <point x="181" y="78" type="curve" smooth="yes"/>
      <point x="266" y="82"/>
      <point x="294" y="-10"/>
    </contour>
  </outline>
</glyph>
<glyph name="yen" format="2">
  <advance width="559"/>
  <unicode hex="00A5"/>
  <outline>
    <contour>
      <point x="25" y="0" type="line"/>
      <point x="421" y="0" type="line"/>
      <point x="423" y="10" type="line"/>
      <point x="398" y="10" type="line" smooth="yes"/>
      <point x="356" y="10"/>
      <point x="327" y="14"/>
      <point x="327" y="40" type="curve" smooth="yes"/>
      <point x="327" y="52"/>
      <point x="330" y="66"/>
      <point x="334" y="86" type="curve" smooth="yes"/>
      <point x="362" y="214" type="line"/>
      <point x="503" y="214" type="line"/>
      <point x="505" y="224" type="line"/>
      <point x="364" y="224" type="line"/>
      <point x="381" y="303" type="line"/>
      <point x="519" y="303" type="line"/>
      <point x="521" y="313" type="line"/>
      <point x="384" y="313" type="line"/>
      <point x="528" y="626" type="line" smooth="yes"/>
      <point x="554" y="683"/>
      <point x="593" y="704"/>
      <point x="638" y="704" type="curve" smooth="yes"/>
      <point x="641" y="704" type="line"/>
      <point x="643" y="714" type="line"/>
      <point x="435" y="714" type="line"/>
      <point x="433" y="704" type="line"/>
      <point x="453" y="704" type="line" smooth="yes"/>
      <point x="507" y="704"/>
      <point x="521" y="694"/>
      <point x="521" y="666" type="curve" smooth="yes"/>
      <point x="521" y="655"/>
      <point x="518" y="629"/>
      <point x="506" y="603" type="curve" smooth="yes"/>
      <point x="409" y="391" type="line" smooth="yes"/>
      <point x="396" y="362"/>
      <point x="381" y="332"/>
      <point x="376" y="313" type="curve"/>
      <point x="373" y="346"/>
      <point x="363" y="420"/>
      <point x="357" y="462" type="curve" smooth="yes"/>
      <point x="338" y="606" type="line" smooth="yes"/>
      <point x="332" y="649"/>
      <point x="330" y="664"/>
      <point x="330" y="678" type="curve" smooth="yes"/>
      <point x="330" y="696"/>
      <point x="338" y="704"/>
      <point x="366" y="704" type="curve" smooth="yes"/>
      <point x="392" y="704" type="line"/>
      <point x="394" y="714" type="line"/>
      <point x="96" y="714" type="line"/>
      <point x="94" y="704" type="line"/>
      <point x="103" y="704" type="line" smooth="yes"/>
      <point x="134" y="704"/>
      <point x="146" y="692"/>
      <point x="151" y="651" type="curve" smooth="yes"/>
      <point x="194" y="313" type="line"/>
      <point x="53" y="313" type="line"/>
      <point x="51" y="303" type="line"/>
      <point x="194" y="303" type="line"/>
      <point x="178" y="224" type="line"/>
      <point x="37" y="224" type="line"/>
      <point x="36" y="214" type="line"/>
      <point x="176" y="214" type="line"/>
      <point x="144" y="67" type="line" smooth="yes"/>
      <point x="134" y="21"/>
      <point x="97" y="10"/>
      <point x="57" y="10" type="curve" smooth="yes"/>
      <point x="27" y="10" type="line"/>
    </contour>
  </outline>
</glyph>
<glyph name="dieresis" format="2">
  <advance width="577"/>
  <unicode hex="00A8"/>
  <outline>
    <contour>
      <point x="485" y="612" type="curve" smooth="yes"/>
      <point x="517" y="612"/>
      <point x="552" y="635"/>
      <point x="552" y="702" type="curve" smooth="yes"/>
      <point x="552" y="748"/>
      <point x="526" y="771"/>
      <point x="490" y="771" type="curve" smooth="yes"/>
      <point x="447" y="771"/>
      <point x="422" y="735"/>
      <point x="422" y="681" type="curve" smooth="yes"/>
      <point x="422" y="635"/>
      <point x="446" y="612"/>
    </contour>
    <contour>
      <point x="266" y="612" type="curve" smooth="yes"/>
      <point x="299" y="612"/>
      <point x="334" y="635"/>
      <point x="334" y="702" type="curve" smooth="yes"/>
      <point x="334" y="748"/>
      <point x="309" y="771"/>
      <point x="271" y="771" type="curve" smooth="yes"/>
      <point x="230" y="771"/>
      <point x="204" y="735"/>
      <point x="204" y="681" type="curve" smooth="yes"/>
      <point x="204" y="635"/>
      <point x="228" y="612"/>
    </contour>
  </outline>
</glyph>
<glyph name="registered" format="2">
  <advance width="845"/>
  <unicode hex="00AE"/>
  <outline>
    <contour>
      <point x="441" y="-10" type="curve" smooth="yes"/>
      <point x="655" y="-10"/>
      <point x="809" y="134"/>
      <point x="809" y="357" type="curve" smooth="yes"/>
      <point x="809" y="581"/>
      <point x="655" y="725"/>
      <point x="441" y="725" type="curve" smooth="yes"/>
      <point x="227" y="725"/>
      <point x="74" y="580"/>
      <point x="74" y="358" type="curve" smooth="yes"/>
      <point x="74" y="134"/>
      <point x="228" y="-10"/>
    </contour>
    <contour>
      <point x="442" y="0" type="curve" smooth="yes"/>
      <point x="239" y="0"/>
      <point x="85" y="133"/>
      <point x="85" y="357" type="curve" smooth="yes"/>
      <point x="85" y="577"/>
      <point x="236" y="715"/>
      <point x="442" y="715" type="curve" smooth="yes"/>
      <point x="649" y="715"/>
      <point x="798" y="571"/>
      <point x="798" y="358" type="curve" smooth="yes"/>
      <point x="798" y="141"/>
      <point x="652" y="0"/>
    </contour>
    <contour>
      <point x="251" y="141" type="line"/>
      <point x="454" y="141" type="line"/>
      <point x="454" y="151" type="line"/>
      <point x="440" y="151" type="line" smooth="yes"/>
      <point x="414" y="151"/>
      <point x="391" y="155"/>
      <point x="391" y="186" type="curve" smooth="yes"/>
      <point x="391" y="341" type="line"/>
      <point x="435" y="341" type="line"/>
      <point x="550" y="141" type="line"/>
      <point x="655" y="141" type="line"/>
      <point x="655" y="151" type="line"/>
      <point x="645" y="151"/>
      <point x="634" y="153"/>
      <point x="626" y="166" type="curve" smooth="yes"/>
      <point x="518" y="352" type="line"/>
      <point x="566" y="368"/>
      <point x="610" y="405"/>
      <point x="610" y="468" type="curve" smooth="yes"/>
      <point x="610" y="531"/>
      <point x="552" y="579"/>
      <point x="434" y="579" type="curve" smooth="yes"/>
      <point x="251" y="579" type="line"/>
      <point x="251" y="569" type="line"/>
      <point x="264" y="569" type="line" smooth="yes"/>
      <point x="287" y="569"/>
      <point x="308" y="565"/>
      <point x="308" y="534" type="curve" smooth="yes"/>
      <point x="308" y="186" type="line" smooth="yes"/>
      <point x="308" y="155"/>
      <point x="287" y="151"/>
      <point x="264" y="151" type="curve" smooth="yes"/>
      <point x="251" y="151" type="line"/>
    </contour>
    <contour>
      <point x="433" y="351" type="curve" smooth="yes"/>
      <point x="391" y="351" type="line"/>
      <point x="391" y="569" type="line"/>
      <point x="430" y="569" type="line" smooth="yes"/>
      <point x="496" y="569"/>
      <point x="522" y="526"/>
      <point x="522" y="470" type="curve" smooth="yes"/>
      <point x="522" y="398"/>
      <point x="501" y="351"/>
    </contour>
  </outline>
</glyph>
<glyph name="overscore" format="2">
  <advance width="459"/>
  <unicode hex="00AF"/>
  <outline>
    <contour>
      <point x="101" y="760" type="line"/>
      <point x="569" y="760" type="line"/>
      <point x="573" y="780" type="line"/>
      <point x="105" y="780" type="line"/>
    </contour>
  </outline>
</glyph>
<glyph name="twosuperior" format="2">
  <advance width="400"/>
  <unicode hex="00B2"/>
  <outline>
    <contour>
      <point x="59" y="386" type="line"/>
      <point x="393" y="386" type="line"/>
      <point x="421" y="541" type="line"/>
      <point x="411" y="541" type="line"/>
      <point x="403" y="511" type="line" smooth="yes"/>
      <point x="397" y="488"/>
      <point x="381" y="479"/>
      <point x="350" y="479" type="curve" smooth="yes"/>
      <point x="113" y="479" type="line"/>
      <point x="274" y="569" type="line" smooth="yes"/>
      <point x="407" y="643"/>
      <point x="448" y="671"/>
      <point x="448" y="736" type="curve" smooth="yes"/>
      <point x="448" y="787"/>
      <point x="394" y="824"/>
      <point x="308" y="824" type="curve" smooth="yes"/>
      <point x="210" y="824"/>
      <point x="149" y="784"/>
      <point x="149" y="727" type="curve" smooth="yes"/>
      <point x="149" y="695"/>
      <point x="182" y="673"/>
      <point x="234" y="673" type="curve"/>
      <point x="252" y="786"/>
      <point x="268" y="814"/>
      <point x="298" y="814" type="curve" smooth="yes"/>
      <point x="322" y="814"/>
      <point x="327" y="797"/>
      <point x="327" y="759" type="curve" smooth="yes"/>
      <point x="327" y="656"/>
      <point x="290" y="610"/>
      <point x="212" y="557" type="curve" smooth="yes"/>
      <point x="75" y="464" type="line"/>
    </contour>
  </outline>
</glyph>
<glyph name="threesuperior" format="2">
  <advance width="400"/>
  <unicode hex="00B3"/>
  <outline>
    <contour>
      <point x="224" y="380" type="curve" smooth="yes"/>
      <point x="340" y="380"/>
      <point x="428" y="428"/>
      <point x="428" y="518" type="curve" smooth="yes"/>
      <point x="428" y="580"/>
      <point x="374" y="605"/>
      <point x="287" y="607" type="curve"/>
      <point x="288" y="612" type="line"/>
      <point x="395" y="629"/>
      <point x="453" y="657"/>
      <point x="453" y="733" type="curve" smooth="yes"/>
      <point x="453" y="783"/>
      <point x="408" y="824"/>
      <point x="311" y="824" type="curve" smooth="yes"/>
      <point x="211" y="824"/>
      <point x="151" y="784"/>
      <point x="151" y="737" type="curve" smooth="yes"/>
      <point x="151" y="705"/>
      <point x="187" y="688"/>
      <point x="243" y="688" type="curve"/>
      <point x="263" y="794"/>
      <point x="273" y="814"/>
      <point x="305" y="814" type="curve" smooth="yes"/>
      <point x="332" y="814"/>
      <point x="335" y="787"/>
      <point x="335" y="750" type="curve" smooth="yes"/>
      <point x="335" y="651"/>
      <point x="287" y="613"/>
      <point x="232" y="613" type="curve" smooth="yes"/>
      <point x="197" y="613" type="line"/>
      <point x="195" y="603" type="line"/>
      <point x="228" y="603" type="line" smooth="yes"/>
      <point x="291" y="603"/>
      <point x="315" y="566"/>
      <point x="315" y="494" type="curve" smooth="yes"/>
      <point x="315" y="417"/>
      <point x="272" y="390"/>
      <point x="228" y="390" type="curve" smooth="yes"/>
      <point x="167" y="390"/>
      <point x="152" y="441"/>
      <point x="152" y="523" type="curve"/>
      <point x="102" y="523"/>
      <point x="65" y="500"/>
      <point x="65" y="464" type="curve" smooth="yes"/>
      <point x="65" y="412"/>
      <point x="117" y="380"/>
    </contour>
  </outline>
</glyph>
<glyph name="micro" format="2">
  <advance width="731"/>
  <unicode hex="00B5"/>
  <outline>
    <contour>
      <point x="91" y="-240" type="curve" smooth="yes"/>
      <point x="140" y="-240"/>
      <point x="197" y="-212"/>
      <point x="209" y="-153" type="curve"/>
      <point x="89" y="-153"/>
      <point x="40" y="-130"/>
      <point x="40" y="-56" type="curve" smooth="yes"/>
      <point x="40" y="2"/>
      <point x="63" y="80"/>
      <point x="78" y="132" type="curve"/>
      <point x="92" y="76"/>
      <point x="107" y="-10"/>
      <point x="253" y="-10" type="curve" smooth="yes"/>
      <point x="323" y="-10"/>
      <point x="377" y="25"/>
      <point x="405" y="140" type="curve"/>
      <point x="410" y="140" type="line"/>
      <point x="410" y="41"/>
      <point x="433" y="-10"/>
      <point x="557" y="-10" type="curve" smooth="yes"/>
      <point x="644" y="-10"/>
      <point x="698" y="30"/>
      <point x="733" y="76" type="curve"/>
      <point x="727" y="83" type="line"/>
      <point x="695" y="43"/>
      <point x="656" y="16"/>
      <point x="628" y="16" type="curve" smooth="yes"/>
      <point x="602" y="16"/>
      <point x="589" y="31"/>
      <point x="589" y="69" type="curve" smooth="yes"/>
      <point x="589" y="99"/>
      <point x="595" y="136"/>
      <point x="604" y="179" type="curve" smooth="yes"/>
      <point x="679" y="536" type="line"/>
      <point x="484" y="536" type="line"/>
      <point x="415" y="217" type="line" smooth="yes"/>
      <point x="383" y="68"/>
      <point x="351" y="15"/>
      <point x="295" y="15" type="curve" smooth="yes"/>
      <point x="268" y="15"/>
      <point x="254" y="34"/>
      <point x="254" y="75" type="curve" smooth="yes"/>
      <point x="254" y="98"/>
      <point x="258" y="113"/>
      <point x="265" y="146" type="curve" smooth="yes"/>
      <point x="350" y="536" type="line"/>
      <point x="155" y="536" type="line"/>
      <point x="89" y="225" type="line" smooth="yes"/>
      <point x="47" y="25"/>
      <point x="-2" y="-74"/>
      <point x="-2" y="-153" type="curve" smooth="yes"/>
      <point x="-2" y="-218"/>
      <point x="43" y="-240"/>
    </contour>
  </outline>
</glyph>
<glyph name="paragraph" format="2">
  <advance width="634"/>
  <unicode hex="00B6"/>
  <outline>
    <contour>
      <point x="205" y="-111" type="line"/>
      <point x="380" y="-111" type="line"/>
      <point x="380" y="750" type="line"/>
      <point x="456" y="750" type="line"/>
      <point x="456" y="-111" type="line"/>
      <point x="631" y="-111" type="line"/>
      <point x="631" y="-101" type="line"/>
      <point x="618" y="-101" type="line" smooth="yes"/>
      <point x="573" y="-101"/>
      <point x="536" y="-94"/>
      <point x="536" y="-31" type="curve" smooth="yes"/>
      <point x="536" y="678" type="line" smooth="yes"/>
      <point x="536" y="741"/>
      <point x="573" y="750"/>
      <point x="618" y="750" type="curve" smooth="yes"/>
      <point x="631" y="750" type="line"/>
      <point x="631" y="760" type="line"/>
      <point x="231" y="760" type="line" smooth="yes"/>
      <point x="118" y="760"/>
      <point x="76" y="689"/>
      <point x="76" y="582" type="curve" smooth="yes"/>
      <point x="76" y="478"/>
      <point x="112" y="386"/>
      <point x="229" y="386" type="curve" smooth="yes"/>
      <point x="300" y="386" type="line"/>
      <point x="300" y="-31" type="line" smooth="yes"/>
      <point x="300" y="-94"/>
      <point x="263" y="-101"/>
      <point x="218" y="-101" type="curve" smooth="yes"/>
      <point x="205" y="-101" type="line"/>
    </contour>
  </outline>
</glyph>
<glyph name="periodcentered" format="2">
  <advance width="317"/>
  <unicode hex="00B7"/>
  <outline>
    <contour>
      <point x="168" y="264" type="curve" smooth="yes"/>
      <point x="213" y="264"/>
      <point x="265" y="291"/>
      <point x="265" y="369" type="curve" smooth="yes"/>
      <point x="265" y="420"/>
      <point x="232" y="444"/>
      <point x="185" y="444" type="curve" smooth="yes"/>
      <point x="127" y="444"/>
      <point x="88" y="401"/>
      <point x="88" y="338" type="curve" smooth="yes"/>
      <point x="88" y="288"/>
      <point x="120" y="264"/>
    </contour>
  </outline>
</glyph>
<glyph name="onesuperior" format="2">
  <advance width="400"/>
  <unicode hex="00B9"/>
  <outline>
    <contour>
      <point x="79" y="387" type="line"/>
      <point x="374" y="387" type="line"/>
      <point x="377" y="397" type="line"/>
      <point x="340" y="397" type="line" smooth="yes"/>
      <point x="317" y="397"/>
      <point x="298" y="400"/>
      <point x="298" y="424" type="curve" smooth="yes"/>
      <point x="298" y="430"/>
      <point x="300" y="437"/>
      <point x="302" y="447" type="curve" smooth="yes"/>
      <point x="378" y="819" type="line"/>
      <point x="327" y="819" type="line"/>
      <point x="282" y="777"/>
      <point x="203" y="737"/>
      <point x="140" y="737" type="curve"/>
      <point x="141" y="708"/>
      <point x="150" y="682"/>
      <point x="175" y="682" type="curve" smooth="yes"/>
      <point x="205" y="682"/>
      <point x="228" y="711"/>
      <point x="258" y="759" type="curve"/>
      <point x="260" y="759" type="line"/>
      <point x="193" y="435" type="line" smooth="yes"/>
      <point x="186" y="401"/>
      <point x="164" y="397"/>
      <point x="137" y="397" type="curve" smooth="yes"/>
      <point x="82" y="397" type="line"/>
    </contour>
  </outline>
</glyph>
<glyph name="ordmasculine" format="2">
  <advance width="414"/>
  <unicode hex="00BA"/>
  <anchor x="232" y="388" name="bottom"/>
  <anchor x="308" y="724" name="top"/>
  <outline>
    <contour>
      <point x="229" y="381" type="curve" smooth="yes"/>
      <point x="395" y="381"/>
      <point x="470" y="512"/>
      <point x="470" y="596" type="curve" smooth="yes"/>
      <point x="470" y="682"/>
      <point x="397" y="720"/>
      <point x="308" y="720" type="curve" smooth="yes"/>
      <point x="149" y="720"/>
      <point x="65" y="598"/>
      <point x="65" y="508" type="curve" smooth="yes"/>
      <point x="65" y="425"/>
      <point x="130" y="381"/>
    </contour>
    <contour>
      <point x="244" y="391" type="curve" smooth="yes"/>
      <point x="212" y="391"/>
      <point x="196" y="416"/>
      <point x="196" y="507" type="curve" smooth="yes"/>
      <point x="196" y="639"/>
      <point x="252" y="710"/>
      <point x="301" y="710" type="curve" smooth="yes"/>
      <point x="338" y="710"/>
      <point x="345" y="682"/>
      <point x="345" y="592" type="curve" smooth="yes"/>
      <point x="345" y="472"/>
      <point x="306" y="391"/>
    </contour>
  </outline>
</glyph>
<glyph name="Aring" format="2">
  <advance width="788"/>
  <unicode hex="00C5"/>
  <anchor x="337" y="0" name="bottom"/>
  <anchor x="526" y="910" name="top"/>
  <anchor x="863" y="714" name="topright"/>
  <outline>
    <contour>
      <point x="-44" y="0" type="line"/>
      <point x="203" y="0" type="line"/>
      <point x="205" y="10" type="line"/>
      <point x="161" y="10" type="line" smooth="yes"/>
      <point x="115" y="10"/>
      <point x="98" y="15"/>
      <point x="98" y="33" type="curve" smooth="yes"/>
      <point x="98" y="47"/>
      <point x="104" y="61"/>
      <point x="126" y="102" type="curve" smooth="yes"/>
      <point x="351" y="524" type="line" smooth="yes"/>
      <point x="383" y="585"/>
      <point x="402" y="618"/>
      <point x="420" y="657" type="curve"/>
      <point x="421" y="609"/>
      <point x="424" y="574"/>
      <point x="430" y="515" type="curve" smooth="yes"/>
      <point x="473" y="76" type="line" smooth="yes"/>
      <point x="474" y="65"/>
      <point x="475" y="56"/>
      <point x="475" y="45" type="curve" smooth="yes"/>
      <point x="475" y="19"/>
      <point x="449" y="10"/>
      <point x="406" y="10" type="curve" smooth="yes"/>
      <point x="367" y="10" type="line"/>
      <point x="365" y="0" type="line"/>
      <point x="738" y="0" type="line"/>
      <point x="741" y="10" type="line"/>
      <point x="736" y="10" type="line" smooth="yes"/>
      <point x="694" y="10"/>
      <point x="684" y="22"/>
      <point x="674" y="97" type="curve" smooth="yes"/>
      <point x="590" y="722" type="line"/>
      <point x="544" y="709" type="line"/>
      <point x="496" y="709" type="line"/>
      <point x="448" y="729" type="line"/>
      <point x="107" y="88" type="line" smooth="yes"/>
      <point x="73" y="24"/>
      <point x="41" y="10"/>
      <point x="5" y="10" type="curve" smooth="yes"/>
      <point x="-42" y="10" type="line"/>
    </contour>
    <contour>
      <point x="209" y="264" type="line"/>
      <point x="562" y="264" type="line"/>
      <point x="562" y="274" type="line"/>
      <point x="209" y="274" type="line"/>
    </contour>
    <component base="ring" xOffset="269" yOffset="121"/>
  </outline>
</glyph>
<glyph name="AE" format="2">
  <advance width="1001"/>
  <unicode hex="00C6"/>
  <anchor x="433" y="0" name="bottom"/>
  <anchor x="675" y="714" name="top"/>
  <outline>
    <contour>
      <point x="-55" y="0" type="line"/>
      <point x="201" y="0" type="line"/>
      <point x="203" y="10" type="line"/>
      <point x="159" y="10" type="line" smooth="yes"/>
      <point x="124" y="10"/>
      <point x="101" y="22"/>
      <point x="101" y="42" type="curve" smooth="yes"/>
      <point x="101" y="58"/>
      <point x="104" y="69"/>
      <point x="125" y="102" type="curve" smooth="yes"/>
      <point x="232" y="265" type="line"/>
      <point x="460" y="265" type="line"/>
      <point x="418" y="65" type="line" smooth="yes"/>
      <point x="408" y="19"/>
      <point x="371" y="10"/>
      <point x="330" y="10" type="curve" smooth="yes"/>
      <point x="317" y="10" type="line"/>
      <point x="315" y="0" type="line"/>
      <point x="917" y="0" type="line"/>
      <point x="965" y="194" type="line"/>
      <point x="955" y="194" type="line"/>
      <point x="938" y="145" type="line" smooth="yes"/>
      <point x="915" y="77"/>
      <point x="857" y="10"/>
      <point x="745" y="10" type="curve" smooth="yes"/>
      <point x="605" y="10" type="line"/>
      <point x="683" y="372" type="line"/>
      <point x="900" y="372" type="line"/>
      <point x="901" y="382" type="line"/>
      <point x="685" y="382" type="line"/>
      <point x="753" y="704" type="line"/>
      <point x="886" y="704" type="line" smooth="yes"/>
      <point x="938" y="704"/>
      <point x="997" y="673"/>
      <point x="997" y="595" type="curve" smooth="yes"/>
      <point x="997" y="563"/>
      <point x="991" y="529"/>
      <point x="989" y="520" type="curve"/>
      <point x="999" y="520" type="line"/>
      <point x="1036" y="714" type="line"/>
      <point x="419" y="714" type="line"/>
      <point x="417" y="704" type="line"/>
      <point x="510" y="704" type="line"/>
      <point x="103" y="88" type="line" smooth="yes"/>
      <point x="70" y="39"/>
      <point x="23" y="10"/>
      <point x="-48" y="10" type="curve" smooth="yes"/>
      <point x="-55" y="10" type="line"/>
    </contour>
    <contour>
      <point x="239" y="275" type="line"/>
      <point x="411" y="536" type="line" smooth="yes"/>
      <point x="451" y="597"/>
      <point x="467" y="618"/>
      <point x="522" y="704" type="curve"/>
      <point x="554" y="704" type="line"/>
      <point x="462" y="275" type="line"/>
    </contour>
  </outline>
</glyph>
<glyph name="Eth" format="2">
  <advance width="800"/>
  <unicode hex="00D0"/>
  <anchor x="343" y="0" name="bottom"/>
  <anchor x="495" y="714" name="top"/>
  <anchor x="428" y="357" name="center"/>
  <anchor x="865" y="714" name="topright"/>
  <outline>
    <contour>
      <point x="75" y="376" type="line"/>
      <point x="441" y="376" type="line"/>
      <point x="443" y="386" type="line"/>
      <point x="77" y="386" type="line"/>
    </contour>
    <component base="D"/>
  </outline>
</glyph>
<glyph name="multiply" format="2">
  <advance width="559"/>
  <unicode hex="00D7"/>
  <outline>
    <contour>
      <point x="101" y="145" type="line"/>
      <point x="299" y="343" type="line"/>
      <point x="496" y="145" type="line"/>
      <point x="510" y="159" type="line"/>
      <point x="312" y="357" type="line"/>
      <point x="510" y="555" type="line"/>
      <point x="496" y="569" type="line"/>
      <point x="299" y="371" type="line"/>
      <point x="101" y="569" type="line"/>
      <point x="87" y="555" type="line"/>
      <point x="285" y="357" type="line"/>
      <point x="87" y="159" type="line"/>
    </contour>
  </outline>
</glyph>
<glyph name="Oslash" format="2">
  <advance width="829"/>
  <unicode hex="00D8"/>
  <anchor x="358" y="0" name="bottom"/>
  <anchor x="510" y="714" name="top"/>
  <anchor x="450" y="357" name="center"/>
  <anchor x="901" y="714" name="topright"/>
  <outline>
    <contour>
      <point x="133" y="-50" type="line"/>
      <point x="143" y="-50" type="line"/>
      <point x="752" y="765" type="line"/>
      <point x="742" y="765" type="line"/>
    </contour>
    <component base="O"/>
  </outline>
</glyph>
<glyph name="Thorn" format="2">
  <advance width="663"/>
  <unicode hex="00DE"/>
  <anchor x="275" y="0" name="bottom"/>
  <anchor x="427" y="714" name="top"/>
  <outline>
    <contour>
      <point x="-25" y="0" type="line"/>
      <point x="351" y="0" type="line"/>
      <point x="353" y="10" type="line"/>
      <point x="348" y="10" type="line" smooth="yes"/>
      <point x="306" y="10"/>
      <point x="274" y="14"/>
      <point x="274" y="40" type="curve" smooth="yes"/>
      <point x="274" y="44"/>
      <point x="276" y="52"/>
      <point x="277" y="59" type="curve" smooth="yes"/>
      <point x="297" y="158" type="line"/>
      <point x="373" y="158" type="line" smooth="yes"/>
      <point x="630" y="158"/>
      <point x="675" y="287"/>
      <point x="675" y="395" type="curve" smooth="yes"/>
      <point x="675" y="506"/>
      <point x="584" y="562"/>
      <point x="415" y="562" type="curve" smooth="yes"/>
      <point x="381" y="562" type="line"/>
      <point x="400" y="651" type="line" smooth="yes"/>
      <point x="410" y="696"/>
      <point x="451" y="704"/>
      <point x="494" y="704" type="curve" smooth="yes"/>
      <point x="500" y="704" type="line"/>
      <point x="502" y="714" type="line"/>
      <point x="125" y="714" type="line"/>
      <point x="123" y="704" type="line"/>
      <point x="135" y="704" type="line" smooth="yes"/>
      <point x="177" y="704"/>
      <point x="206" y="700"/>
      <point x="206" y="674" type="curve" smooth="yes"/>
      <point x="206" y="668"/>
      <point x="204" y="660"/>
      <point x="200" y="643" type="curve" smooth="yes"/>
      <point x="79" y="61" type="line" smooth="yes"/>
      <point x="70" y="17"/>
      <point x="31" y="10"/>
      <point x="-10" y="10" type="curve" smooth="yes"/>
      <point x="-23" y="10" type="line"/>
    </contour>
    <contour>
      <point x="300" y="168" type="line"/>
      <point x="381" y="552" type="line"/>
      <point x="392" y="552" type="line" smooth="yes"/>
      <point x="451" y="552"/>
      <point x="470" y="516"/>
      <point x="470" y="428" type="curve" smooth="yes"/>
      <point x="470" y="336"/>
      <point x="428" y="168"/>
      <point x="319" y="168" type="curve" smooth="yes"/>
    </contour>
  </outline>
</glyph>
<glyph name="ae" format="2">
  <advance width="929"/>
  <unicode hex="00E6"/>
  <anchor x="408" y="0" name="bottom"/>
  <anchor x="522" y="536" name="top"/>
  <anchor x="945" y="536" name="topright"/>
  <outline>
    <contour>
      <point x="189" y="-10" type="curve" smooth="yes"/>
      <point x="286" y="-10"/>
      <point x="344" y="41"/>
      <point x="402" y="137" type="curve"/>
      <point x="405" y="137" type="line"/>
      <point x="430" y="52"/>
      <point x="495" y="-10"/>
      <point x="645" y="-10" type="curve" smooth="yes"/>
      <point x="795" y="-10"/>
      <point x="861" y="58"/>
      <point x="861" y="119" type="curve" smooth="yes"/>
      <point x="861" y="143"/>
      <point x="851" y="163"/>
      <point x="837" y="163" type="curve"/>
      <point x="807" y="59"/>
      <point x="750" y="0"/>
      <point x="684" y="0" type="curve" smooth="yes"/>
      <point x="605" y="0"/>
      <point x="583" y="66"/>
      <point x="583" y="185" type="curve" smooth="yes"/>
      <point x="583" y="204"/>
      <point x="583" y="227"/>
      <point x="585" y="247" type="curve"/>
      <point x="631" y="247" type="line" smooth="yes"/>
      <point x="807" y="247"/>
      <point x="935" y="319"/>
      <point x="935" y="429" type="curve" smooth="yes"/>
      <point x="935" y="505"/>
      <point x="874" y="549"/>
      <point x="762" y="549" type="curve" smooth="yes"/>
      <point x="671" y="549"/>
      <point x="599" y="524"/>
      <point x="542" y="483" type="curve"/>
      <point x="502" y="520"/>
      <point x="456" y="546"/>
      <point x="368" y="546" type="curve" smooth="yes"/>
      <point x="135" y="546"/>
      <point x="38" y="323"/>
      <point x="38" y="161" type="curve" smooth="yes"/>
      <point x="38" y="67"/>
      <point x="81" y="-10"/>
    </contour>
    <contour>
      <point x="277" y="42" type="curve" smooth="yes"/>
      <point x="243" y="42"/>
      <point x="227" y="65"/>
      <point x="227" y="163" type="curve" smooth="yes"/>
      <point x="227" y="255"/>
      <point x="279" y="527"/>
      <point x="418" y="527" type="curve" smooth="yes"/>
      <point x="467" y="527"/>
      <point x="507" y="502"/>
      <point x="533" y="477" type="curve"/>
      <point x="458" y="430"/>
      <point x="397" y="328"/>
      <point x="397" y="199" type="curve" smooth="yes"/>
      <point x="397" y="183"/>
      <point x="398" y="171"/>
      <point x="400" y="159" type="curve"/>
      <point x="359" y="85"/>
      <point x="312" y="42"/>
    </contour>
    <contour>
      <point x="586" y="257" type="line"/>
      <point x="601" y="401"/>
      <point x="649" y="534"/>
      <point x="713" y="534" type="curve" smooth="yes"/>
      <point x="741" y="534"/>
      <point x="753" y="515"/>
      <point x="753" y="475" type="curve" smooth="yes"/>
      <point x="753" y="337"/>
      <point x="688" y="257"/>
      <point x="594" y="257" type="curve" smooth="yes"/>
    </contour>
  </outline>
</glyph>
<glyph name="divide" format="2">
  <advance width="559"/>
  <unicode hex="00F7"/>
  <outline>
    <contour>
      <point x="84" y="347" type="line"/>
      <point x="513" y="347" type="line"/>
      <point x="513" y="367" type="line"/>
      <point x="84" y="367" type="line"/>
    </contour>
    <contour>
      <point x="299" y="144" type="curve" smooth="yes"/>
      <point x="321" y="144"/>
      <point x="340" y="155"/>
      <point x="340" y="186" type="curve" smooth="yes"/>
      <point x="340" y="219"/>
      <point x="321" y="229"/>
      <point x="299" y="229" type="curve" smooth="yes"/>
      <point x="276" y="229"/>
      <point x="258" y="219"/>
      <point x="258" y="186" type="curve" smooth="yes"/>
      <point x="258" y="155"/>
      <point x="276" y="144"/>
    </contour>
    <contour>
      <point x="299" y="486" type="curve" smooth="yes"/>
      <point x="321" y="486"/>
      <point x="340" y="497"/>
      <point x="340" y="529" type="curve" smooth="yes"/>
      <point x="340" y="561"/>
      <point x="321" y="571"/>
      <point x="299" y="571" type="curve" smooth="yes"/>
      <point x="276" y="571"/>
      <point x="258" y="561"/>
      <point x="258" y="529" type="curve" smooth="yes"/>
      <point x="258" y="497"/>
      <point x="276" y="486"/>
    </contour>
  </outline>
</glyph>
<glyph name="thorn" format="2">
  <advance width="668"/>
  <unicode hex="00FE"/>
  <anchor x="226" y="-240" name="bottom"/>
  <anchor x="439" y="760" name="top"/>
  <outline>
    <contour>
      <point x="-35" y="-240" type="line"/>
      <point x="268" y="-240" type="line"/>
      <point x="269" y="-230" type="line"/>
      <point x="222" y="-230" type="line" smooth="yes"/>
      <point x="184" y="-230"/>
      <point x="172" y="-224"/>
      <point x="172" y="-198" type="curve" smooth="yes"/>
      <point x="172" y="-188"/>
      <point x="173" y="-179"/>
      <point x="177" y="-157" type="curve" smooth="yes"/>
      <point x="199" y="-35" type="line" smooth="yes"/>
      <point x="203" y="-13"/>
      <point x="206" y="3"/>
      <point x="208" y="18" type="curve"/>
      <point x="229" y="0"/>
      <point x="257" y="-10"/>
      <point x="299" y="-10" type="curve" smooth="yes"/>
      <point x="516" y="-10"/>
      <point x="631" y="203"/>
      <point x="631" y="365" type="curve" smooth="yes"/>
      <point x="631" y="491"/>
      <point x="560" y="546"/>
      <point x="471" y="546" type="curve" smooth="yes"/>
      <point x="361" y="546"/>
      <point x="307" y="481"/>
      <point x="275" y="362" type="curve"/>
      <point x="269" y="362" type="line"/>
      <point x="298" y="453"/>
      <point x="334" y="565"/>
      <point x="349" y="634" type="curve" smooth="yes"/>
      <point x="377" y="760" type="line"/>
      <point x="100" y="760" type="line"/>
      <point x="98" y="750" type="line"/>
      <point x="125" y="750" type="line" smooth="yes"/>
      <point x="163" y="750"/>
      <point x="165" y="739"/>
      <point x="165" y="716" type="curve" smooth="yes"/>
      <point x="165" y="707"/>
      <point x="163" y="692"/>
      <point x="160" y="676" type="curve" smooth="yes"/>
    </contour>
    <contour>
      <point x="268" y="4" type="curve" smooth="yes"/>
      <point x="246" y="4"/>
      <point x="226" y="14"/>
      <point x="214" y="29" type="curve"/>
      <point x="282" y="347" type="line" smooth="yes"/>
      <point x="298" y="421"/>
      <point x="341" y="504"/>
      <point x="387" y="504" type="curve" smooth="yes"/>
      <point x="421" y="504"/>
      <point x="441" y="479"/>
      <point x="441" y="386" type="curve" smooth="yes"/>
      <point x="441" y="211"/>
      <point x="370" y="4"/>
    </contour>
  </outline>
</glyph>
<glyph name="dcroat" format="2">
  <advance width="683"/>
  <unicode hex="0111"/>
  <anchor x="307" y="0" name="bottom"/>
  <anchor x="469" y="760" name="top"/>
  <anchor x="415" y="268" name="center"/>
  <anchor x="753" y="760" name="topright"/>
  <outline>
    <contour>
      <point x="344" y="633" type="line"/>
      <point x="766" y="633" type="line"/>
      <point x="768" y="643" type="line"/>
      <point x="346" y="643" type="line"/>
    </contour>
    <component base="d"/>
  </outline>
</glyph>
<glyph name="Hbar" format="2">
  <advance width="838"/>
  <unicode hex="0126"/>
  <anchor x="362" y="0" name="bottom"/>
  <anchor x="514" y="714" name="top"/>
  <anchor x="448" y="357" name="center"/>
  <anchor x="904" y="714" name="topright"/>
  <outline>
    <contour>
      <point x="67" y="522" type="line"/>
      <point x="899" y="522" type="line"/>
      <point x="902" y="532" type="line"/>
      <point x="70" y="532" type="line"/>
    </contour>
    <component base="H"/>
  </outline>
</glyph>
<glyph name="kgreenlandic" format="2">
  <advance width="648"/>
  <unicode hex="0138"/>
  <anchor x="303" y="0" name="bottom"/>
  <anchor x="379" y="536" name="top"/>
  <outline>
    <contour>
      <point x="538" y="-5" type="curve" smooth="yes"/>
      <point x="610" y="-5" type="line"/>
      <point x="612" y="5" type="line"/>
      <point x="586" y="5"/>
      <point x="581" y="18"/>
      <point x="561" y="68" type="curve" smooth="yes"/>
      <point x="433" y="389" type="line"/>
      <point x="418" y="368" type="line"/>
      <point x="520" y="460" type="line" smooth="yes"/>
      <point x="584" y="517"/>
      <point x="640" y="526"/>
      <point x="686" y="526" type="curve"/>
      <point x="688" y="536" type="line"/>
      <point x="435" y="536" type="line"/>
      <point x="433" y="526" type="line"/>
      <point x="505" y="526"/>
      <point x="535" y="521"/>
      <point x="535" y="503" type="curve" smooth="yes"/>
      <point x="535" y="491"/>
      <point x="523" y="477"/>
      <point x="503" y="459" type="curve" smooth="yes"/>
      <point x="273" y="246" type="line"/>
      <point x="284" y="284"/>
      <point x="325" y="453"/>
      <point x="337" y="506" type="curve" smooth="yes"/>
      <point x="343" y="536" type="line"/>
      <point x="67" y="536" type="line"/>
      <point x="66" y="526" type="line"/>
      <point x="87" y="526" type="line" smooth="yes"/>
      <point x="132" y="526"/>
      <point x="132" y="513"/>
      <point x="132" y="497" type="curve" smooth="yes"/>
      <point x="132" y="483"/>
      <point x="127" y="462"/>
      <point x="125" y="452" type="curve" smooth="yes"/>
      <point x="30" y="0" type="line"/>
      <point x="222" y="0" type="line"/>
      <point x="274" y="235" type="line"/>
      <point x="310" y="267" type="line"/>
      <point x="287" y="253" type="line"/>
      <point x="348" y="93" type="line" smooth="yes"/>
      <point x="375" y="21"/>
      <point x="443" y="-6"/>
    </contour>
  </outline>
</glyph>
<glyph name="Lslash" format="2">
  <advance width="677"/>
  <unicode hex="0141"/>
  <anchor x="282" y="0" name="bottom"/>
  <anchor x="434" y="714" name="top"/>
  <anchor x="367" y="357" name="center"/>
  <anchor x="667" y="714" name="topright"/>
  <outline>
    <contour>
      <point x="59" y="302" type="line"/>
      <point x="522" y="539" type="line"/>
      <point x="524" y="552" type="line"/>
      <point x="61" y="314" type="line"/>
    </contour>
    <component base="L"/>
  </outline>
</glyph>
<glyph name="lslash" format="2">
  <advance width="376"/>
  <unicode hex="0142"/>
  <anchor x="131" y="0" name="bottom"/>
  <anchor x="293" y="760" name="top"/>
  <anchor x="276" y="268" name="center"/>
  <anchor x="499" y="760" name="topright"/>
  <outline>
    <contour>
      <point x="3" y="294" type="line"/>
      <point x="371" y="480" type="line"/>
      <point x="373" y="492" type="line"/>
      <point x="5" y="306" type="line"/>
    </contour>
    <component base="l"/>
  </outline>
</glyph>
<glyph name="Eng" format="2">
  <advance width="806"/>
  <unicode hex="014A"/>
  <anchor x="274" y="-240" name="bottom"/>
  <anchor x="477" y="714" name="top"/>
  <outline>
    <contour>
      <point x="394" y="-240" type="curve" smooth="yes"/>
      <point x="531" y="-240"/>
      <point x="580" y="-149"/>
      <point x="617" y="0" type="curve"/>
      <point x="754" y="653" type="line" smooth="yes"/>
      <point x="764" y="699"/>
      <point x="802" y="704"/>
      <point x="842" y="704" type="curve" smooth="yes"/>
      <point x="898" y="704" type="line"/>
      <point x="900" y="714" type="line"/>
      <point x="647" y="714" type="line"/>
      <point x="645" y="704" type="line"/>
      <point x="680" y="704" type="line" smooth="yes"/>
      <point x="726" y="704"/>
      <point x="743" y="694"/>
      <point x="743" y="667" type="curve" smooth="yes"/>
      <point x="743" y="660"/>
      <point x="742" y="651"/>
      <point x="740" y="641" type="curve" smooth="yes"/>
      <point x="654" y="230" type="line"/>
      <point x="402" y="714" type="line"/>
      <point x="125" y="714" type="line"/>
      <point x="123" y="704" type="line"/>
      <point x="173" y="704" type="line" smooth="yes"/>
      <point x="215" y="704"/>
      <point x="245" y="700"/>
      <point x="245" y="674" type="curve" smooth="yes"/>
      <point x="245" y="667"/>
      <point x="242" y="656"/>
      <point x="238" y="636" type="curve" smooth="yes"/>
      <point x="115" y="61" type="line" smooth="yes"/>
      <point x="106" y="17"/>
      <point x="67" y="10"/>
      <point x="26" y="10" type="curve" smooth="yes"/>
      <point x="-24" y="10" type="line"/>
      <point x="-25" y="0" type="line"/>
      <point x="228" y="0" type="line"/>
      <point x="230" y="10" type="line"/>
      <point x="224" y="10" type="line" smooth="yes"/>
      <point x="162" y="10"/>
      <point x="124" y="17"/>
      <point x="124" y="41" type="curve" smooth="yes"/>
      <point x="124" y="49"/>
      <point x="125" y="57"/>
      <point x="129" y="77" type="curve" smooth="yes"/>
      <point x="254" y="663" type="line"/>
      <point x="607" y="0" type="line"/>
      <point x="562" y="-166"/>
      <point x="510" y="-230"/>
      <point x="394" y="-230" type="curve" smooth="yes"/>
      <point x="351" y="-230"/>
      <point x="332" y="-225"/>
      <point x="315" y="-219" type="curve"/>
      <point x="313" y="-229" type="line"/>
      <point x="337" y="-236"/>
      <point x="367" y="-240"/>
    </contour>
  </outline>
</glyph>
<glyph name="eng" format="2">
  <advance width="718"/>
  <unicode hex="014B"/>
  <anchor x="251" y="-240" name="bottom"/>
  <anchor x="416" y="536" name="top"/>
  <anchor x="761" y="536" name="topright"/>
  <outline>
    <contour>
      <point x="323" y="-240" type="curve" smooth="yes"/>
      <point x="419" y="-240"/>
      <point x="520" y="-186"/>
      <point x="564" y="24" type="curve"/>
      <point x="626" y="314" type="line" smooth="yes"/>
      <point x="633" y="349"/>
      <point x="644" y="394"/>
      <point x="644" y="429" type="curve" smooth="yes"/>
      <point x="644" y="491"/>
      <point x="614" y="546"/>
      <point x="516" y="546" type="curve" smooth="yes"/>
      <point x="419" y="546"/>
      <point x="367" y="518"/>
      <point x="323" y="417" type="curve"/>
      <point x="320" y="417" type="line"/>
      <point x="338" y="536" type="line"/>
      <point x="69" y="536" type="line"/>
      <point x="68" y="526" type="line"/>
      <point x="93" y="526" type="line" smooth="yes"/>
      <point x="131" y="526"/>
      <point x="134" y="514"/>
      <point x="134" y="497" type="curve" smooth="yes"/>
      <point x="134" y="483"/>
      <point x="129" y="462"/>
      <point x="126" y="446" type="curve" smooth="yes"/>
      <point x="32" y="0" type="line"/>
      <point x="224" y="0" type="line"/>
      <point x="305" y="332" type="line" smooth="yes"/>
      <point x="325" y="414"/>
      <point x="367" y="508"/>
      <point x="424" y="508" type="curve" smooth="yes"/>
      <point x="454" y="508"/>
      <point x="456" y="476"/>
      <point x="456" y="452" type="curve" smooth="yes"/>
      <point x="456" y="420"/>
      <point x="444" y="370"/>
      <point x="439" y="345" type="curve" smooth="yes"/>
      <point x="337" y="-123" type="line"/>
      <point x="323" y="-187"/>
      <point x="301" y="-222"/>
      <point x="241" y="-222" type="curve" smooth="yes"/>
      <point x="228" y="-222"/>
      <point x="206" y="-218"/>
      <point x="197" y="-215" type="curve"/>
      <point x="194" y="-225" type="line"/>
      <point x="233" y="-234"/>
      <point x="265" y="-240"/>
    </contour>
  </outline>
</glyph>
<glyph name="OE" format="2">
  <advance width="1022"/>
  <unicode hex="0152"/>
  <anchor x="449" y="0" name="bottom"/>
  <anchor x="601" y="714" name="top"/>
  <outline>
    <contour>
      <point x="352" y="-11" type="curve" smooth="yes"/>
      <point x="386" y="-11"/>
      <point x="407" y="-7"/>
      <point x="434" y="0" type="curve"/>
      <point x="938" y="0" type="line"/>
      <point x="986" y="194" type="line"/>
      <point x="976" y="194" type="line"/>
      <point x="955" y="134" type="line" smooth="yes"/>
      <point x="938" y="85"/>
      <point x="880" y="10"/>
      <point x="771" y="10" type="curve" smooth="yes"/>
      <point x="626" y="10" type="line"/>
      <point x="704" y="372" type="line"/>
      <point x="920" y="372" type="line"/>
      <point x="923" y="382" type="line"/>
      <point x="706" y="382" type="line"/>
      <point x="774" y="704" type="line"/>
      <point x="908" y="704" type="line" smooth="yes"/>
      <point x="979" y="704"/>
      <point x="1018" y="648"/>
      <point x="1018" y="595" type="curve" smooth="yes"/>
      <point x="1018" y="563"/>
      <point x="1015" y="549"/>
      <point x="1010" y="520" type="curve"/>
      <point x="1020" y="520" type="line"/>
      <point x="1057" y="714" type="line"/>
      <point x="587" y="714" type="line"/>
      <point x="560" y="721"/>
      <point x="531" y="725"/>
      <point x="505" y="725" type="curve" smooth="yes"/>
      <point x="211" y="725"/>
      <point x="60" y="458"/>
      <point x="60" y="266" type="curve" smooth="yes"/>
      <point x="60" y="85"/>
      <point x="186" y="-11"/>
    </contour>
    <contour>
      <point x="367" y="-1" type="curve" smooth="yes"/>
      <point x="301" y="-1"/>
      <point x="263" y="69"/>
      <point x="263" y="245" type="curve" smooth="yes"/>
      <point x="263" y="452"/>
      <point x="345" y="716"/>
      <point x="503" y="716" type="curve" smooth="yes"/>
      <point x="531" y="716"/>
      <point x="552" y="713"/>
      <point x="574" y="705" type="curve"/>
      <point x="428" y="9" type="line"/>
      <point x="403" y="2"/>
      <point x="387" y="-1"/>
    </contour>
  </outline>
</glyph>
<glyph name="oe" format="2">
  <advance width="929"/>
  <unicode hex="0153"/>
  <anchor x="403" y="0" name="bottom"/>
  <anchor x="517" y="536" name="top"/>
  <outline>
    <contour>
      <point x="267" y="-10" type="curve" smooth="yes"/>
      <point x="351" y="-10"/>
      <point x="414" y="18"/>
      <point x="464" y="59" type="curve"/>
      <point x="502" y="14"/>
      <point x="567" y="-10"/>
      <point x="647" y="-10" type="curve" smooth="yes"/>
      <point x="790" y="-10"/>
      <point x="857" y="58"/>
      <point x="857" y="115" type="curve" smooth="yes"/>
      <point x="857" y="147"/>
      <point x="847" y="159"/>
      <point x="834" y="163" type="curve"/>
      <point x="806" y="68"/>
      <point x="760" y="2"/>
      <point x="680" y="2" type="curve" smooth="yes"/>
      <point x="621" y="2"/>
      <point x="586" y="46"/>
      <point x="586" y="186" type="curve" smooth="yes"/>
      <point x="586" y="195"/>
      <point x="587" y="236"/>
      <point x="589" y="248" type="curve"/>
      <point x="602" y="248"/>
      <point x="615" y="248"/>
      <point x="628" y="248" type="curve" smooth="yes"/>
      <point x="803" y="248"/>
      <point x="930" y="316"/>
      <point x="930" y="426" type="curve" smooth="yes"/>
      <point x="930" y="501"/>
      <point x="869" y="546"/>
      <point x="760" y="546" type="curve" smooth="yes"/>
      <point x="673" y="546"/>
      <point x="604" y="518"/>
      <point x="551" y="476" type="curve"/>
      <point x="515" y="525"/>
      <point x="455" y="546"/>
      <point x="383" y="546" type="curve" smooth="yes"/>
      <point x="144" y="546"/>
      <point x="33" y="354"/>
      <point x="33" y="202" type="curve" smooth="yes"/>
      <point x="33" y="60"/>
      <point x="126" y="-10"/>
    </contour>
    <contour>
      <point x="277" y="0" type="curve" smooth="yes"/>
      <point x="238" y="0"/>
      <point x="222" y="32"/>
      <point x="222" y="174" type="curve" smooth="yes"/>
      <point x="222" y="369"/>
      <point x="290" y="536"/>
      <point x="372" y="536" type="curve" smooth="yes"/>
      <point x="409" y="536"/>
      <point x="419" y="503"/>
      <point x="419" y="377" type="curve" smooth="yes"/>
      <point x="419" y="178"/>
      <point x="367" y="0"/>
    </contour>
    <contour>
      <point x="590" y="258" type="line"/>
      <point x="613" y="436"/>
      <point x="667" y="532"/>
      <point x="715" y="532" type="curve" smooth="yes"/>
      <point x="748" y="532"/>
      <point x="756" y="507"/>
      <point x="756" y="449" type="curve" smooth="yes"/>
      <point x="756" y="336"/>
      <point x="685" y="258"/>
      <point x="605" y="258" type="curve" smooth="yes"/>
    </contour>
  </outline>
</glyph>
<glyph name="Tbar" format="2">
  <advance width="682"/>
  <unicode hex="0166"/>
  <anchor x="284" y="0" name="bottom"/>
  <anchor x="436" y="714" name="top"/>
  <anchor x="370" y="357" name="center"/>
  <anchor x="748" y="714" name="topright"/>
  <outline>
    <contour>
      <point x="141" y="355" type="line"/>
      <point x="595" y="355" type="line"/>
      <point x="597" y="365" type="line"/>
      <point x="142" y="365" type="line"/>
    </contour>
    <component base="T"/>
  </outline>
</glyph>
<glyph name="tbar" format="2">
  <advance width="453"/>
  <unicode hex="0167"/>
  <anchor x="170" y="0" name="bottom"/>
  <anchor x="310" y="659" name="top"/>
  <anchor x="284" y="268" name="center"/>
  <anchor x="500" y="659" name="topright"/>
  <outline>
    <contour>
      <point x="16" y="299" type="line"/>
      <point x="386" y="299" type="line"/>
      <point x="388" y="309" type="line"/>
      <point x="18" y="309" type="line"/>
    </contour>
    <component base="t"/>
  </outline>
</glyph>
<glyph name="longs" format="2">
  <advance width="481"/>
  <unicode hex="017F"/>
  <anchor x="-75" y="-240" name="bottom"/>
  <anchor x="441" y="770" name="top"/>
  <outline>
    <contour>
      <point x="-75" y="-240" type="curve" smooth="yes"/>
      <point x="54" y="-240"/>
      <point x="203" y="-196"/>
      <point x="255" y="49" type="curve" smooth="yes"/>
      <point x="384" y="659" type="line" smooth="yes"/>
      <point x="401" y="739"/>
      <point x="414" y="760"/>
      <point x="444" y="760" type="curve" smooth="yes"/>
      <point x="484" y="760"/>
      <point x="480" y="707"/>
      <point x="480" y="600" type="curve"/>
      <point x="571" y="600"/>
      <point x="619" y="629"/>
      <point x="619" y="673" type="curve" smooth="yes"/>
      <point x="619" y="726"/>
      <point x="557" y="770"/>
      <point x="441" y="770" type="curve" smooth="yes"/>
      <point x="288" y="770"/>
      <point x="200" y="707"/>
      <point x="169" y="560" type="curve" smooth="yes"/>
      <point x="36" y="-67" type="line" smooth="yes"/>
      <point x="8" y="-200"/>
      <point x="-25" y="-230"/>
      <point x="-94" y="-230" type="curve" smooth="yes"/>
      <point x="-105" y="-230"/>
      <point x="-125" y="-226"/>
      <point x="-136" y="-223" type="curve"/>
      <point x="-139" y="-232" type="line"/>
      <point x="-126" y="-236"/>
      <point x="-95" y="-240"/>
    </contour>
  </outline>
</glyph>
<glyph name="uni0191" format="2">
  <advance width="842"/>
  <unicode hex="0191"/>
  <anchor x="163" y="-10" name="bottom"/>
  <anchor x="607" y="714" name="top"/>
  <outline>
    <contour>
      <point x="163" y="-10" type="curve" smooth="yes"/>
      <point x="392" y="-10"/>
      <point x="474" y="92"/>
      <point x="505" y="236" type="curve" smooth="yes"/>
      <point x="534" y="370" type="line"/>
      <point x="768" y="370" type="line"/>
      <point x="770" y="380" type="line"/>
      <point x="536" y="380" type="line"/>
      <point x="603" y="704" type="line"/>
      <point x="734" y="704" type="line" smooth="yes"/>
      <point x="825" y="704"/>
      <point x="856" y="661"/>
      <point x="856" y="579" type="curve" smooth="yes"/>
      <point x="856" y="560"/>
      <point x="854" y="542"/>
      <point x="852" y="520" type="curve"/>
      <point x="862" y="520" type="line"/>
      <point x="899" y="714" type="line"/>
      <point x="315" y="714" type="line"/>
      <point x="313" y="704" type="line"/>
      <point x="326" y="704" type="line" smooth="yes"/>
      <point x="368" y="704"/>
      <point x="398" y="700"/>
      <point x="398" y="674" type="curve" smooth="yes"/>
      <point x="398" y="670"/>
      <point x="395" y="661"/>
      <point x="390" y="636" type="curve" smooth="yes"/>
      <point x="282" y="127" type="line" smooth="yes"/>
      <point x="263" y="35"/>
      <point x="232" y="0"/>
      <point x="181" y="0" type="curve" smooth="yes"/>
      <point x="122" y="0"/>
      <point x="93" y="35"/>
      <point x="93" y="150" type="curve" smooth="yes"/>
      <point x="93" y="164"/>
      <point x="93" y="180"/>
      <point x="95" y="197" type="curve"/>
      <point x="6" y="197"/>
      <point x="-44" y="166"/>
      <point x="-44" y="98" type="curve" smooth="yes"/>
      <point x="-44" y="30"/>
      <point x="29" y="-10"/>
    </contour>
  </outline>
</glyph>
<glyph name="florin" format="2">
  <advance width="563"/>
  <unicode hex="0192"/>
  <anchor x="112" y="-15" name="bottom"/>
  <anchor x="540" y="770" name="top"/>
  <anchor x="743" y="770" name="topright"/>
  <outline>
    <contour>
      <point x="112" y="-15" type="curve" smooth="yes"/>
      <point x="265" y="-14"/>
      <point x="355" y="53"/>
      <point x="391" y="226" type="curve" smooth="yes"/>
      <point x="454" y="526" type="line"/>
      <point x="592" y="526" type="line"/>
      <point x="594" y="536" type="line"/>
      <point x="457" y="536" type="line"/>
      <point x="482" y="656" type="line" smooth="yes"/>
      <point x="498" y="730"/>
      <point x="515" y="760"/>
      <point x="544" y="760" type="curve" smooth="yes"/>
      <point x="580" y="760"/>
      <point x="579" y="712"/>
      <point x="579" y="600" type="curve"/>
      <point x="670" y="600"/>
      <point x="718" y="629"/>
      <point x="718" y="673" type="curve" smooth="yes"/>
      <point x="718" y="726"/>
      <point x="656" y="770"/>
      <point x="540" y="770" type="curve" smooth="yes"/>
      <point x="387" y="770"/>
      <point x="306" y="702"/>
      <point x="271" y="567" type="curve" smooth="yes"/>
      <point x="263" y="536" type="line"/>
      <point x="169" y="532" type="line"/>
      <point x="168" y="526" type="line"/>
      <point x="259" y="526" type="line"/>
      <point x="170" y="99" type="line" smooth="yes"/>
      <point x="154" y="24"/>
      <point x="137" y="-5"/>
      <point x="108" y="-5" type="curve" smooth="yes"/>
      <point x="72" y="-5"/>
      <point x="60" y="36"/>
      <point x="60" y="155" type="curve"/>
      <point x="-16" y="155"/>
      <point x="-48" y="123"/>
      <point x="-48" y="79" type="curve" smooth="yes"/>
      <point x="-48" y="26"/>
      <point x="4" y="-16"/>
    </contour>
  </outline>
</glyph>
<glyph name="Ohorn" format="2">
  <advance width="891"/>
  <unicode hex="01A0"/>
  <anchor x="389" y="0" name="bottom"/>
  <anchor x="541" y="714" name="top"/>
  <outline>
    <contour>
      <point x="382" y="-11" type="curve" smooth="yes"/>
      <point x="717" y="-11"/>
      <point x="805" y="266"/>
      <point x="805" y="438" type="curve" smooth="yes"/>
      <point x="805" y="452"/>
      <point x="804" y="465"/>
      <point x="803" y="478" type="curve"/>
      <point x="915" y="516"/>
      <point x="994" y="587"/>
      <point x="994" y="690" type="curve" smooth="yes"/>
      <point x="994" y="735"/>
      <point x="971" y="770"/>
      <point x="924" y="770" type="curve" smooth="yes"/>
      <point x="876" y="770"/>
      <point x="849" y="742"/>
      <point x="849" y="697" type="curve" smooth="yes"/>
      <point x="849" y="644"/>
      <point x="922" y="635"/>
      <point x="922" y="588" type="curve" smooth="yes"/>
      <point x="922" y="557"/>
      <point x="881" y="519"/>
      <point x="802" y="488" type="curve"/>
      <point x="783" y="655"/>
      <point x="664" y="725"/>
      <point x="499" y="725" type="curve" smooth="yes"/>
      <point x="167" y="725"/>
      <point x="71" y="461"/>
      <point x="71" y="300" type="curve" smooth="yes"/>
      <point x="71" y="85"/>
      <point x="187" y="-11"/>
    </contour>
    <contour>
      <point x="391" y="-1" type="curve" smooth="yes"/>
      <point x="308" y="-1"/>
      <point x="274" y="64"/>
      <point x="274" y="224" type="curve" smooth="yes"/>
      <point x="274" y="384"/>
      <point x="335" y="715"/>
      <point x="499" y="715" type="curve" smooth="yes"/>
      <point x="580" y="715"/>
      <point x="605" y="663"/>
      <point x="605" y="497" type="curve" smooth="yes"/>
      <point x="605" y="297"/>
      <point x="537" y="-1"/>
    </contour>
  </outline>
</glyph>
<glyph name="ohorn" format="2">
  <advance width="716"/>
  <unicode hex="01A1"/>
  <anchor x="301" y="0" name="bottom"/>
  <anchor x="415" y="536" name="top"/>
  <outline>
    <contour>
      <point x="278" y="-10" type="curve" smooth="yes"/>
      <point x="535" y="-10"/>
      <point x="611" y="208"/>
      <point x="611" y="332" type="curve" smooth="yes"/>
      <point x="611" y="340"/>
      <point x="611" y="347"/>
      <point x="610" y="354" type="curve"/>
      <point x="703" y="394"/>
      <point x="760" y="460"/>
      <point x="760" y="548" type="curve" smooth="yes"/>
      <point x="760" y="600"/>
      <point x="736" y="628"/>
      <point x="690" y="628" type="curve" smooth="yes"/>
      <point x="642" y="628"/>
      <point x="624" y="597"/>
      <point x="624" y="561" type="curve" smooth="yes"/>
      <point x="624" y="494"/>
      <point x="706" y="508"/>
      <point x="706" y="457" type="curve" smooth="yes"/>
      <point x="706" y="427"/>
      <point x="657" y="389"/>
      <point x="609" y="365" type="curve"/>
      <point x="596" y="493"/>
      <point x="501" y="546"/>
      <point x="388" y="546" type="curve" smooth="yes"/>
      <point x="119" y="546"/>
      <point x="38" y="334"/>
      <point x="38" y="208" type="curve" smooth="yes"/>
      <point x="38" y="60"/>
      <point x="131" y="-10"/>
    </contour>
    <contour>
      <point x="284" y="0" type="curve" smooth="yes"/>
      <point x="245" y="0"/>
      <point x="227" y="31"/>
      <point x="227" y="123" type="curve" smooth="yes"/>
      <point x="227" y="292"/>
      <point x="285" y="536"/>
      <point x="377" y="536" type="curve" smooth="yes"/>
      <point x="414" y="536"/>
      <point x="424" y="508"/>
      <point x="424" y="412" type="curve" smooth="yes"/>
      <point x="424" y="274"/>
      <point x="376" y="0"/>
    </contour>
  </outline>
</glyph>
<glyph name="Uhorn" format="2">
  <advance width="908"/>
  <unicode hex="01AF"/>
  <anchor x="397" y="0" name="bottom"/>
  <anchor x="549" y="714" name="top"/>
  <outline>
    <contour>
      <point x="354" y="-10" type="curve" smooth="yes"/>
      <point x="530" y="-10"/>
      <point x="613" y="63"/>
      <point x="648" y="232" type="curve" smooth="yes"/>
      <point x="696" y="464" type="line"/>
      <point x="897" y="484"/>
      <point x="989" y="577"/>
      <point x="989" y="690" type="curve" smooth="yes"/>
      <point x="989" y="742"/>
      <point x="961" y="770"/>
      <point x="915" y="770" type="curve" smooth="yes"/>
      <point x="867" y="770"/>
      <point x="844" y="742"/>
      <point x="844" y="697" type="curve" smooth="yes"/>
      <point x="844" y="645"/>
      <point x="918" y="635"/>
      <point x="918" y="586" type="curve" smooth="yes"/>
      <point x="918" y="526"/>
      <point x="802" y="482"/>
      <point x="698" y="474" type="curve"/>
      <point x="750" y="714" type="line"/>
      <point x="644" y="714" type="line"/>
      <point x="642" y="704" type="line"/>
      <point x="655" y="704" type="line" smooth="yes"/>
      <point x="697" y="704"/>
      <point x="727" y="700"/>
      <point x="727" y="674" type="curve" smooth="yes"/>
      <point x="727" y="666"/>
      <point x="726" y="657"/>
      <point x="723" y="643" type="curve" smooth="yes"/>
      <point x="637" y="236" type="line" smooth="yes"/>
      <point x="599" y="58"/>
      <point x="513" y="10"/>
      <point x="399" y="10" type="curve" smooth="yes"/>
      <point x="330" y="10"/>
      <point x="294" y="53"/>
      <point x="294" y="113" type="curve" smooth="yes"/>
      <point x="294" y="170"/>
      <point x="297" y="193"/>
      <point x="307" y="236" type="curve" smooth="yes"/>
      <point x="398" y="654" type="line" smooth="yes"/>
      <point x="407" y="697"/>
      <point x="447" y="704"/>
      <point x="491" y="704" type="curve" smooth="yes"/>
      <point x="504" y="704" type="line"/>
      <point x="506" y="714" type="line"/>
      <point x="119" y="714" type="line"/>
      <point x="118" y="704" type="line"/>
      <point x="131" y="704" type="line" smooth="yes"/>
      <point x="173" y="704"/>
      <point x="203" y="700"/>
      <point x="203" y="674" type="curve" smooth="yes"/>
      <point x="203" y="670"/>
      <point x="200" y="661"/>
      <point x="195" y="636" type="curve" smooth="yes"/>
      <point x="112" y="252" type="line" smooth="yes"/>
      <point x="107" y="229"/>
      <point x="101" y="184"/>
      <point x="101" y="163" type="curve" smooth="yes"/>
      <point x="101" y="53"/>
      <point x="191" y="-10"/>
    </contour>
  </outline>
</glyph>
<glyph name="uni01B5" format="2">
  <advance width="711"/>
  <unicode hex="01B5"/>
  <anchor x="299" y="0" name="bottom"/>
  <anchor x="451" y="714" name="top"/>
  <anchor x="769" y="714" name="topright"/>
  <outline>
    <contour>
      <point x="137" y="372" type="line"/>
      <point x="648" y="372" type="line"/>
      <point x="650" y="382" type="line"/>
      <point x="139" y="382" type="line"/>
    </contour>
    <component base="Z"/>
  </outline>
</glyph>
<glyph name="Aringacute" format="2">
  <advance width="788"/>
  <unicode hex="01FA"/>
  <anchor x="337" y="0" name="bottom"/>
  <anchor x="553" y="985" name="top"/>
  <outline>
    <contour>
      <point x="-44" y="0" type="line"/>
      <point x="203" y="0" type="line"/>
      <point x="205" y="10" type="line"/>
      <point x="161" y="10" type="line" smooth="yes"/>
      <point x="115" y="10"/>
      <point x="98" y="15"/>
      <point x="98" y="33" type="curve" smooth="yes"/>
      <point x="98" y="47"/>
      <point x="104" y="62"/>
      <point x="127" y="99" type="curve" smooth="yes"/>
      <point x="230" y="264" type="line"/>
      <point x="443" y="264" type="line"/>
      <point x="473" y="76" type="line" smooth="yes"/>
      <point x="475" y="65"/>
      <point x="475" y="56"/>
      <point x="475" y="45" type="curve" smooth="yes"/>
      <point x="475" y="19"/>
      <point x="449" y="10"/>
      <point x="406" y="10" type="curve" smooth="yes"/>
      <point x="367" y="10" type="line"/>
      <point x="365" y="0" type="line"/>
      <point x="738" y="0" type="line"/>
      <point x="741" y="10" type="line"/>
      <point x="736" y="10" type="line" smooth="yes"/>
      <point x="694" y="10"/>
      <point x="689" y="22"/>
      <point x="674" y="97" type="curve" smooth="yes"/>
      <point x="570" y="600" type="line"/>
      <point x="592" y="619"/>
      <point x="606" y="648"/>
      <point x="606" y="687" type="curve" smooth="yes"/>
      <point x="606" y="763"/>
      <point x="553" y="801"/>
      <point x="486" y="801" type="curve" smooth="yes"/>
      <point x="419" y="801"/>
      <point x="366" y="763"/>
      <point x="366" y="687" type="curve" smooth="yes"/>
      <point x="366" y="639"/>
      <point x="387" y="606"/>
      <point x="420" y="588" type="curve"/>
      <point x="107" y="88" type="line" smooth="yes"/>
      <point x="68" y="25"/>
      <point x="41" y="10"/>
      <point x="5" y="10" type="curve" smooth="yes"/>
      <point x="-42" y="10" type="line"/>
    </contour>
    <contour>
      <point x="237" y="274" type="line"/>
      <point x="315" y="399" type="line" smooth="yes"/>
      <point x="351" y="457"/>
      <point x="384" y="506"/>
      <point x="405" y="545" type="curve"/>
      <point x="410" y="497"/>
      <point x="416" y="460"/>
      <point x="424" y="401" type="curve" smooth="yes"/>
      <point x="442" y="274" type="line"/>
    </contour>
    <contour>
      <point x="486" y="582" type="curve" smooth="yes"/>
      <point x="429" y="582"/>
      <point x="379" y="613"/>
      <point x="379" y="687" type="curve" smooth="yes"/>
      <point x="379" y="760"/>
      <point x="429" y="791"/>
      <point x="486" y="791" type="curve" smooth="yes"/>
      <point x="543" y="791"/>
      <point x="593" y="760"/>
      <point x="593" y="687" type="curve" smooth="yes"/>
      <point x="593" y="613"/>
      <point x="543" y="582"/>
    </contour>
    <contour>
      <point x="441" y="838" type="curve"/>
      <point x="438" y="825" type="line"/>
      <point x="454" y="825" type="line"/>
      <point x="540" y="861"/>
      <point x="687" y="945"/>
      <point x="719" y="975" type="curve"/>
      <point x="722" y="985" type="line"/>
      <point x="561" y="985" type="line"/>
      <point x="529" y="943"/>
      <point x="479" y="875"/>
    </contour>
  </outline>
</glyph>
<glyph name="jdotless" format="2">
  <advance width="376"/>
  <unicode hex="0237"/>
  <anchor x="79" y="-240" name="bottom"/>
  <anchor x="224" y="536" name="top"/>
  <anchor x="422" y="714" name="topright"/>
  <outline>
    <contour>
      <point x="-11" y="-240" type="curve" smooth="yes"/>
      <point x="85" y="-240"/>
      <point x="191" y="-167"/>
      <point x="229" y="10" type="curve" smooth="yes"/>
      <point x="341" y="536" type="line"/>
      <point x="64" y="536" type="line"/>
      <point x="63" y="526" type="line"/>
      <point x="84" y="526" type="line" smooth="yes"/>
      <point x="123" y="526"/>
      <point x="131" y="515"/>
      <point x="131" y="488" type="curve" smooth="yes"/>
      <point x="131" y="472"/>
      <point x="126" y="452"/>
      <point x="121" y="428" type="curve" smooth="yes"/>
      <point x="19" y="-54" type="line" smooth="yes"/>
      <point x="-9" y="-187"/>
      <point x="-32" y="-222"/>
      <point x="-92" y="-222" type="curve" smooth="yes"/>
      <point x="-105" y="-222"/>
      <point x="-128" y="-218"/>
      <point x="-137" y="-215" type="curve"/>
      <point x="-140" y="-225" type="line"/>
      <point x="-101" y="-234"/>
      <point x="-69" y="-240"/>
    </contour>
  </outline>
</glyph>
<glyph name="uni023C" format="2">
  <advance width="559"/>
  <unicode hex="023C"/>
  <anchor x="223" y="-138" name="bottom"/>
  <anchor x="414" y="714" name="top"/>
  <anchor x="595" y="536" name="topright"/>
  <outline>
    <contour>
      <point x="97" y="-138" type="line"/>
      <point x="109" y="-138" type="line"/>
      <point x="508" y="714" type="line"/>
      <point x="496" y="714" type="line"/>
    </contour>
    <component base="c"/>
  </outline>
</glyph>
<glyph name="uni023E" format="2">
  <advance width="694"/>
  <unicode hex="023E"/>
  <anchor x="284" y="0" name="bottom"/>
  <anchor x="436" y="714" name="top"/>
  <anchor x="370" y="357" name="center"/>
  <anchor x="748" y="714" name="topright"/>
  <outline>
    <contour>
      <point x="-65" y="-84" type="line"/>
      <point x="-53" y="-84" type="line"/>
      <point x="753" y="760" type="line"/>
      <point x="741" y="760" type="line"/>
    </contour>
    <component base="T"/>
  </outline>
</glyph>
<glyph name="uni0248" format="2">
  <advance width="445"/>
  <unicode hex="0248"/>
  <anchor x="109" y="-240" name="bottom"/>
  <anchor x="312" y="714" name="top"/>
  <anchor x="508" y="714" name="topright"/>
  <outline>
    <contour>
      <point x="35" y="369" type="line"/>
      <point x="463" y="369" type="line"/>
      <point x="465" y="379" type="line"/>
      <point x="36" y="379" type="line"/>
    </contour>
    <component base="J"/>
  </outline>
</glyph>
<glyph name="uni024E" format="2">
  <advance width="739"/>
  <unicode hex="024E"/>
  <anchor x="315" y="0" name="bottom"/>
  <anchor x="467" y="714" name="top"/>
  <anchor x="874" y="714" name="topright"/>
  <outline>
    <contour>
      <point x="74" y="507" type="line"/>
      <point x="788" y="507" type="line"/>
      <point x="790" y="517" type="line"/>
      <point x="76" y="517" type="line"/>
    </contour>
    <component base="Y"/>
  </outline>
</glyph>
<glyph name="schwahook" format="2">
  <advance width="915"/>
  <unicode hex="025A"/>
  <anchor x="310" y="0" name="bottom"/>
  <anchor x="384" y="536" name="top"/>
  <outline>
    <contour>
      <point x="213" y="-10" type="curve" smooth="yes"/>
      <point x="421" y="-10"/>
      <point x="559" y="175"/>
      <point x="559" y="342" type="curve"/>
      <point x="627" y="355" type="line"/>
      <point x="643" y="282" type="line" smooth="yes"/>
      <point x="669" y="163"/>
      <point x="705" y="118"/>
      <point x="774" y="118" type="curve" smooth="yes"/>
      <point x="821" y="118"/>
      <point x="864" y="151"/>
      <point x="864" y="203" type="curve" smooth="yes"/>
      <point x="864" y="240"/>
      <point x="843" y="266"/>
      <point x="823" y="277" type="curve"/>
      <point x="809" y="238"/>
      <point x="784" y="211"/>
      <point x="743" y="211" type="curve" smooth="yes"/>
      <point x="697" y="211"/>
      <point x="664" y="239"/>
      <point x="642" y="336" type="curve" smooth="yes"/>
      <point x="635" y="367" type="line"/>
      <point x="557" y="352" type="line"/>
      <point x="541" y="508"/>
      <point x="429" y="546"/>
      <point x="316" y="546" type="curve" smooth="yes"/>
      <point x="166" y="546"/>
      <point x="99" y="476"/>
      <point x="99" y="423" type="curve" smooth="yes"/>
      <point x="99" y="404"/>
      <point x="106" y="373"/>
      <point x="130" y="373" type="curve"/>
      <point x="157" y="489"/>
      <point x="219" y="536"/>
      <point x="285" y="536" type="curve" smooth="yes"/>
      <point x="359" y="536"/>
      <point x="380" y="496"/>
      <point x="380" y="371" type="curve" smooth="yes"/>
      <point x="380" y="354"/>
      <point x="379" y="336"/>
      <point x="378" y="324" type="curve"/>
      <point x="188" y="295"/>
      <point x="26" y="256"/>
      <point x="26" y="127" type="curve" smooth="yes"/>
      <point x="26" y="42"/>
      <point x="82" y="-10"/>
    </contour>
    <contour>
      <point x="240" y="1" type="curve" smooth="yes"/>
      <point x="205" y="1"/>
      <point x="196" y="34"/>
      <point x="196" y="67" type="curve" smooth="yes"/>
      <point x="196" y="175"/>
      <point x="224" y="285"/>
      <point x="378" y="314" type="curve"/>
      <point x="335" y="62"/>
      <point x="289" y="1"/>
    </contour>
  </outline>
</glyph>
<glyph name="eopenreversedhook" format="2">
  <advance width="894"/>
  <unicode hex="025D"/>
  <anchor x="222" y="0" name="bottom"/>
  <anchor x="330" y="536" name="top"/>
  <outline>
    <contour>
      <point x="763" y="162" type="curve" smooth="yes"/>
      <point x="810" y="162"/>
      <point x="853" y="195"/>
      <point x="853" y="247" type="curve" smooth="yes"/>
      <point x="853" y="284"/>
      <point x="832" y="310"/>
      <point x="812" y="321" type="curve"/>
      <point x="798" y="282"/>
      <point x="773" y="255"/>
      <point x="732" y="255" type="curve" smooth="yes"/>
      <point x="686" y="255"/>
      <point x="652" y="283"/>
      <point x="631" y="380" type="curve" smooth="yes"/>
      <point x="620" y="432" type="line"/>
      <point x="467" y="381" type="line"/>
      <point x="469" y="371" type="line"/>
      <point x="612" y="420" type="line"/>
      <point x="632" y="326" type="line" smooth="yes"/>
      <point x="657" y="210"/>
      <point x="694" y="162"/>
    </contour>
    <component base="afii10073"/>
  </outline>
</glyph>
<glyph name="uni025F" format="2">
  <advance width="384"/>
  <unicode hex="025F"/>
  <anchor x="79" y="-240" name="bottom"/>
  <anchor x="244" y="536" name="top"/>
  <anchor x="420" y="536" name="topright"/>
  <outline>
    <contour>
      <point x="-7" y="276" type="line"/>
      <point x="392" y="276" type="line"/>
      <point x="394" y="286" type="line"/>
      <point x="-4" y="286" type="line"/>
    </contour>
    <component base="jdotless"/>
  </outline>
</glyph>
<glyph name="uni0268" format="2">
  <advance width="389"/>
  <unicode hex="0268"/>
  <anchor x="139" y="0" name="bottom"/>
  <anchor x="304" y="777" name="top"/>
  <anchor x="482" y="777" name="topright"/>
  <outline>
    <contour>
      <point x="-1" y="287" type="line"/>
      <point x="395" y="287" type="line"/>
      <point x="398" y="297" type="line"/>
      <point x="1" y="297" type="line"/>
    </contour>
    <component base="i"/>
  </outline>
</glyph>
<glyph name="rlongleg" format="2">
  <advance width="616"/>
  <unicode hex="027C"/>
  <anchor x="198" y="-240" name="bottom"/>
  <anchor x="363" y="536" name="top"/>
  <outline>
    <contour>
      <point x="-19" y="-240" type="line"/>
      <point x="173" y="-240" type="line"/>
      <point x="292" y="286" type="line" smooth="yes"/>
      <point x="327" y="441"/>
      <point x="380" y="508"/>
      <point x="428" y="508" type="curve" smooth="yes"/>
      <point x="469" y="508"/>
      <point x="489" y="489"/>
      <point x="475" y="338" type="curve"/>
      <point x="565" y="338"/>
      <point x="619" y="374"/>
      <point x="619" y="454" type="curve" smooth="yes"/>
      <point x="619" y="517"/>
      <point x="579" y="546"/>
      <point x="497" y="546" type="curve" smooth="yes"/>
      <point x="412" y="546"/>
      <point x="350" y="508"/>
      <point x="306" y="368" type="curve"/>
      <point x="303" y="368" type="line"/>
      <point x="328" y="536" type="line"/>
      <point x="74" y="536" type="line"/>
      <point x="72" y="526" type="line"/>
      <point x="101" y="526" type="line" smooth="yes"/>
      <point x="129" y="526"/>
      <point x="134" y="514"/>
      <point x="134" y="500" type="curve" smooth="yes"/>
      <point x="134" y="480"/>
      <point x="130" y="464"/>
      <point x="126" y="444" type="curve" smooth="yes"/>
    </contour>
  </outline>
</glyph>
<glyph name="rfishhookreversed" format="2">
  <advance width="544"/>
  <unicode hex="027F"/>
  <anchor x="157" y="-240" name="bottom"/>
  <anchor x="325" y="551" name="top"/>
  <outline>
    <contour>
      <point x="158" y="-240" type="line"/>
      <point x="354" y="-240" type="line"/>
      <point x="473" y="298" type="line" smooth="yes"/>
      <point x="480" y="335"/>
      <point x="484" y="353"/>
      <point x="484" y="389" type="curve" smooth="yes"/>
      <point x="484" y="491"/>
      <point x="410" y="551"/>
      <point x="252" y="551" type="curve" smooth="yes"/>
      <point x="106" y="551"/>
      <point x="14" y="496"/>
      <point x="14" y="394" type="curve" smooth="yes"/>
      <point x="14" y="340"/>
      <point x="60" y="309"/>
      <point x="151" y="309" type="curve"/>
      <point x="181" y="496"/>
      <point x="215" y="541"/>
      <point x="268" y="541" type="curve" smooth="yes"/>
      <point x="309" y="541"/>
      <point x="317" y="515"/>
      <point x="317" y="498" type="curve" smooth="yes"/>
      <point x="317" y="486"/>
      <point x="313" y="463"/>
      <point x="307" y="435" type="curve" smooth="yes"/>
    </contour>
  </outline>
</glyph>
<glyph name="eshsquatreversed" format="2">
  <advance width="559"/>
  <unicode hex="0285"/>
  <anchor x="179" y="-240" name="bottom"/>
  <anchor x="344" y="536" name="top"/>
  <outline>
    <contour>
      <point x="386" y="-240" type="curve" smooth="yes"/>
      <point x="502" y="-240"/>
      <point x="583" y="-203"/>
      <point x="583" y="-122" type="curve" smooth="yes"/>
      <point x="583" y="-84"/>
      <point x="565" y="-40"/>
      <point x="473" y="-40" type="curve"/>
      <point x="434" y="-199"/>
      <point x="398" y="-230"/>
      <point x="366" y="-230" type="curve" smooth="yes"/>
      <point x="332" y="-230"/>
      <point x="320" y="-212"/>
      <point x="319" y="-182" type="curve" smooth="yes"/>
      <point x="319" y="-164"/>
      <point x="323" y="-142"/>
      <point x="330" y="-117" type="curve" smooth="yes"/>
      <point x="423" y="246" type="line" smooth="yes"/>
      <point x="435" y="293"/>
      <point x="438" y="323"/>
      <point x="439" y="368" type="curve" smooth="yes"/>
      <point x="440" y="490"/>
      <point x="370" y="546"/>
      <point x="219" y="546" type="curve" smooth="yes"/>
      <point x="130" y="546"/>
      <point x="21" y="519"/>
      <point x="21" y="428" type="curve" smooth="yes"/>
      <point x="21" y="385"/>
      <point x="48" y="349"/>
      <point x="133" y="349" type="curve"/>
      <point x="176" y="521"/>
      <point x="206" y="536"/>
      <point x="238" y="536" type="curve" smooth="yes"/>
      <point x="275" y="536"/>
      <point x="281" y="511"/>
      <point x="281" y="496" type="curve" smooth="yes"/>
      <point x="281" y="477"/>
      <point x="278" y="461"/>
      <point x="273" y="443" type="curve" smooth="yes"/>
      <point x="183" y="86" type="line" smooth="yes"/>
      <point x="166" y="20"/>
      <point x="162" y="-20"/>
      <point x="162" y="-65" type="curve" smooth="yes"/>
      <point x="162" y="-203"/>
      <point x="256" y="-240"/>
    </contour>
  </outline>
</glyph>
<glyph name="eshcurl" format="2">
  <advance width="497"/>
  <unicode hex="0286"/>
  <anchor x="147" y="-240" name="bottom"/>
  <anchor x="362" y="770" name="top"/>
  <outline>
    <contour>
      <point x="-35" y="-240" type="curve" smooth="yes"/>
      <point x="76" y="-240"/>
      <point x="153" y="-202"/>
      <point x="223" y="-91" type="curve"/>
      <point x="256" y="-121"/>
      <point x="278" y="-162"/>
      <point x="288" y="-215" type="curve"/>
      <point x="298" y="-213" type="line"/>
      <point x="289" y="-159"/>
      <point x="266" y="-115"/>
      <point x="229" y="-81" type="curve"/>
      <point x="238" y="-72"/>
      <point x="277" y="31"/>
      <point x="295" y="120" type="curve" smooth="yes"/>
      <point x="410" y="658" type="line" smooth="yes"/>
      <point x="427" y="739"/>
      <point x="440" y="760"/>
      <point x="470" y="760" type="curve" smooth="yes"/>
      <point x="502" y="760"/>
      <point x="513" y="725"/>
      <point x="498" y="582" type="curve"/>
      <point x="589" y="582"/>
      <point x="637" y="612"/>
      <point x="637" y="656" type="curve" smooth="yes"/>
      <point x="637" y="719"/>
      <point x="573" y="770"/>
      <point x="455" y="770" type="curve" smooth="yes"/>
      <point x="307" y="770"/>
      <point x="226" y="709"/>
      <point x="193" y="556" type="curve" smooth="yes"/>
      <point x="69" y="-13" type="line"/>
      <point x="45" y="-10"/>
      <point x="19" y="-8"/>
      <point x="-9" y="-8" type="curve" smooth="yes"/>
      <point x="-109" y="-8"/>
      <point x="-170" y="-50"/>
      <point x="-170" y="-133" type="curve" smooth="yes"/>
      <point x="-170" y="-203"/>
      <point x="-118" y="-240"/>
    </contour>
    <contour>
      <point x="-51" y="-230" type="curve" smooth="yes"/>
      <point x="-106" y="-230"/>
      <point x="-159" y="-200"/>
      <point x="-159" y="-133" type="curve" smooth="yes"/>
      <point x="-159" y="-56"/>
      <point x="-106" y="-18"/>
      <point x="-7" y="-18" type="curve" smooth="yes"/>
      <point x="19" y="-18"/>
      <point x="43" y="-20"/>
      <point x="67" y="-23" type="curve"/>
      <point x="37" y="-177"/>
      <point x="28" y="-230"/>
    </contour>
  </outline>
</glyph>
<glyph name="uni0289" format="2">
  <advance width="726"/>
  <unicode hex="0289"/>
  <anchor x="307" y="0" name="bottom"/>
  <anchor x="421" y="536" name="top"/>
  <anchor x="764" y="536" name="topright"/>
  <outline>
    <contour>
      <point x="0" y="313" type="line"/>
      <point x="738" y="313" type="line"/>
      <point x="741" y="323" type="line"/>
      <point x="3" y="323" type="line"/>
    </contour>
    <component base="u"/>
  </outline>
</glyph>
